<svg width="24" height="24" viewBox="0 0 24 24" fill="none" xmlns="http://www.w3.org/2000/svg">
<path d="M8 5.75C7.59 5.75 7.25 5.41 7.25 5V2C7.25 1.59 7.59 1.25 8 1.25C8.41 1.25 8.75 1.59 8.75 2V5C8.75 5.41 8.41 5.75 8 5.75Z" fill="#292D32"/>
<path d="M16 5.75C15.59 5.75 15.25 5.41 15.25 5V2C15.25 1.59 15.59 1.25 16 1.25C16.41 1.25 16.75 1.59 16.75 2V5C16.75 5.41 16.41 5.75 16 5.75Z" fill="#292D32"/>
<path d="M10 14.4999C9.87 14.4999 9.74 14.4699 9.62 14.4199C9.49 14.3699 9.39 14.2999 9.29 14.2099C9.11 14.0199 9 13.7699 9 13.4999C9 13.3699 9.03 13.2399 9.08 13.1199C9.13 12.9999 9.2 12.8899 9.29 12.7899C9.39 12.6999 9.49 12.6299 9.62 12.5799C9.98 12.4199 10.43 12.5099 10.71 12.7899C10.89 12.9799 11 13.2399 11 13.4999C11 13.5599 10.99 13.6299 10.98 13.6999C10.97 13.7599 10.95 13.8199 10.92 13.8799C10.9 13.9399 10.87 13.9999 10.83 14.0599C10.8 14.1099 10.75 14.1599 10.71 14.2099C10.52 14.3899 10.26 14.4999 10 14.4999Z" fill="#292D32"/>
<path d="M13.5 14.4999C13.37 14.4999 13.24 14.4699 13.12 14.4199C12.99 14.3699 12.89 14.2999 12.79 14.2099C12.75 14.1599 12.71 14.1099 12.67 14.0599C12.63 13.9999 12.6 13.9399 12.58 13.8799C12.55 13.8199 12.53 13.7599 12.52 13.6999C12.51 13.6299 12.5 13.5599 12.5 13.4999C12.5 13.2399 12.61 12.9799 12.79 12.7899C12.89 12.6999 12.99 12.6299 13.12 12.5799C13.49 12.4199 13.93 12.5099 14.21 12.7899C14.39 12.9799 14.5 13.2399 14.5 13.4999C14.5 13.5599 14.49 13.6299 14.48 13.6999C14.47 13.7599 14.45 13.8199 14.42 13.8799C14.4 13.9399 14.37 13.9999 14.33 14.0599C14.3 14.1099 14.25 14.1599 14.21 14.2099C14.02 14.3899 13.76 14.4999 13.5 14.4999Z" fill="#292D32"/>
<path d="M10 18.0002C9.74 18.0002 9.48 17.8902 9.29 17.7102C9.11 17.5202 9 17.2602 9 17.0002C9 16.8702 9.03 16.7402 9.08 16.6202C9.13 16.4902 9.2 16.3802 9.29 16.2902C9.66 15.9202 10.34 15.9202 10.71 16.2902C10.8 16.3802 10.87 16.4902 10.92 16.6202C10.97 16.7402 11 16.8702 11 17.0002C11 17.2602 10.89 17.5202 10.71 17.7102C10.52 17.8902 10.26 18.0002 10 18.0002Z" fill="#292D32"/>
<path d="M13.5 17.9999C13.24 17.9999 12.98 17.8899 12.79 17.7099C12.7 17.6199 12.63 17.5099 12.58 17.3799C12.53 17.2599 12.5 17.1299 12.5 16.9999C12.5 16.8699 12.53 16.7399 12.58 16.6199C12.63 16.4899 12.7 16.3799 12.79 16.2899C13.02 16.0599 13.37 15.9499 13.69 16.0199C13.76 16.0299 13.82 16.0499 13.88 16.0799C13.94 16.0999 14 16.1299 14.06 16.1699C14.11 16.1999 14.16 16.2499 14.21 16.2899C14.39 16.4799 14.5 16.7399 14.5 16.9999C14.5 17.2599 14.39 17.5199 14.21 17.7099C14.02 17.8899 13.76 17.9999 13.5 17.9999Z" fill="#292D32"/>
<path d="M20.5 9.83984H3.5C3.09 9.83984 2.75 9.49984 2.75 9.08984C2.75 8.67984 3.09 8.33984 3.5 8.33984H20.5C20.91 8.33984 21.25 8.67984 21.25 9.08984C21.25 9.49984 20.91 9.83984 20.5 9.83984Z" fill="#292D32"/>
<path d="M16 22.75H8C4.35 22.75 2.25 20.65 2.25 17V8.5C2.25 4.85 4.35 2.75 8 2.75H16C19.65 2.75 21.75 4.85 21.75 8.5V17C21.75 20.65 19.65 22.75 16 22.75ZM8 4.25C5.14 4.25 3.75 5.64 3.75 8.5V17C3.75 19.86 5.14 21.25 8 21.25H16C18.86 21.25 20.25 19.86 20.25 17V8.5C20.25 5.64 18.86 4.25 16 4.25H8Z" fill="#292D32"/>
</svg>
