<svg width="166" height="179" viewBox="0 0 166 179" fill="none" xmlns="http://www.w3.org/2000/svg">
<path d="M166 136.899H0V136.989H166V136.899Z" fill="#EBEBEB"/>
<path d="M149.367 142.66H138.371V142.75H149.367V142.66Z" fill="#EBEBEB"/>
<path d="M109.965 143.634H107.08V143.723H109.965V143.634Z" fill="#EBEBEB"/>
<path d="M138.039 139.338H131.668V139.427H138.039V139.338Z" fill="#EBEBEB"/>
<path d="M31.7551 139.939H17.416V140.029H31.7551V139.939Z" fill="#EBEBEB"/>
<path d="M36.8164 139.939H34.7148V140.029H36.8164V139.939Z" fill="#EBEBEB"/>
<path d="M74.7502 141.45H43.6484V141.54H74.7502V141.45Z" fill="#EBEBEB"/>
<path d="M78.6838 120.933H14.5779C14.0757 120.932 13.5944 120.716 13.2396 120.333C12.8848 119.95 12.6855 119.43 12.6855 118.889V21.7167C12.6899 21.1783 12.8911 20.6635 13.2454 20.2841C13.5998 19.9047 14.0786 19.6914 14.5779 19.6904H78.6838C79.1866 19.6904 79.6688 19.9058 80.0243 20.2892C80.3798 20.6725 80.5796 21.1925 80.5796 21.7346V118.889C80.5796 119.431 80.3798 119.951 80.0243 120.334C79.6688 120.717 79.1866 120.933 78.6838 120.933ZM14.5779 19.762C14.0978 19.763 13.6375 19.9693 13.2983 20.3358C12.9591 20.7023 12.7685 21.1989 12.7685 21.7167V118.889C12.7685 119.406 12.9591 119.903 13.2983 120.27C13.6375 120.636 14.0978 120.842 14.5779 120.843H78.6838C79.1643 120.842 79.6249 120.636 79.9646 120.27C80.3044 119.903 80.4957 119.407 80.4966 118.889V21.7167C80.4957 21.1986 80.3044 20.702 79.9646 20.3356C79.6249 19.9692 79.1643 19.763 78.6838 19.762H14.5779Z" fill="#EBEBEB"/>
<path d="M150.499 120.933H86.3899C85.8874 120.932 85.4057 120.716 85.0504 120.333C84.695 119.95 84.495 119.431 84.4941 118.889V21.7167C84.4994 21.178 84.7013 20.6631 85.0562 20.2838C85.411 19.9046 85.8902 19.6913 86.3899 19.6904H150.499C150.998 19.6923 151.476 19.906 151.829 20.2853C152.183 20.6646 152.384 21.1789 152.388 21.7167V118.889C152.388 119.43 152.189 119.948 151.835 120.332C151.481 120.715 151.001 120.931 150.499 120.933ZM86.3899 19.762C85.9094 19.763 85.4488 19.9692 85.109 20.3356C84.7693 20.702 84.578 21.1986 84.5771 21.7167V118.889C84.578 119.407 84.7693 119.903 85.109 120.27C85.4488 120.636 85.9094 120.842 86.3899 120.843H150.499C150.98 120.842 151.44 120.636 151.78 120.27C152.12 119.903 152.311 119.407 152.312 118.889V21.7167C152.311 21.1986 152.12 20.702 151.78 20.3356C151.44 19.9692 150.98 19.763 150.499 19.762H86.3899Z" fill="#EBEBEB"/>
<path d="M129.48 113.486V101.715H111.18V75.9216H107.969V90.7034H99.2212V86.615H83.4678V72.4597H80.5495V55.1611H78.2155V72.1447H72.6745V97.3085H62.1733V72.1447H43.2128V97.3085H33.877V131.283H133.932V116.35L129.48 113.486Z" fill="#E0E0E0"/>
<path d="M83.2487 110.264L76.6054 95.5859H35.1121L28.4688 110.264H33.5317V131.386H78.0197V110.264H83.2487Z" fill="#F0F0F0"/>
<path d="M104.715 112.19H74.0352V131.386H104.715V112.19Z" fill="#F0F0F0"/>
<path d="M104.169 113.486H78.9668V116.916H104.169V113.486Z" fill="#E6E6E6"/>
<path d="M104.169 118.53H78.9668V121.96H104.169V118.53Z" fill="#E6E6E6"/>
<path d="M104.169 123.575H78.9668V127.005H104.169V123.575Z" fill="#E6E6E6"/>
<path d="M104.169 128.619H78.9668V131.386H104.169V128.619Z" fill="#E6E6E6"/>
<path d="M70.7151 110.264H32.2031L27.8074 95.5859L21.1641 110.264H26.2271V131.386H42.8271L70.7151 113.246V110.264Z" fill="#E6E6E6"/>
<path d="M140.483 47.7109H138.238V131.386H140.483V47.7109Z" fill="#E6E6E6"/>
<path d="M147.836 55.2668C148.595 50.2238 145.419 45.472 140.743 44.6534C136.066 43.8348 131.659 47.2594 130.9 52.3024C130.141 57.3454 133.317 62.0972 137.993 62.9158C142.67 63.7344 147.077 60.3098 147.836 55.2668Z" fill="#EBEBEB"/>
<path d="M136.469 56.3278L136.867 55.422C137.566 56.0367 138.442 56.3685 139.344 56.36C140.645 56.36 141.203 55.8158 141.203 55.1106C141.203 53.1344 136.651 54.3946 136.651 51.373C136.651 50.1236 137.554 49.0604 139.526 49.0604C140.379 49.0437 141.218 49.2923 141.943 49.7764L141.588 50.7036C140.972 50.2788 140.258 50.0505 139.526 50.0449C138.252 50.0449 137.704 50.6212 137.704 51.3265C137.704 53.3062 142.252 52.0676 142.252 55.0425C142.252 56.2812 141.329 57.3445 139.344 57.3445C138.198 57.3445 137.07 56.922 136.469 56.3278Z" fill="white"/>
<path d="M146.759 55.0773C147.421 50.6764 144.65 46.5296 140.568 45.8153C136.487 45.1009 132.641 48.0894 131.979 52.4904C131.316 56.8913 134.088 61.0381 138.169 61.7525C142.25 62.4668 146.096 59.4783 146.759 55.0773Z" stroke="white" stroke-width="2" stroke-miterlimit="10"/>
<path d="M147.076 131.851V136.756H18.9239V131.851C18.914 131.655 18.9409 131.459 19.0029 131.274C19.0649 131.09 19.1607 130.921 19.2846 130.777C19.4086 130.633 19.5581 130.518 19.7243 130.438C19.8905 130.358 20.0699 130.315 20.2519 130.312H145.748C145.93 130.315 146.109 130.358 146.275 130.438C146.442 130.518 146.591 130.633 146.715 130.777C146.839 130.921 146.935 131.09 146.997 131.274C147.059 131.459 147.086 131.655 147.076 131.851Z" fill="#2E353A"/>
<path d="M34.1965 130.312H26.2285V136.756H34.1965V130.312Z" fill="#276EF1"/>
<path d="M49.136 130.312H41.5V136.756H49.136V130.312Z" fill="#276EF1"/>
<path d="M64.4075 130.312H56.4395V136.756H64.4075V130.312Z" fill="#276EF1"/>
<path d="M79.3469 130.312H71.7109V136.756H79.3469V130.312Z" fill="#276EF1"/>
<path d="M94.2883 130.312H86.6523V136.756H94.2883V130.312Z" fill="#276EF1"/>
<path d="M109.56 130.312H101.592V136.756H109.56V130.312Z" fill="#276EF1"/>
<path d="M124.499 130.312H116.863V136.756H124.499V130.312Z" fill="#276EF1"/>
<path d="M139.773 130.312H131.805V136.756H139.773V130.312Z" fill="#276EF1"/>
<g opacity="0.6">
<path d="M34.1965 130.312H26.2285V136.756H34.1965V130.312Z" fill="white"/>
<path d="M49.136 130.312H41.5V136.756H49.136V130.312Z" fill="white"/>
<path d="M64.4094 130.312H56.4414V136.756H64.4094V130.312Z" fill="white"/>
<path d="M79.3489 130.312H71.7129V136.756H79.3489V130.312Z" fill="white"/>
<path d="M94.2883 130.312H86.6523V136.756H94.2883V130.312Z" fill="white"/>
<path d="M109.56 130.312H101.592V136.756H109.56V130.312Z" fill="white"/>
<path d="M124.501 130.312H116.865V136.756H124.501V130.312Z" fill="white"/>
<path d="M139.773 130.312H131.805V136.756H139.773V130.312Z" fill="white"/>
</g>
<path opacity="0.1" d="M147.076 131.851V136.756H18.9239V131.851C18.914 131.655 18.9409 131.459 19.0029 131.274C19.0649 131.09 19.1607 130.921 19.2846 130.777C19.4086 130.633 19.5581 130.518 19.7243 130.438C19.8905 130.358 20.0699 130.315 20.2519 130.312H145.748C145.93 130.315 146.109 130.358 146.275 130.438C146.442 130.518 146.591 130.633 146.715 130.777C146.839 130.921 146.935 131.09 146.997 131.274C147.059 131.459 147.086 131.655 147.076 131.851Z" fill="white"/>
<path d="M53.7843 34.9549V86.8649C53.7714 87.1004 53.6742 87.3213 53.5131 87.4809C53.3521 87.6406 53.1398 87.7265 52.9211 87.7205H24.1267C23.715 87.7205 23.5723 87.3804 23.5723 86.9365V34.8833C23.5723 34.5002 23.6685 34.0098 24.0238 34.0098H31.2083C31.3146 34.0277 31.4143 34.077 31.4963 34.1522C31.5783 34.2274 31.6395 34.3255 31.6731 34.4358L31.9685 35.1518C32.0094 35.2447 32.0762 35.3216 32.1595 35.3716C32.2428 35.4217 32.3386 35.4424 32.4333 35.431H44.6875C44.8933 35.431 45.0759 35.3988 45.1523 35.1947L45.4511 34.3749C45.4879 34.2737 45.5511 34.1862 45.6329 34.1227C45.7148 34.0592 45.8118 34.0225 45.9125 34.0169H53.0207C53.2289 34.054 53.4187 34.1678 53.5579 34.3388C53.6971 34.5098 53.7771 34.7275 53.7843 34.9549Z" fill="#276EF1"/>
<path opacity="0.2" d="M53.7843 34.9549V86.8649C53.7714 87.1004 53.6742 87.3213 53.5131 87.4809C53.3521 87.6406 53.1398 87.7265 52.9211 87.7205H24.1267C23.715 87.7205 23.5723 87.3804 23.5723 86.9365V34.8833C23.5723 34.5002 23.6685 34.0098 24.0238 34.0098H31.2083C31.3146 34.0277 31.4143 34.077 31.4963 34.1522C31.5783 34.2274 31.6395 34.3255 31.6731 34.4358L31.9685 35.1518C32.0094 35.2447 32.0762 35.3216 32.1595 35.3716C32.2428 35.4217 32.3386 35.4424 32.4333 35.431H44.6875C44.8933 35.431 45.0759 35.3988 45.1523 35.1947L45.4511 34.3749C45.4879 34.2737 45.5511 34.1862 45.6329 34.1227C45.7148 34.0592 45.8118 34.0225 45.9125 34.0169H53.0207C53.2289 34.054 53.4187 34.1678 53.5579 34.3388C53.6971 34.5098 53.7771 34.7275 53.7843 34.9549Z" fill="white"/>
<path opacity="0.4" d="M52.6263 39.7344H24.7383V76.9664H52.6263V39.7344Z" fill="white"/>
<path d="M47.144 44.3204C46.9725 44.1347 46.7687 43.9873 46.5442 43.8867C46.3197 43.7861 46.079 43.7344 45.8359 43.7344C45.5929 43.7344 45.3522 43.7861 45.1277 43.8867C44.9032 43.9873 44.6994 44.1347 44.5279 44.3204C44.3556 44.5054 44.2189 44.7252 44.1257 44.9672C44.0324 45.2093 43.9844 45.4688 43.9844 45.7309C43.9844 45.9931 44.0324 46.2526 44.1257 46.4947C44.2189 46.7367 44.3556 46.9565 44.5279 47.1415L45.8359 48.552L47.144 47.1415C47.4903 46.767 47.6847 46.2598 47.6847 45.7309C47.6847 45.2021 47.4903 44.6949 47.144 44.3204ZM46.48 46.4111C46.312 46.5915 46.0846 46.6928 45.8476 46.6928C45.6105 46.6928 45.3831 46.5915 45.2151 46.4111C45.048 46.2306 44.9542 45.986 44.9542 45.7309C44.9542 45.4759 45.048 45.2313 45.2151 45.0507C45.3831 44.8704 45.6105 44.7691 45.8476 44.7691C46.0846 44.7691 46.312 44.8704 46.48 45.0507C46.6471 45.2313 46.7409 45.4759 46.7409 45.7309C46.7409 45.986 46.6471 46.2306 46.48 46.4111Z" fill="#276EF1"/>
<path d="M29.8542 69.5342C29.5069 69.1609 29.0365 68.9512 28.5461 68.9512C28.0557 68.9512 27.5853 69.1609 27.238 69.5342C26.8917 69.9087 26.6973 70.4159 26.6973 70.9448C26.6973 71.4736 26.8917 71.9808 27.238 72.3553L28.5527 73.7658L29.8608 72.3553C30.0326 72.1699 30.1688 71.9497 30.2615 71.7074C30.3542 71.4651 30.4016 71.2054 30.401 70.9433C30.4003 70.6812 30.3517 70.4218 30.2579 70.18C30.164 69.9382 30.0268 69.7187 29.8542 69.5342ZM29.1902 71.625C29.1077 71.715 29.0095 71.7865 28.9012 71.8353C28.7929 71.8841 28.6767 71.9093 28.5594 71.9093C28.442 71.9093 28.3258 71.8841 28.2175 71.8353C28.1092 71.7865 28.011 71.715 27.9286 71.625C27.7615 71.4444 27.6677 71.1998 27.6677 70.9448C27.6677 70.6897 27.7615 70.4451 27.9286 70.2646C28.096 70.0844 28.3228 69.9833 28.5594 69.9833C28.7959 69.9833 29.0227 70.0844 29.1902 70.2646C29.3555 70.447 29.4469 70.6927 29.4444 70.9477C29.4419 71.2028 29.3457 71.4463 29.1769 71.625H29.1902Z" fill="#276EF1"/>
<path d="M48.619 39.7373H46.9225L48.702 48.9952L40.2892 51.2506L38.078 39.7373H36.3782L38.6756 51.6838L29.7681 54.0573L27.0158 39.7373H25.3292L28.1844 54.5012L24.7383 55.432V57.2793L28.553 56.2518L30.276 65.3021L24.7516 66.7914V68.6386L30.6147 67.0563L32.4772 76.9693H34.1737L32.1817 66.6303L34.5456 65.9966C34.6243 65.9735 34.7067 65.9686 34.7874 65.9822C34.8681 65.9958 34.9452 66.0275 35.0137 66.0754C35.0827 66.1212 35.1424 66.1816 35.1892 66.253C35.2359 66.3244 35.2689 66.4052 35.2859 66.4906L37.4107 76.9693H39.1072L36.9094 66.1112C36.8447 65.7913 36.7211 65.4887 36.546 65.2212C36.3709 64.9537 36.1478 64.7268 35.89 64.5539C35.6321 64.381 35.3447 64.2656 35.0448 64.2146C34.7449 64.1635 34.4385 64.1779 34.1438 64.2567L31.8431 64.8761L30.1034 55.8222L39.011 53.438L39.7912 57.4977C39.8931 58.0345 40.1507 58.5226 40.5266 58.8913C40.9026 59.26 41.3775 59.4903 41.8828 59.549L50.9364 60.623L52.623 69.394V59.012L42.0654 57.7519C41.9089 57.7328 41.7621 57.6608 41.6459 57.5464C41.5296 57.432 41.4498 57.2808 41.418 57.1146L40.6212 52.9833L52.623 49.7613V47.914L50.299 48.5334L48.619 39.7373Z" fill="#276EF1"/>
<path d="M44.8377 84.1872H32.5371C31.9715 84.1872 31.429 83.9452 31.0288 83.5143C30.6285 83.0833 30.4032 82.4987 30.4023 81.8889C30.4023 81.2783 30.6273 80.6928 31.0276 80.2611C31.4279 79.8294 31.9709 79.5869 32.5371 79.5869H44.8443C45.4099 79.5879 45.9521 79.8308 46.3517 80.2624C46.7513 80.694 46.9758 81.279 46.9758 81.8889C46.9754 82.1912 46.9197 82.4904 46.812 82.7695C46.7043 83.0486 46.5467 83.3021 46.3482 83.5155C46.1496 83.7289 45.9141 83.8981 45.6549 84.0134C45.3957 84.1286 45.118 84.1877 44.8377 84.1872Z" fill="#276EF1"/>
<path d="M32.9305 82.0108C32.9219 81.7621 32.9824 81.5162 33.1042 81.3048C33.2261 81.0934 33.4037 80.9261 33.6143 80.8242C33.8249 80.7224 34.0589 80.6907 34.2864 80.7332C34.5138 80.7758 34.7243 80.8906 34.8908 81.0629C35.0573 81.2353 35.1723 81.4574 35.221 81.7007C35.2697 81.944 35.2499 82.1975 35.1641 82.4285C35.0783 82.6596 34.9305 82.8578 34.7396 82.9977C34.5486 83.1376 34.3233 83.2128 34.0925 83.2137C33.9419 83.2215 33.7914 83.1961 33.6502 83.139C33.5091 83.082 33.3802 82.9945 33.2714 82.8819C33.1627 82.7693 33.0763 82.634 33.0177 82.4842C32.9591 82.3345 32.9294 82.1734 32.9305 82.0108ZM34.9225 82.0108C34.9238 81.8298 34.8752 81.6525 34.7828 81.5013C34.6905 81.3502 34.5585 81.232 34.4037 81.162C34.249 81.0919 34.0784 81.073 33.9136 81.1077C33.7489 81.1424 33.5974 81.2291 33.4785 81.3569C33.3595 81.4846 33.2785 81.6476 33.2457 81.8251C33.2128 82.0026 33.2297 82.1866 33.2941 82.3538C33.3585 82.521 33.4675 82.6637 33.6073 82.7639C33.7471 82.8641 33.9113 82.9172 34.0792 82.9165C34.1918 82.9225 34.3042 82.9033 34.4096 82.8602C34.5149 82.817 34.6108 82.7508 34.6912 82.6657C34.7717 82.5807 34.8349 82.4785 34.877 82.3658C34.9191 82.2531 34.9391 82.1322 34.9358 82.0108H34.9225Z" fill="white"/>
<path d="M37.184 83.188L36.7159 82.472H36.5798H36.0386V83.188H35.7266V80.8359H36.5798C37.1442 80.8359 37.4895 81.1438 37.4895 81.6558C37.4958 81.8191 37.4521 81.9802 37.3651 82.1142C37.2781 82.2481 37.1527 82.3474 37.0081 82.3968L37.526 83.188H37.184ZM37.184 81.6558C37.184 81.3192 36.9749 81.1259 36.5765 81.1259H36.0453V82.1999H36.5765C36.9649 82.1856 37.184 81.9815 37.184 81.6558Z" fill="white"/>
<path d="M37.9883 80.8358H38.9079C39.0562 80.8269 39.2046 80.8508 39.344 80.9059C39.4835 80.9611 39.611 81.0462 39.7189 81.1563C39.8268 81.2664 39.9127 81.399 39.9714 81.5461C40.0301 81.6932 40.0604 81.8517 40.0604 82.0118C40.0604 82.1719 40.0301 82.3304 39.9714 82.4775C39.9127 82.6246 39.8268 82.7572 39.7189 82.8673C39.611 82.9774 39.4835 83.0626 39.344 83.1177C39.2046 83.1728 39.0562 83.1967 38.9079 83.1878H37.9883V80.8358ZM38.888 82.8943C39.0019 82.9053 39.1167 82.8907 39.225 82.8513C39.3334 82.8119 39.4329 82.7486 39.5173 82.6654C39.6018 82.5822 39.6692 82.4809 39.7153 82.3681C39.7614 82.2553 39.7852 82.1333 39.7852 82.01C39.7852 81.8867 39.7614 81.7647 39.7153 81.6519C39.6692 81.5391 39.6018 81.4378 39.5173 81.3547C39.4329 81.2715 39.3334 81.2082 39.225 81.1687C39.1167 81.1293 39.0019 81.1147 38.888 81.1258H38.3004V82.8943H38.888Z" fill="white"/>
<path d="M42.1409 82.8944V83.188H40.5605V80.8359H42.0977V81.1259H40.8693V81.8419H41.9649V82.1283H40.8693V82.8873L42.1409 82.8944Z" fill="white"/>
<path d="M44.104 83.188L43.6325 82.472H43.4964H42.9586V83.188H42.6465V80.8359H43.4931C44.0608 80.8359 44.4028 81.1438 44.4028 81.6558C44.4099 81.8188 44.3669 81.9798 44.2804 82.1138C44.194 82.2478 44.0689 82.3473 43.9247 82.3968L44.4393 83.188H44.104ZM44.104 81.6558C44.104 81.3192 43.8948 81.1259 43.4964 81.1259H42.9685V82.1999H43.4931C43.8848 82.1856 44.094 81.9815 44.094 81.6558H44.104Z" fill="white"/>
<path opacity="0.2" d="M53.7848 56.4385V86.7647C53.7839 87.015 53.6913 87.2549 53.5271 87.4319C53.3629 87.609 53.1405 87.7088 52.9083 87.7098H47.6992V58.7655C47.6992 58.1483 47.9266 57.5564 48.3313 57.12C48.736 56.6836 49.2849 56.4385 49.8572 56.4385H53.7848Z" fill="black"/>
<path d="M80.3448 63.2371V115.147C80.3311 115.383 80.2332 115.604 80.0716 115.763C79.91 115.923 79.6973 116.009 79.4783 116.003H50.6839C50.2723 116.003 50.1328 115.663 50.1328 115.219V63.1655C50.1328 62.7825 50.2225 62.292 50.581 62.292H57.7688C57.8752 62.3099 57.9748 62.3592 58.0569 62.4344C58.1389 62.5096 58.2 62.6077 58.2336 62.718L58.5291 63.434C58.57 63.5269 58.6367 63.6038 58.72 63.6538C58.8034 63.7039 58.8991 63.7247 58.9939 63.7133H71.248C71.4505 63.7133 71.6365 63.681 71.7128 63.477L72.0116 62.6572C72.0459 62.5526 72.1079 62.4613 72.19 62.3944C72.272 62.3276 72.3705 62.2882 72.4731 62.2812H79.5679C79.7807 62.3172 79.9751 62.4326 80.1171 62.6073C80.259 62.782 80.3396 63.0049 80.3448 63.2371Z" fill="#276EF1"/>
<path opacity="0.2" d="M80.3448 63.2371V115.147C80.3311 115.383 80.2332 115.604 80.0716 115.763C79.91 115.923 79.6973 116.009 79.4783 116.003H50.6839C50.2723 116.003 50.1328 115.663 50.1328 115.219V63.1655C50.1328 62.7825 50.2225 62.292 50.581 62.292H57.7688C57.8752 62.3099 57.9748 62.3592 58.0569 62.4344C58.1389 62.5096 58.2 62.6077 58.2336 62.718L58.5291 63.434C58.57 63.5269 58.6367 63.6038 58.72 63.6538C58.8034 63.7039 58.8991 63.7247 58.9939 63.7133H71.248C71.4505 63.7133 71.6365 63.681 71.7128 63.477L72.0116 62.6572C72.0459 62.5526 72.1079 62.4613 72.19 62.3944C72.272 62.3276 72.3705 62.2882 72.4731 62.2812H79.5679C79.7807 62.3172 79.9751 62.4326 80.1171 62.6073C80.259 62.782 80.3396 63.0049 80.3448 63.2371Z" fill="white"/>
<path d="M79.1788 67.9844H51.0684V77.2387H79.1788V67.9844Z" fill="#276EF1"/>
<path opacity="0.4" d="M79.1788 77.9541H51.0684V113.246H79.1788V77.9541Z" fill="white"/>
<g opacity="0.4">
<path d="M53.9742 70.3147V70.884H54.7212V71.0809H53.9742V71.7324H53.7617V70.125H54.8108V70.3255L53.9742 70.3147Z" fill="white"/>
<path d="M56.1093 71.7217L55.7773 71.242H55.3158V71.7324H55.1133V70.125H55.6943C56.0794 70.125 56.3151 70.3362 56.3151 70.6835C56.3203 70.796 56.2905 70.9072 56.2303 70.9993C56.1702 71.0914 56.0831 71.1592 55.9831 71.1918L56.335 71.7324L56.1093 71.7217ZM56.1093 70.6727C56.1093 70.4436 55.9665 70.3147 55.6943 70.3147H55.3324V71.0307H55.6943C55.9599 71.0379 56.1093 70.9019 56.1093 70.6727Z" fill="white"/>
<path d="M56.5377 70.9162C56.5317 70.7457 56.5731 70.5772 56.6566 70.4323C56.7401 70.2875 56.8619 70.1728 57.0062 70.1031C57.1506 70.0333 57.311 70.0117 57.4668 70.041C57.6227 70.0703 57.7668 70.1492 57.8808 70.2674C57.9948 70.3857 58.0734 70.538 58.1065 70.7048C58.1396 70.8716 58.1257 71.0453 58.0667 71.2035C58.0076 71.3617 57.906 71.4973 57.7749 71.5928C57.6439 71.6883 57.4893 71.7394 57.3312 71.7396C57.2282 71.7449 57.1252 71.7275 57.0287 71.6885C56.9321 71.6494 56.844 71.5895 56.7697 71.5124C56.6954 71.4353 56.6365 71.3426 56.5966 71.2401C56.5567 71.1376 56.5366 71.0273 56.5377 70.9162ZM57.9088 70.9162C57.9102 70.7918 57.8771 70.6698 57.8139 70.5658C57.7507 70.4618 57.6603 70.3803 57.554 70.3319C57.4478 70.2835 57.3306 70.2703 57.2174 70.2939C57.1042 70.3176 57 70.377 56.9182 70.4647C56.8364 70.5524 56.7807 70.6644 56.7581 70.7863C56.7355 70.9083 56.7471 71.0347 56.7914 71.1496C56.8357 71.2644 56.9107 71.3624 57.0068 71.4311C57.1029 71.4999 57.2158 71.5362 57.3312 71.5355C57.4075 71.5385 57.4836 71.5245 57.5547 71.4945C57.6258 71.4645 57.6904 71.419 57.7446 71.361C57.7988 71.3029 57.8413 71.2335 57.8695 71.1569C57.8978 71.0804 57.9112 70.9985 57.9088 70.9162Z" fill="white"/>
<path d="M59.828 71.7217V70.551L59.2902 71.5248H59.1906L58.6527 70.5582V71.7217H58.4336V70.1143H58.6096L59.2304 71.242L59.8446 70.1143H60.0172V71.7217H59.828Z" fill="white"/>
</g>
<path d="M73.4223 99.2053C73.4223 100.437 69.7072 101.436 65.1223 101.436C60.5373 101.436 56.8223 100.437 56.8223 99.2053C56.8223 97.9737 60.5373 96.9785 65.1223 96.9785C69.7072 96.9785 73.4223 97.9737 73.4223 99.2053Z" fill="#276EF1"/>
<path opacity="0.2" d="M73.4223 99.2053C73.4223 100.437 69.7072 101.436 65.1223 101.436C60.5373 101.436 56.8223 100.437 56.8223 99.2053C56.8223 97.9737 60.5373 96.9785 65.1223 96.9785C69.7072 96.9785 73.4223 97.9737 73.4223 99.2053Z" fill="black"/>
<path d="M69.578 83.65C68.3954 82.3776 66.7931 81.6631 65.1225 81.6631C63.452 81.6631 61.8497 82.3776 60.6671 83.65C59.4882 84.925 58.8262 86.652 58.8262 88.4525C58.8262 90.253 59.4882 91.9801 60.6671 93.2551L65.1225 98.0595L69.578 93.2551C70.7569 91.9801 71.4189 90.253 71.4189 88.4525C71.4189 86.652 70.7569 84.925 69.578 83.65ZM67.2739 90.7706C66.9912 91.0776 66.655 91.3212 66.2847 91.4874C65.9143 91.6537 65.5171 91.7393 65.1159 91.7393C64.7147 91.7393 64.3175 91.6537 63.9471 91.4874C63.5768 91.3212 63.2406 91.0776 62.9579 90.7706C62.6728 90.466 62.4465 90.1036 62.2921 89.7042C62.1377 89.3048 62.0582 88.8763 62.0582 88.4436C62.0582 88.0109 62.1377 87.5824 62.2921 87.183C62.4465 86.7836 62.6728 86.4212 62.9579 86.1166C63.2406 85.8096 63.5768 85.566 63.9471 85.3997C64.3175 85.2335 64.7147 85.1479 65.1159 85.1479C65.5171 85.1479 65.9143 85.2335 66.2847 85.3997C66.655 85.566 66.9912 85.8096 67.2739 86.1166C67.559 86.4212 67.7853 86.7836 67.9397 87.183C68.0941 87.5824 68.1737 88.0109 68.1737 88.4436C68.1737 88.8763 68.0941 89.3048 67.9397 89.7042C67.7853 90.1036 67.559 90.466 67.2739 90.7706Z" fill="#276EF1"/>
<path d="M68.6195 109.63H61.6275C61.3475 109.63 61.0702 109.571 60.8114 109.456C60.5526 109.341 60.3174 109.171 60.1194 108.958C59.9214 108.744 59.7644 108.491 59.6575 108.212C59.5505 107.933 59.4957 107.634 59.4961 107.332C59.4957 107.03 59.5505 106.731 59.6575 106.451C59.7644 106.172 59.9214 105.919 60.1194 105.705C60.3174 105.492 60.5526 105.323 60.8114 105.207C61.0702 105.092 61.3475 105.033 61.6275 105.033H68.6195C68.8995 105.033 69.1768 105.092 69.4356 105.207C69.6944 105.323 69.9296 105.492 70.1276 105.705C70.3256 105.919 70.4826 106.172 70.5895 106.451C70.6965 106.731 70.7513 107.03 70.7509 107.332C70.7513 107.634 70.6965 107.933 70.5895 108.212C70.4826 108.491 70.3256 108.744 70.1276 108.958C69.9296 109.171 69.6944 109.341 69.4356 109.456C69.1768 109.571 68.8995 109.63 68.6195 109.63Z" fill="#276EF1"/>
<path d="M62.3281 108.363L62.4443 108.102C62.6465 108.281 62.9002 108.377 63.1614 108.374C63.5399 108.374 63.7026 108.217 63.7026 108.016C63.7026 107.443 62.3746 107.805 62.3746 106.942C62.3746 106.584 62.6369 106.273 63.2079 106.273C63.4562 106.267 63.7007 106.339 63.9118 106.48L63.8088 106.749C63.6296 106.624 63.4212 106.557 63.2079 106.556C62.8394 106.556 62.68 106.724 62.68 106.931C62.68 107.504 64.008 107.146 64.008 108.005C64.008 108.363 63.7391 108.675 63.1614 108.675C62.8583 108.68 62.5631 108.57 62.3281 108.363Z" fill="white"/>
<path d="M66.0426 108.338V108.631H64.459V106.279H65.9995V106.573H64.7711V107.289H65.8667V107.572H64.7711V108.331L66.0426 108.338Z" fill="white"/>
<path d="M66.9794 106.573H66.2324V106.279H68.0352V106.573H67.2882V108.631H66.9794V106.573Z" fill="white"/>
<path opacity="0.2" d="M80.3453 86.7541V63.2371C80.3445 62.9867 80.2518 62.7469 80.0876 62.5699C79.9235 62.3928 79.701 62.2929 79.4688 62.292H74.2598V84.4271C74.2598 85.0443 74.4871 85.6362 74.8918 86.0726C75.2965 86.509 75.8454 86.7541 76.4178 86.7541H80.3453Z" fill="black"/>
<g opacity="0.4">
<path d="M54.0562 73.8951H53.5449V73.6982H54.78V73.8951H54.2687V75.3021H54.0595L54.0562 73.8951Z" fill="white"/>
<path d="M54.8659 74.4998C54.8593 74.3293 54.9002 74.1604 54.9832 74.0151C55.0663 73.8698 55.1878 73.7546 55.332 73.6843C55.4763 73.614 55.6368 73.5919 55.7929 73.6207C55.9489 73.6496 56.0934 73.7281 56.2077 73.8462C56.322 73.9643 56.4009 74.1166 56.4343 74.2835C56.4677 74.4504 56.4541 74.6242 56.3951 74.7826C56.3362 74.9411 56.2346 75.0769 56.1035 75.1726C55.9724 75.2683 55.8177 75.3195 55.6594 75.3196C55.5567 75.325 55.454 75.3077 55.3577 75.2689C55.2614 75.23 55.1734 75.1704 55.0992 75.0937C55.0249 75.017 54.966 74.9248 54.9259 74.8227C54.8858 74.7206 54.8654 74.6107 54.8659 74.4998ZM56.2371 74.4998C56.2391 74.3753 56.2066 74.253 56.1438 74.1485C56.081 74.044 55.9908 73.962 55.8846 73.9131C55.7785 73.8641 55.6612 73.8504 55.5477 73.8736C55.4343 73.8968 55.3298 73.956 55.2477 74.0435C55.1656 74.1311 55.1095 74.243 55.0867 74.3651C55.0638 74.4871 55.0752 74.6137 55.1194 74.7288C55.1636 74.8438 55.2385 74.9421 55.3347 75.011C55.4309 75.0799 55.5439 75.1163 55.6594 75.1156C55.7353 75.118 55.8109 75.1038 55.8816 75.0738C55.9522 75.0438 56.0165 74.9987 56.0705 74.9411C56.1246 74.8835 56.1672 74.8147 56.1958 74.7389C56.2244 74.663 56.2385 74.5817 56.2371 74.4998Z" fill="white"/>
</g>
<path opacity="0.4" d="M75.6295 69.4912H62.1503C61.9891 69.4907 61.8295 69.5246 61.6804 69.5907C61.5314 69.6569 61.396 69.7542 61.2819 69.8769C61.1678 69.9996 61.0772 70.1454 61.0155 70.3059C60.9537 70.4664 60.9219 70.6385 60.9219 70.8122C60.9214 70.9863 60.9529 71.1588 61.0145 71.3197C61.0761 71.4806 61.1665 71.6268 61.2807 71.7499C61.3948 71.873 61.5304 71.9706 61.6797 72.037C61.8289 72.1034 61.9888 72.1373 62.1503 72.1368H75.6295C75.7909 72.1373 75.9508 72.1034 76.1001 72.037C76.2493 71.9706 76.3849 71.873 76.4991 71.7499C76.6132 71.6268 76.7037 71.4806 76.7653 71.3197C76.8268 71.1588 76.8583 70.9863 76.8579 70.8122C76.8579 70.6385 76.8261 70.4664 76.7643 70.3059C76.7025 70.1454 76.612 69.9996 76.4979 69.8769C76.3838 69.7542 76.2483 69.6569 76.0993 69.5907C75.9503 69.5246 75.7906 69.4907 75.6295 69.4912Z" fill="white"/>
<path opacity="0.4" d="M75.6295 73.0752H62.1503C61.9891 73.0747 61.8295 73.1086 61.6804 73.1747C61.5314 73.2409 61.396 73.3381 61.2819 73.4609C61.1678 73.5836 61.0772 73.7294 61.0154 73.8899C60.9537 74.0504 60.9219 74.2224 60.9219 74.3962C60.9219 74.7475 61.0513 75.0844 61.2817 75.3329C61.512 75.5813 61.8245 75.7208 62.1503 75.7208H75.6295C75.9553 75.7208 76.2677 75.5813 76.4981 75.3329C76.7285 75.0844 76.8579 74.7475 76.8579 74.3962C76.8579 74.2224 76.8261 74.0504 76.7643 73.8899C76.7025 73.7294 76.612 73.5836 76.4979 73.4609C76.3838 73.3381 76.2483 73.2409 76.0993 73.1747C75.9503 73.1086 75.7906 73.0747 75.6295 73.0752Z" fill="white"/>
<path d="M106.572 26.0047V77.9147C106.584 78.0215 106.575 78.1298 106.545 78.2326C106.516 78.3354 106.467 78.4303 106.401 78.5111C106.335 78.5919 106.254 78.6568 106.163 78.7015C106.073 78.7461 105.974 78.7696 105.874 78.7703H77.08C76.9845 78.7718 76.8896 78.7525 76.8012 78.7135C76.7127 78.6745 76.6324 78.6167 76.5652 78.5435C76.4979 78.4703 76.445 78.3832 76.4097 78.2875C76.3744 78.1918 76.3573 78.0893 76.3596 77.9863V25.9331C76.3596 25.55 76.6219 25.0596 76.9771 25.0596H84.1748C84.2813 25.0771 84.3812 25.1263 84.4633 25.2015C84.5454 25.2767 84.6064 25.3751 84.6397 25.4856L84.9384 26.2016C84.9787 26.2942 85.0449 26.371 85.1277 26.421C85.2104 26.4711 85.3056 26.492 85.3999 26.4808H97.6574C97.8599 26.4808 98.0425 26.4486 98.1189 26.2445L98.4177 25.4247C98.4551 25.3233 98.5189 25.2356 98.6013 25.1721C98.6837 25.1086 98.7813 25.072 98.8825 25.0667H105.977C106.369 25.0596 106.572 25.5787 106.572 26.0047Z" fill="#276EF1"/>
<path opacity="0.2" d="M106.572 26.0047V77.9147C106.584 78.0215 106.575 78.1298 106.545 78.2326C106.516 78.3354 106.467 78.4303 106.401 78.5111C106.335 78.5919 106.254 78.6568 106.163 78.7015C106.073 78.7461 105.974 78.7696 105.874 78.7703H77.08C76.9845 78.7718 76.8896 78.7525 76.8012 78.7135C76.7127 78.6745 76.6324 78.6167 76.5652 78.5435C76.4979 78.4703 76.445 78.3832 76.4097 78.2875C76.3744 78.1918 76.3573 78.0893 76.3596 77.9863V25.9331C76.3596 25.55 76.6219 25.0596 76.9771 25.0596H84.1748C84.2813 25.0771 84.3812 25.1263 84.4633 25.2015C84.5454 25.2767 84.6064 25.3751 84.6397 25.4856L84.9384 26.2016C84.9787 26.2942 85.0449 26.371 85.1277 26.421C85.2104 26.4711 85.3056 26.492 85.3999 26.4808H97.6574C97.8599 26.4808 98.0425 26.4486 98.1189 26.2445L98.4177 25.4247C98.4551 25.3233 98.5189 25.2356 98.6013 25.1721C98.6837 25.1086 98.7813 25.072 98.8825 25.0667H105.977C106.369 25.0596 106.572 25.5787 106.572 26.0047Z" fill="white"/>
<path d="M91.3359 59.6068C97.4325 59.6068 102.375 54.2774 102.375 47.7033C102.375 41.1292 97.4325 35.7998 91.3359 35.7998C85.2392 35.7998 80.2969 41.1292 80.2969 47.7033C80.2969 54.2774 85.2392 59.6068 91.3359 59.6068Z" fill="#276EF1"/>
<path opacity="0.4" d="M102.422 47.7033C102.422 50.0576 101.774 52.359 100.561 54.3166C99.3484 56.2741 97.6243 57.7998 95.6072 58.7007C93.5901 59.6017 91.3705 59.8374 89.2292 59.3781C87.0878 58.9188 85.1208 57.7851 83.577 56.1204C82.0332 54.4556 80.9818 52.3346 80.5559 50.0256C80.1299 47.7165 80.3485 45.3231 81.184 43.148C82.0196 40.973 83.4345 39.1139 85.2498 37.8059C87.0652 36.498 89.1994 35.7998 91.3828 35.7998C92.8332 35.797 94.2698 36.103 95.6103 36.7002C96.9508 37.2974 98.1688 38.1741 99.1944 39.28C100.22 40.3859 101.033 41.6992 101.587 43.1447C102.141 44.5902 102.424 46.1393 102.422 47.7033Z" fill="white"/>
<path d="M93.0416 43.9373H91.1426L91.4181 43.0889H92.7661L93.0416 43.9373Z" fill="#276EF1"/>
<path d="M99.9786 51.5519H81.9609L82.4058 48.4481C82.4347 48.2429 82.5249 48.0536 82.6628 47.9089C82.8006 47.7641 82.9785 47.6719 83.1694 47.6461L86.7484 47.1521L88.9097 44.4814C89.0684 44.2825 89.2849 44.1475 89.5239 44.0984C90.3673 43.9583 91.2206 43.8996 92.0737 43.9229C92.9088 43.9082 93.7437 43.9657 94.5703 44.0948C94.9023 44.1485 95.2775 44.3633 95.2775 44.6783C95.2775 44.6783 95.3007 44.7034 95.304 44.7141L96.3 46.9803L96.2735 47.0125L96.4826 47.1628L99.2216 47.6712C99.3421 47.6909 99.4535 47.752 99.5391 47.8456C99.6246 47.9392 99.6798 48.0601 99.6964 48.1903L99.9786 51.5519Z" fill="#276EF1"/>
<path opacity="0.2" d="M99.9786 51.5519H81.9609L82.4058 48.4481C82.4347 48.2429 82.5249 48.0536 82.6628 47.9089C82.8006 47.7641 82.9785 47.6719 83.1694 47.6461L86.7484 47.1521L88.9097 44.4814C89.0684 44.2825 89.2849 44.1475 89.5239 44.0984C90.3673 43.9583 91.2206 43.8996 92.0737 43.9229C92.9088 43.9082 93.7437 43.9657 94.5703 44.0948C94.9023 44.1485 95.2775 44.3633 95.2775 44.6783C95.2775 44.6783 95.3007 44.7034 95.304 44.7141L96.3 46.9803L96.2735 47.0125L96.4826 47.1628L99.2216 47.6712C99.3421 47.6909 99.4535 47.752 99.5391 47.8456C99.6246 47.9392 99.6798 48.0601 99.6964 48.1903L99.9786 51.5519Z" fill="black"/>
<path d="M87.0138 51.6374C87.0138 51.9689 86.9226 52.293 86.7517 52.5686C86.5808 52.8442 86.3379 53.0589 86.0538 53.1856C85.7697 53.3123 85.4572 53.3453 85.1557 53.2803C84.8542 53.2154 84.5773 53.0555 84.3602 52.8208C84.143 52.5861 83.9953 52.2873 83.9357 51.962C83.8761 51.6368 83.9074 51.2998 84.0255 50.9937C84.1436 50.6876 84.3433 50.4262 84.5992 50.2425C84.8552 50.0589 85.1559 49.9612 85.4633 49.9619C85.6672 49.9619 85.8691 50.0053 86.0574 50.0895C86.2457 50.1738 86.4168 50.2972 86.5608 50.4529C86.7048 50.6085 86.819 50.7932 86.8967 50.9965C86.9744 51.1997 87.0142 51.4175 87.0138 51.6374Z" fill="#2E353A"/>
<path d="M86.2374 51.6375C86.2374 51.8034 86.1917 51.9655 86.1062 52.1033C86.0207 52.2412 85.8992 52.3485 85.757 52.4118C85.6149 52.4751 85.4585 52.4915 85.3077 52.4589C85.1569 52.4263 85.0185 52.3461 84.91 52.2286C84.8014 52.1111 84.7277 51.9615 84.6981 51.7988C84.6685 51.636 84.6844 51.4675 84.7437 51.3145C84.803 51.1615 84.9031 51.0309 85.0313 50.9393C85.1595 50.8476 85.31 50.7991 85.4638 50.7998C85.5657 50.7998 85.6665 50.8215 85.7606 50.8636C85.8547 50.9058 85.9401 50.9676 86.012 51.0454C86.0838 51.1232 86.1407 51.2156 86.1794 51.3172C86.2181 51.4188 86.2378 51.5277 86.2374 51.6375Z" fill="#276EF1"/>
<path d="M98.2142 51.6374C98.2135 51.9679 98.122 52.2908 97.9513 52.5652C97.7805 52.8397 97.5381 53.0534 97.2548 53.1794C96.9714 53.3054 96.6598 53.338 96.3592 53.2731C96.0587 53.2082 95.7827 53.0486 95.5662 52.8147C95.3497 52.5807 95.2024 52.2828 95.1428 51.9586C95.0833 51.6344 95.1142 51.2984 95.2316 50.9932C95.3491 50.6879 95.5478 50.427 95.8027 50.2434C96.0576 50.0599 96.3572 49.9619 96.6637 49.9619C96.8676 49.9619 97.0695 50.0053 97.2578 50.0895C97.4461 50.1738 97.6172 50.2972 97.7612 50.4529C97.9052 50.6085 98.0194 50.7932 98.0971 50.9965C98.1748 51.1997 98.2146 51.4175 98.2142 51.6374Z" fill="#2E353A"/>
<path d="M97.4424 51.6375C97.4424 51.8032 97.3969 51.9652 97.3115 52.1029C97.2261 52.2407 97.1048 52.3481 96.9629 52.4115C96.8209 52.4749 96.6647 52.4915 96.514 52.4592C96.3633 52.4268 96.2249 52.347 96.1162 52.2299C96.0076 52.1127 95.9336 51.9635 95.9036 51.801C95.8736 51.6385 95.889 51.47 95.9478 51.317C96.0066 51.1639 96.1062 51.033 96.2339 50.941C96.3617 50.8489 96.5119 50.7998 96.6656 50.7998C96.7677 50.7993 96.8689 50.8207 96.9634 50.8626C97.0578 50.9045 97.1436 50.9662 97.2159 51.0441C97.2881 51.122 97.3453 51.2145 97.3842 51.3164C97.4231 51.4182 97.4429 51.5274 97.4424 51.6375Z" fill="#276EF1"/>
<path d="M83.511 50.7998H81.914C81.804 50.7998 81.7148 50.896 81.7148 51.0146V51.5516C81.7148 51.6702 81.804 51.7664 81.914 51.7664H83.511C83.621 51.7664 83.7102 51.6702 83.7102 51.5516V51.0146C83.7102 50.896 83.621 50.7998 83.511 50.7998Z" fill="#276EF1"/>
<path d="M99.902 50.7998H98.6172C98.5072 50.7998 98.418 50.896 98.418 51.0146V51.5516C98.418 51.6702 98.5072 51.7664 98.6172 51.7664H99.902C100.012 51.7664 100.101 51.6702 100.101 51.5516V51.0146C100.101 50.896 100.012 50.7998 99.902 50.7998Z" fill="#276EF1"/>
<path d="M82.9605 49.7619C82.9605 50.1199 82.8377 50.4242 82.6883 50.4242C82.5389 50.4242 82.416 50.1271 82.416 49.7619C82.416 49.3968 82.5355 49.0996 82.6883 49.0996C82.841 49.0996 82.9605 49.4039 82.9605 49.7619Z" fill="#276EF1"/>
<path d="M99.7498 50.5381H99.2617V49.0918H99.6369L99.7498 50.5381Z" fill="#276EF1"/>
<path d="M83.5304 48.5264H83.0059V49.092H83.5304V48.5264Z" fill="#276EF1"/>
<path d="M84.0558 49.0918H83.5312V49.6574H84.0558V49.0918Z" fill="#276EF1"/>
<path d="M84.5792 48.5264H84.0547V49.092H84.5792V48.5264Z" fill="#276EF1"/>
<path d="M85.1007 49.0918H84.5762V49.6574H85.1007V49.0918Z" fill="#276EF1"/>
<path d="M85.6261 48.5264H85.1016V49.092H85.6261V48.5264Z" fill="#276EF1"/>
<path d="M86.1476 49.0918H85.623V49.6574H86.1476V49.0918Z" fill="#276EF1"/>
<path d="M86.671 48.5264H86.1465V49.092H86.671V48.5264Z" fill="#276EF1"/>
<path d="M87.1964 49.0918H86.6719V49.6574H87.1964V49.0918Z" fill="#276EF1"/>
<path d="M87.7179 48.5264H87.1934V49.092H87.7179V48.5264Z" fill="#276EF1"/>
<path d="M88.2414 49.0918H87.7168V49.6574H88.2414V49.0918Z" fill="#276EF1"/>
<path d="M88.7628 48.5264H88.2383V49.092H88.7628V48.5264Z" fill="#276EF1"/>
<path d="M89.2882 49.0918H88.7637V49.6574H89.2882V49.0918Z" fill="#276EF1"/>
<path d="M89.8117 48.5264H89.2871V49.092H89.8117V48.5264Z" fill="#276EF1"/>
<path d="M90.3331 49.0918H89.8086V49.6574H90.3331V49.0918Z" fill="#276EF1"/>
<path d="M90.8586 48.5264H90.334V49.092H90.8586V48.5264Z" fill="#276EF1"/>
<path d="M91.38 49.0918H90.8555V49.6574H91.38V49.0918Z" fill="#276EF1"/>
<path d="M91.9035 48.5264H91.3789V49.092H91.9035V48.5264Z" fill="#276EF1"/>
<path d="M92.4289 49.0918H91.9043V49.6574H92.4289V49.0918Z" fill="#276EF1"/>
<path d="M92.9503 48.5264H92.4258V49.092H92.9503V48.5264Z" fill="#276EF1"/>
<path d="M93.4738 49.0918H92.9492V49.6574H93.4738V49.0918Z" fill="#276EF1"/>
<path d="M93.9953 48.5264H93.4707V49.092H93.9953V48.5264Z" fill="#276EF1"/>
<path d="M94.5207 49.0918H93.9961V49.6574H94.5207V49.0918Z" fill="#276EF1"/>
<path d="M95.0441 48.5264H94.5195V49.092H95.0441V48.5264Z" fill="#276EF1"/>
<path d="M95.5656 49.0918H95.041V49.6574H95.5656V49.0918Z" fill="#276EF1"/>
<path d="M96.091 48.5264H95.5664V49.092H96.091V48.5264Z" fill="#276EF1"/>
<path d="M96.6124 49.0918H96.0879V49.6574H96.6124V49.0918Z" fill="#276EF1"/>
<path d="M97.1359 48.5264H96.6113V49.092H97.1359V48.5264Z" fill="#276EF1"/>
<path d="M97.6613 49.0918H97.1367V49.6574H97.6613V49.0918Z" fill="#276EF1"/>
<path d="M98.1828 48.5264H97.6582V49.092H98.1828V48.5264Z" fill="#276EF1"/>
<path d="M98.7062 49.0918H98.1816V49.6574H98.7062V49.0918Z" fill="#276EF1"/>
<path d="M99.2316 48.5264H98.707V49.092H99.2316V48.5264Z" fill="#276EF1"/>
<path d="M92.2949 46.8586V44.5029L94.0944 44.5387C94.2014 44.5403 94.3058 44.5748 94.3952 44.6383C94.4846 44.7017 94.5553 44.7914 94.599 44.8967L95.419 46.8586H92.2949Z" fill="#276EF1"/>
<path d="M87.9434 46.858L89.4407 44.8747C89.5284 44.7608 89.6386 44.6696 89.7633 44.6076C89.8879 44.5457 90.0239 44.5146 90.1611 44.5167H91.7414V46.8723L87.9434 46.858Z" fill="#276EF1"/>
<path d="M89.2845 44.5029L87.4552 46.9731C87.4552 46.9731 87.4552 47.0555 86.748 47.1557L88.9094 44.4814L89.2845 44.5029Z" fill="#276EF1"/>
<path d="M96.4161 46.9728L95.9347 46.8583L94.8457 44.6172C94.9929 44.6226 95.1394 44.6406 95.2839 44.6709C95.2839 44.6709 95.3072 44.6959 95.3105 44.7067L96.4161 46.9728Z" fill="#276EF1"/>
<path opacity="0.2" d="M82.9605 49.7619C82.9605 50.1199 82.8377 50.4242 82.6883 50.4242C82.5389 50.4242 82.416 50.1271 82.416 49.7619C82.416 49.3968 82.5355 49.0996 82.6883 49.0996C82.841 49.0996 82.9605 49.4039 82.9605 49.7619Z" fill="white"/>
<path opacity="0.2" d="M99.7498 50.5381H99.2617V49.0918H99.6369L99.7498 50.5381Z" fill="white"/>
<path d="M101.124 53.3418C99.2651 56.9218 95.5999 59.639 91.3835 59.639C87.1671 59.639 83.5018 56.9218 81.6426 53.3418H101.124Z" fill="#276EF1"/>
<path d="M93.5144 41.1694H91.0443C90.9289 41.1694 90.8183 41.12 90.7368 41.032C90.6552 40.9441 90.6094 40.8248 90.6094 40.7004C90.6094 40.576 90.6552 40.4568 90.7368 40.3688C90.8183 40.2809 90.9289 40.2314 91.0443 40.2314H93.5144C93.6297 40.2314 93.7403 40.2809 93.8219 40.3688C93.9035 40.4568 93.9493 40.576 93.9493 40.7004C93.9493 40.8248 93.9035 40.9441 93.8219 41.032C93.7403 41.12 93.6297 41.1694 93.5144 41.1694Z" fill="#276EF1"/>
<path d="M92.8491 40.2316C92.8491 40.4136 92.799 40.5914 92.7053 40.7427C92.6115 40.894 92.4783 41.012 92.3223 41.0816C92.1664 41.1512 91.9949 41.1695 91.8294 41.134C91.6639 41.0985 91.5118 41.0108 91.3925 40.8822C91.2732 40.7535 91.1919 40.5896 91.159 40.4111C91.1261 40.2326 91.1429 40.0476 91.2075 39.8795C91.2721 39.7114 91.3815 39.5677 91.5218 39.4666C91.6621 39.3655 91.8271 39.3115 91.9958 39.3115C92.2221 39.3115 92.4391 39.4085 92.5992 39.581C92.7592 39.7535 92.8491 39.9876 92.8491 40.2316Z" fill="#276EF1"/>
<path d="M92.7599 40.7612C93.0221 40.7612 93.2347 40.532 93.2347 40.2492C93.2347 39.9665 93.0221 39.7373 92.7599 39.7373C92.4977 39.7373 92.2852 39.9665 92.2852 40.2492C92.2852 40.532 92.4977 40.7612 92.7599 40.7612Z" fill="#276EF1"/>
<path d="M99.4234 44.8674H97.5742C97.4861 44.8674 97.4017 44.8296 97.3394 44.7625C97.2772 44.6954 97.2422 44.6043 97.2422 44.5094C97.2422 44.4144 97.2772 44.3234 97.3394 44.2562C97.4017 44.1891 97.4861 44.1514 97.5742 44.1514H99.4234C99.5115 44.1514 99.5959 44.1891 99.6582 44.2562C99.7204 44.3234 99.7554 44.4144 99.7554 44.5094C99.7554 44.6043 99.7204 44.6954 99.6582 44.7625C99.5959 44.8296 99.5115 44.8674 99.4234 44.8674Z" fill="#276EF1"/>
<path d="M98.2878 44.8493C98.6399 44.8493 98.9253 44.5416 98.9253 44.162C98.9253 43.7824 98.6399 43.4746 98.2878 43.4746C97.9358 43.4746 97.6504 43.7824 97.6504 44.162C97.6504 44.5416 97.9358 44.8493 98.2878 44.8493Z" fill="#276EF1"/>
<path d="M98.8591 44.5601C99.0553 44.5601 99.2144 44.3886 99.2144 44.177C99.2144 43.9654 99.0553 43.7939 98.8591 43.7939C98.6629 43.7939 98.5039 43.9654 98.5039 44.177C98.5039 44.3886 98.6629 44.5601 98.8591 44.5601Z" fill="#276EF1"/>
<path d="M85.1407 44.7247H82.6673C82.552 44.7247 82.4414 44.6753 82.3598 44.5874C82.2782 44.4994 82.2324 44.3801 82.2324 44.2558C82.2324 44.1311 82.2781 44.0114 82.3596 43.9229C82.4411 43.8344 82.5517 43.7841 82.6673 43.7832H85.1407C85.2564 43.7841 85.367 43.8344 85.4485 43.9229C85.5299 44.0114 85.5757 44.1311 85.5757 44.2558C85.5757 44.3174 85.5644 44.3783 85.5426 44.4352C85.5207 44.4921 85.4887 44.5438 85.4483 44.5874C85.4079 44.6309 85.3599 44.6655 85.3072 44.689C85.2544 44.7126 85.1979 44.7247 85.1407 44.7247Z" fill="#276EF1"/>
<path d="M83.6228 44.7034C84.094 44.7034 84.476 44.2915 84.476 43.7833C84.476 43.2752 84.094 42.8633 83.6228 42.8633C83.1515 42.8633 82.7695 43.2752 82.7695 43.7833C82.7695 44.2915 83.1515 44.7034 83.6228 44.7034Z" fill="#276EF1"/>
<path d="M84.3869 44.3129C84.6491 44.3129 84.8616 44.0837 84.8616 43.801C84.8616 43.5183 84.6491 43.2891 84.3869 43.2891C84.1247 43.2891 83.9121 43.5183 83.9121 43.801C83.9121 44.0837 84.1247 44.3129 84.3869 44.3129Z" fill="#276EF1"/>
<path d="M97.468 70.2819H85.1607C84.5955 70.2819 84.0533 70.0398 83.6536 69.6088C83.2539 69.1777 83.0293 68.5931 83.0293 67.9836C83.0289 67.6815 83.0837 67.3822 83.1906 67.1029C83.2975 66.8237 83.4544 66.5699 83.6524 66.3561C83.8504 66.1423 84.0855 65.9727 84.3443 65.8569C84.6031 65.7412 84.8806 65.6816 85.1607 65.6816H97.468C97.7482 65.6816 98.0256 65.7412 98.2844 65.8569C98.5432 65.9727 98.7783 66.1423 98.9763 66.3561C99.1743 66.5699 99.3312 66.8237 99.4381 67.1029C99.5451 67.3822 99.5999 67.6815 99.5994 67.9836C99.5994 68.5931 99.3749 69.1777 98.9751 69.6088C98.5754 70.0398 98.0333 70.2819 97.468 70.2819Z" fill="#276EF1"/>
<path d="M87.0801 69.0114L87.1963 68.7501C87.3997 68.9285 87.6545 69.0247 87.9167 69.0222C88.2919 69.0222 88.4546 68.8646 88.4546 68.6642C88.4546 68.0878 87.1266 68.4529 87.1266 67.5902C87.1266 67.2322 87.3888 66.9171 87.9632 66.9171C88.2102 66.9136 88.4531 66.9856 88.6637 67.1248L88.5608 67.3933C88.3816 67.2719 88.1748 67.2062 87.9632 67.2035C87.5914 67.2035 87.432 67.3718 87.432 67.5615C87.432 68.1379 88.76 67.7763 88.76 68.6355C88.76 68.9935 88.4911 69.305 87.9167 69.305C87.6146 69.3154 87.3186 69.2116 87.0801 69.0114Z" fill="white"/>
<path d="M89.6155 67.221H88.8652V66.9453H90.6713V67.2353H89.921V69.2974H89.6155V67.221Z" fill="white"/>
<path d="M92.2961 68.693H91.1374L90.8984 69.2837H90.5664L91.5624 66.9316H91.8712L92.8672 69.2837H92.5352L92.2961 68.693ZM92.1866 68.4245L91.7184 67.2717L91.247 68.4245H92.1866Z" fill="white"/>
<path d="M94.6352 69.2831L94.1671 68.5671H94.0277H93.4898V69.2831H93.1777V66.9453H94.0277C94.5954 66.9453 94.9373 67.2532 94.9373 67.7651C94.9445 67.9282 94.9015 68.0892 94.815 68.2232C94.7286 68.3572 94.6035 68.4567 94.4592 68.5062L94.9772 69.2974L94.6352 69.2831ZM94.6352 67.7508C94.6352 67.4143 94.4261 67.221 94.0277 67.221H93.4965V68.295H94.0277C94.4194 68.2807 94.6186 68.0838 94.6186 67.7508H94.6352Z" fill="white"/>
<path d="M95.8447 67.221H95.0977V66.9453H96.9004V67.2353H96.1534V69.2974H95.8447V67.221Z" fill="white"/>
<path d="M131.472 92.425C131.409 93.857 122.604 96.1231 121.472 95.4071C120.34 94.6911 121.472 85.0251 121.472 85.0251L128.255 83.5322C128.381 83.8079 131.541 91.018 131.472 92.425Z" fill="#2E353A"/>
<path d="M129.646 84.6667C127.846 85.8839 125.546 83.7825 123.846 81.6488C122.979 80.5504 122.187 79.385 121.479 78.1619L123.444 75.0258L126.16 78.0938L126.658 78.5628L126.326 77.9184L124.221 74.3384L126.472 67.3037C126.472 67.3037 132.909 82.4579 129.646 84.6667Z" fill="#276EF1"/>
<path opacity="0.2" d="M123.445 75.0254L126.161 78.0934C125.829 79.7152 125.016 81.0434 123.777 81.6448C122.91 80.5464 122.119 79.381 121.41 78.1579L123.445 75.0254Z" fill="black"/>
<path opacity="0.2" d="M126.346 77.922L124.225 74.342L126.492 67.3037C126.492 67.3037 127.488 73.5759 126.346 77.922Z" fill="black"/>
<path d="M97.5355 70.4828L94.3217 69.7668C94.3217 69.7668 93.1996 68.6033 92.7945 68.2561C92.3895 67.9088 90.9021 67.3611 90.6498 67.5078C90.3975 67.6546 91.7852 68.3527 91.7852 68.3527C91.7852 68.3527 91.1212 69.8921 91.2507 70.3611C91.3802 70.8301 93.3423 71.4351 93.5216 71.3563L96.7686 72.6953L97.5355 70.4828Z" fill="#EBB376"/>
<path d="M96.5291 69.9671L95.0218 69.7236L94.3379 71.9361L95.5962 72.4946L96.5291 69.9671Z" fill="#276EF1"/>
<path opacity="0.6" d="M96.5291 69.9671L95.0218 69.7236L94.3379 71.9361L95.5962 72.4946L96.5291 69.9671Z" fill="white"/>
<path d="M131.915 144.685L129.704 145.104L128.797 141.853L127.971 138.868L130.52 137.908L131.261 141.495L131.915 144.685Z" fill="#E4897B"/>
<path opacity="0.2" d="M131.269 141.568L128.806 141.918L127.973 138.904L130.519 137.927L131.269 141.568Z" fill="black"/>
<path d="M117.149 145.706H114.905L114.536 142.334L114.201 139.24L116.867 138.771L117.02 142.445L117.149 145.706Z" fill="#E4897B"/>
<path opacity="0.2" d="M117.02 142.519L114.536 142.401L114.201 139.272L116.867 138.789L117.02 142.519Z" fill="black"/>
<path d="M131.473 139.677L127.838 140.368C124.169 130.512 121.56 122.285 119.717 115.458C118.721 111.774 117.951 108.499 117.357 105.592L117.523 116.332V140.693H113.837C104.857 94.5114 111.221 83.9576 111.221 83.9576L121.965 81.9814C122.39 84.1202 122.69 86.2856 122.864 88.4648L123.349 92.2954L127.549 115.68L131.473 139.677Z" fill="#276EF1"/>
<g opacity="0.5">
<path d="M131.473 139.677L127.838 140.368C124.488 131.364 122.018 123.721 120.202 117.262L119.704 115.472C118.804 112.129 118.177 109.121 117.513 106.422C117.484 106.147 117.427 105.875 117.343 105.613L117.513 116.353V140.693H113.837C108.353 112.487 108.592 97.5723 109.608 90.2333C110.272 85.5543 111.221 83.9576 111.221 83.9576L121.965 81.9814C122.39 84.1202 122.69 86.2856 122.865 88.4648L123.011 89.6176L123.343 92.2954L127.542 115.68L131.473 139.677Z" fill="white"/>
</g>
<path d="M127.273 139.885L131.785 138.271L131.722 140.34L127.994 141.621L127.273 139.885Z" fill="#276EF1"/>
<path opacity="0.6" d="M127.273 139.885L131.785 138.271L131.722 140.34L127.994 141.621L127.273 139.885Z" fill="white"/>
<path d="M113.355 140.11L118.057 139.365L117.662 141.392L113.784 141.954L113.355 140.11Z" fill="#276EF1"/>
<path opacity="0.6" d="M113.355 140.11L118.057 139.365L117.662 141.392L113.784 141.954L113.355 140.11Z" fill="white"/>
<path opacity="0.2" d="M120.217 117.263L119.719 115.473C118.82 112.129 118.192 109.122 117.528 106.423L117.146 101.454C117.146 101.454 119.441 95.994 118.581 92.1455C118.66 92.3639 120.178 96.5489 119.577 100.738C119.442 106.255 119.656 111.776 120.217 117.263Z" fill="black"/>
<path opacity="0.2" d="M123.01 89.614L109.607 90.2333C110.271 85.5543 111.221 83.9576 111.221 83.9576L121.964 81.9814C122.39 84.1202 122.69 86.2856 122.864 88.4648L123.01 89.614Z" fill="black"/>
<path d="M121.546 62.0591C121.519 62.0849 121.49 62.1077 121.46 62.1271C121.046 62.4677 120.575 62.7171 120.072 62.861C118.604 63.219 117.602 63.0078 116.948 62.2918C116.031 61.2178 115.802 59.3168 115.932 57.0184C115.954 56.1049 116.111 55.201 116.397 54.3406C116.397 54.3406 116.397 54.3048 116.397 54.2976C116.397 54.2905 116.42 54.2296 116.433 54.201C116.613 53.7156 116.902 53.2864 117.275 52.9525C117.648 52.6186 118.092 52.3906 118.568 52.2892C118.981 52.1906 119.403 52.1402 119.826 52.1389C123.979 52.0924 124.726 59.503 121.546 62.0591Z" fill="#EBB376"/>
<path opacity="0.2" d="M121.459 62.1273C121.042 62.4475 120.571 62.6751 120.071 62.7967C118.604 63.1547 117.601 62.8934 116.947 62.1666C117.825 62.4014 118.75 62.3197 119.58 61.9339C120.184 61.6404 120.848 61.7907 121.459 62.1273Z" fill="black"/>
<path d="M121.882 66.1688C122.137 67.4433 120.607 67.9588 120.607 67.9588C118.103 66.8061 117.639 65.3705 117.639 65.3705C119.727 64.1963 119.123 60.874 119.123 60.874L119.548 61.0996L122.536 61.7296C122.536 61.7296 121.709 63.4409 121.599 63.8311C121.028 65.8717 121.882 66.1688 121.882 66.1688Z" fill="#EBB376"/>
<path d="M116.389 54.3081C116.389 54.3081 116.163 57.4478 118.919 58.7974C118.919 58.7974 120.104 62.0552 121.847 62.1018C124.224 62.1662 126.319 58.5218 125.499 54.8021C124.427 49.987 117.661 49.5932 116.389 54.3081Z" fill="#2E353A"/>
<path d="M121.034 50.6568C121.034 50.6568 116.512 49.3143 115.894 52.7153C115.038 57.4337 118.497 57.9385 118.497 57.9385C118.497 57.9385 118.872 61.8765 117.531 63.2906C117.531 63.2906 120.625 65.6284 125.678 63.8276C128.982 62.6498 125.884 57.1008 125.884 57.1008C125.884 57.1008 127.71 49.8227 121.034 50.6568Z" fill="#2E353A"/>
<path d="M117.529 57.8957C117.529 57.4052 117.894 56.5818 118.598 56.6963C119.302 56.8109 119.734 58.7513 117.934 59.1845C117.679 59.2489 117.529 58.916 117.529 57.8957Z" fill="#EBB376"/>
<path d="M117.993 50.9755C117.993 50.9755 115.758 50.3597 115.148 53.3418C114.537 56.324 116.572 57.4517 116.572 57.4517" stroke="#2E353A" stroke-width="0.5" stroke-linecap="round" stroke-linejoin="round"/>
<path d="M116.387 65.0124C116.387 65.0124 118.807 63.6054 121.46 64.5899C124.112 65.5744 123.505 67.4826 123.505 67.4826L116.387 65.0124Z" fill="#276EF1"/>
<path opacity="0.5" d="M116.387 65.0124C116.387 65.0124 118.807 63.6054 121.46 64.5899C124.112 65.5744 123.505 67.4826 123.505 67.4826L116.387 65.0124Z" fill="white"/>
<path d="M126.493 67.3042C126.493 67.3042 124.199 66.334 122.144 65.7254C120.54 65.2911 118.909 64.9813 117.263 64.7982C115.712 64.6097 114.149 64.5427 112.589 64.5977C112.635 65.4068 112.665 66.1729 112.695 66.8925C112.735 67.8412 112.761 68.7219 112.781 69.5381C112.818 71.0704 112.815 72.3807 112.781 73.5477C112.725 76.0858 112.44 78.612 111.931 81.0908L109.607 87.1768L123.505 89.0814L122.715 83.1135C125.039 75.8747 126.008 72.062 126.367 69.8997C126.798 67.4904 126.493 67.3042 126.493 67.3042Z" fill="#276EF1"/>
<path d="M112.589 64.6084C113.373 66.5345 113.449 68.7101 112.801 70.6944C112.801 70.6944 105.245 76.5226 103.087 76.0751C100.929 75.6276 95.1191 72.735 95.1191 72.735L96.0321 69.7958C96.0321 69.7958 102.755 71.2278 103.336 71.5106C103.917 71.7935 112.589 64.6084 112.589 64.6084Z" fill="#276EF1"/>
<path d="M124.965 66.6953C124.965 66.6953 128.209 77.3959 128.983 86.2528L127.924 86.1061C127.924 86.1061 126.413 71.5534 124.471 66.6416L124.965 66.6953Z" fill="#2E353A"/>
<path opacity="0.2" d="M124.965 66.6953C124.965 66.6953 128.209 77.3959 128.983 86.2528L127.924 86.1061C127.924 86.1061 126.413 71.5534 124.471 66.6416L124.965 66.6953Z" fill="black"/>
<path d="M128.265 83.5391L123.893 84.4878L125.33 95.1025C128.149 94.476 131.439 93.291 131.479 92.4175C131.542 91.0177 128.381 83.8076 128.265 83.5391Z" fill="#2E353A"/>
<path opacity="0.1" d="M131.472 92.425C130.808 92.9369 129.593 93.7961 128.484 92.6612C127.375 91.5264 128.261 83.5322 128.261 83.5322C128.381 83.8079 131.541 91.018 131.472 92.425Z" fill="white"/>
<path d="M126.229 85.5615C126.229 85.5615 125.535 68.8752 124.021 66.4336L124.47 66.6412C124.47 66.6412 126.598 69.2725 127.202 85.5615H126.229Z" fill="#2E353A"/>
<path d="M111.419 150.979C111.757 150.685 112.142 150.46 112.555 150.313C112.555 150.313 113.79 148.992 114.384 145.015L116.001 144.564C116.275 144.492 116.563 144.512 116.826 144.622C117.089 144.732 117.314 144.927 117.472 145.18C117.515 145.251 117.55 145.328 117.575 145.409C117.657 145.835 117.714 146.267 117.747 146.701C117.91 148.051 117.77 151.072 117.77 151.072H117.478L117.362 148.33C117.319 147.399 116.658 148.487 116.469 149.493C116.28 150.499 115.878 151.559 113.986 151.613C111.778 151.656 110.862 151.563 111.419 150.979Z" fill="#2E353A"/>
<path d="M117.529 145.212C117.635 144.281 117.668 142.663 117.668 142.663L114.076 143.093C114.076 143.093 114.511 144.933 114.153 146.315C115.962 145.803 117.529 145.212 117.529 145.212Z" fill="#2E353A"/>
<path d="M126.038 150.979C126.376 150.684 126.761 150.459 127.174 150.313C127.174 150.313 128.409 148.992 129.003 145.015L130.62 144.564C130.894 144.492 131.182 144.512 131.445 144.622C131.708 144.732 131.933 144.927 132.09 145.18C132.134 145.251 132.169 145.328 132.193 145.409C132.275 145.835 132.333 146.267 132.366 146.701C132.529 148.051 132.389 151.072 132.389 151.072H132.097L131.981 148.33C131.938 147.399 131.277 148.487 131.088 149.493C130.899 150.499 130.497 151.559 128.604 151.613C126.397 151.656 125.497 151.563 126.038 150.979Z" fill="#2E353A"/>
<path d="M132.136 145.212C132.243 144.281 132.276 142.663 132.276 142.663L128.684 143.093C128.684 143.093 129.119 144.933 128.76 146.315C130.579 145.803 132.136 145.212 132.136 145.212Z" fill="#2E353A"/>
</svg>
