<svg width="24" height="23" viewBox="0 0 24 23" fill="none" xmlns="http://www.w3.org/2000/svg">
<path d="M17.74 21.75H6.26C3.77 21.75 1.75 19.73 1.75 17.24V10.51C1.75 8.02001 3.77 6 6.26 6H17.74C20.23 6 22.25 8.02001 22.25 10.51V11.95C22.25 12.36 21.91 12.7 21.5 12.7H19.48C19.13 12.7 18.81 12.83 18.58 13.07L18.57 13.08C18.29 13.35 18.16 13.72 18.19 14.1C18.25 14.76 18.88 15.29 19.6 15.29H21.5C21.91 15.29 22.25 15.63 22.25 16.04V17.23C22.25 19.73 20.23 21.75 17.74 21.75ZM6.26 7.5C4.6 7.5 3.25 8.85001 3.25 10.51V17.24C3.25 18.9 4.6 20.25 6.26 20.25H17.74C19.4 20.25 20.75 18.9 20.75 17.24V16.8H19.6C18.09 16.8 16.81 15.68 16.69 14.24C16.61 13.42 16.91 12.61 17.51 12.02C18.03 11.49 18.73 11.2 19.48 11.2H20.75V10.51C20.75 8.85001 19.4 7.5 17.74 7.5H6.26Z" fill="#292D32"/>
<path d="M2.5 12.16C2.09 12.16 1.75 11.82 1.75 11.41V6.84006C1.75 5.35006 2.69 4.00001 4.08 3.47001L12.02 0.470005C12.84 0.160005 13.75 0.270054 14.46 0.770054C15.18 1.27005 15.6 2.08005 15.6 2.95005V6.75003C15.6 7.16003 15.26 7.50003 14.85 7.50003C14.44 7.50003 14.1 7.16003 14.1 6.75003V2.95005C14.1 2.57005 13.92 2.22003 13.6 2.00003C13.28 1.78003 12.9 1.73003 12.54 1.87003L4.6 4.87003C3.79 5.18003 3.24 5.97006 3.24 6.84006V11.41C3.25 11.83 2.91 12.16 2.5 12.16Z" fill="#292D32"/>
<path d="M19.6005 16.8002C18.0905 16.8002 16.8105 15.6802 16.6905 14.2402C16.6105 13.4102 16.9105 12.6002 17.5105 12.0102C18.0205 11.4902 18.7205 11.2002 19.4705 11.2002H21.5505C22.5405 11.2302 23.3005 12.0102 23.3005 12.9702V15.0302C23.3005 15.9902 22.5405 16.7702 21.5805 16.8002H19.6005ZM21.5305 12.7002H19.4805C19.1305 12.7002 18.8105 12.8302 18.5805 13.0702C18.2905 13.3502 18.1505 13.7302 18.1905 14.1102C18.2505 14.7702 18.8805 15.3002 19.6005 15.3002H21.5605C21.6905 15.3002 21.8105 15.1802 21.8105 15.0302V12.9702C21.8105 12.8202 21.6905 12.7102 21.5305 12.7002Z" fill="#292D32"/>
<path d="M14 11.75H7C6.59 11.75 6.25 11.41 6.25 11C6.25 10.59 6.59 10.25 7 10.25H14C14.41 10.25 14.75 10.59 14.75 11C14.75 11.41 14.41 11.75 14 11.75Z" fill="#292D32"/>
</svg>
