<svg width="26" height="26" viewBox="0 0 26 26" fill="none" xmlns="http://www.w3.org/2000/svg">
<path d="M12.9998 24.6457C12.274 24.6457 11.5373 24.4615 10.8873 24.0823L4.45234 20.3665C3.15234 19.6082 2.33984 18.2107 2.33984 16.7048V9.29488C2.33984 7.78905 3.15234 6.39154 4.45234 5.63321L10.8873 1.91738C12.1873 1.15905 13.8015 1.15905 15.1123 1.91738L21.5473 5.63321C22.8473 6.39154 23.6598 7.78905 23.6598 9.29488V16.7048C23.6598 18.2107 22.8473 19.6082 21.5473 20.3665L15.1123 24.0823C14.4623 24.4615 13.7257 24.6457 12.9998 24.6457ZM12.9998 2.97903C12.5557 2.97903 12.1007 3.0982 11.6998 3.3257L5.26484 7.04153C4.46318 7.50736 3.96484 8.36321 3.96484 9.29488V16.7048C3.96484 17.6257 4.46318 18.4924 5.26484 18.9582L11.6998 22.674C12.5015 23.1399 13.4982 23.1399 14.2998 22.674L20.7348 18.9582C21.5365 18.4924 22.0348 17.6365 22.0348 16.7048V9.29488C22.0348 8.37405 21.5365 7.50736 20.7348 7.04153L14.2998 3.3257C13.899 3.0982 13.444 2.97903 12.9998 2.97903Z" fill="#1A202F" fill-opacity="0.9"/>
<path d="M12.9998 12.7292C11.1581 12.7292 9.66309 11.2342 9.66309 9.39253C9.66309 7.55086 11.1581 6.05591 12.9998 6.05591C14.8414 6.05591 16.3364 7.55086 16.3364 9.39253C16.3364 11.2342 14.8414 12.7292 12.9998 12.7292ZM12.9998 7.68091C12.0573 7.68091 11.2881 8.45003 11.2881 9.39253C11.2881 10.335 12.0573 11.1042 12.9998 11.1042C13.9423 11.1042 14.7114 10.335 14.7114 9.39253C14.7114 8.45003 13.9423 7.68091 12.9998 7.68091Z" fill="#1A202F" fill-opacity="0.9"/>
<path d="M17.3337 18.861C16.8895 18.861 16.5212 18.4926 16.5212 18.0485C16.5212 16.5535 14.9395 15.3293 13.0003 15.3293C11.0612 15.3293 9.47949 16.5535 9.47949 18.0485C9.47949 18.4926 9.11116 18.861 8.66699 18.861C8.22283 18.861 7.85449 18.4926 7.85449 18.0485C7.85449 15.6543 10.162 13.7043 13.0003 13.7043C15.8387 13.7043 18.1462 15.6543 18.1462 18.0485C18.1462 18.4926 17.7778 18.861 17.3337 18.861Z" fill="#1A202F" fill-opacity="0.9"/>
</svg>
