<svg width="20" height="21" viewBox="0 0 20 21" fill="none" xmlns="http://www.w3.org/2000/svg">
<path d="M12.4749 19.0236H7.47494C2.94994 19.0236 1.0166 17.0903 1.0166 12.5653L1.0166 7.56527C1.0166 3.04027 2.94994 1.10693 7.47494 1.10693H12.4749C16.9999 1.10693 18.9333 3.04027 18.9333 7.56527V12.5653C18.9333 17.0903 17.0083 19.0236 12.4749 19.0236ZM7.47494 2.35693C3.63327 2.35693 2.2666 3.7236 2.2666 7.56527V12.5653C2.2666 16.4069 3.63327 17.7736 7.47494 17.7736H12.4749C16.3166 17.7736 17.6833 16.4069 17.6833 12.5653V7.56527C17.6833 3.7236 16.3166 2.35693 12.4749 2.35693H7.47494Z" fill="#1A202F"/>
<path d="M9.54154 15.1153C9.34154 15.1153 8.8582 15.0403 8.57487 14.3153L7.62487 11.9153C7.49154 11.5736 7.01654 11.2569 6.6582 11.2569L1.6582 11.2736C1.31654 11.2736 1.0332 10.9986 1.0332 10.6486C1.0332 10.3069 1.3082 10.0236 1.6582 10.0236L6.6582 10.0069H6.66654C7.54154 10.0069 8.47487 10.6403 8.79987 11.4569L9.5582 13.3736L11.2749 9.02359C11.5332 8.37359 11.9915 8.28192 12.1832 8.26525C12.3749 8.25692 12.8415 8.29859 13.1665 8.91525L14.0332 10.5569C14.1832 10.8403 14.6332 11.1153 14.9582 11.1153H18.3415C18.6832 11.1153 18.9665 11.3986 18.9665 11.7403C18.9665 12.0819 18.6832 12.3653 18.3415 12.3653H14.9582C14.1665 12.3653 13.2999 11.8403 12.9332 11.1403L12.2832 9.90692L10.5332 14.3153C10.2249 15.0319 9.7332 15.1153 9.54154 15.1153Z" fill="#1A202F"/>
</svg>
