<svg width="21" height="21" viewBox="0 0 21 21" fill="none" xmlns="http://www.w3.org/2000/svg">
<path d="M10.5 15.6899C10.1583 15.6899 9.875 15.4066 9.875 15.0649V12.5649C9.875 12.2233 10.1583 11.9399 10.5 11.9399C10.8417 11.9399 11.125 12.2233 11.125 12.5649V15.0649C11.125 15.4066 10.8417 15.6899 10.5 15.6899Z" fill="#1A202F"/>
<path d="M15.1681 18.865H5.83476C4.3181 18.865 2.93477 17.6983 2.68477 16.2066L1.57643 9.56495C1.3931 8.53162 1.90143 7.20662 2.72643 6.54829L8.50143 1.92329C9.6181 1.02329 11.3764 1.03162 12.5014 1.93162L18.2764 6.54829C19.0931 7.20662 19.5931 8.53162 19.4264 9.56495L18.3181 16.1983C18.0681 17.6733 16.6514 18.865 15.1681 18.865ZM10.4931 2.50662C10.0514 2.50662 9.60977 2.63996 9.28477 2.89829L3.50977 7.53162C3.0431 7.90662 2.70977 8.77329 2.80977 9.36495L3.9181 15.9983C4.0681 16.8733 4.9431 17.615 5.83476 17.615H15.1681C16.0598 17.615 16.9348 16.8733 17.0848 15.99L18.1931 9.35662C18.2848 8.77329 17.9514 7.88996 17.4931 7.52329L11.7181 2.90662C11.3848 2.63996 10.9348 2.50662 10.4931 2.50662Z" fill="#1A202F"/>
</svg>
