<svg width="25" height="25" viewBox="0 0 25 25" fill="none" xmlns="http://www.w3.org/2000/svg">
<path d="M17.6038 19.8021C17.2809 19.8021 16.958 19.7083 16.6768 19.5208L15.6768 18.8646C15.3955 18.6771 15.2601 18.3229 15.3538 18C15.4268 17.7604 15.458 17.4791 15.458 17.1666V12.927C15.458 11.2291 14.3955 10.1667 12.6976 10.1667H5.62467C5.49967 10.1667 5.38509 10.1771 5.27051 10.1875C5.05176 10.1979 4.84343 10.125 4.67676 9.97917C4.5101 9.83334 4.42676 9.62502 4.42676 9.40627V6.52083C4.42676 3.45833 6.57259 1.3125 9.63509 1.3125H18.4893C21.5518 1.3125 23.6976 3.45833 23.6976 6.52083V11.8333C23.6976 13.3437 23.1872 14.677 22.2497 15.5937C21.4997 16.3541 20.458 16.8437 19.2705 16.9896V18.1458C19.2705 18.7708 18.9268 19.3334 18.3851 19.625C18.1351 19.7396 17.8643 19.8021 17.6038 19.8021ZM16.9788 17.8437L17.6559 18.2292C17.7184 18.1979 17.7184 18.1458 17.7184 18.1354V16.25C17.7184 15.8229 18.0726 15.4687 18.4997 15.4687C19.5934 15.4687 20.5205 15.125 21.1559 14.4792C21.8122 13.8333 22.1455 12.9166 22.1455 11.8229V6.51041C22.1455 4.29166 20.7184 2.86457 18.4997 2.86457H9.6455C7.42675 2.86457 5.99967 4.29166 5.99967 6.51041V8.59374H12.708C15.2497 8.59374 17.0309 10.375 17.0309 12.9167V17.1562C17.0205 17.3958 17.0101 17.625 16.9788 17.8437Z" fill="#1A202F" fill-opacity="0.9"/>
<path d="M6.3226 23.6979C6.09343 23.6979 5.85385 23.6459 5.6351 23.5313C5.14551 23.2709 4.84342 22.7708 4.84342 22.2083V21.4167C3.92675 21.2708 3.11426 20.8854 2.5101 20.2812C1.71843 19.4896 1.30176 18.4062 1.30176 17.1562V12.9167C1.30176 10.5625 2.84342 8.83335 5.13508 8.6146C5.30175 8.60419 5.458 8.59375 5.62467 8.59375H12.6976C15.2393 8.59375 17.0205 10.375 17.0205 12.9167V17.1562C17.0205 17.6146 16.9684 18.0417 16.8538 18.4271C16.3851 20.3021 14.7913 21.4792 12.6976 21.4792H10.1038L7.15592 23.4375C6.90592 23.6146 6.61427 23.6979 6.3226 23.6979ZM5.62467 10.1562C5.49967 10.1562 5.38509 10.1667 5.27051 10.1771C3.77051 10.3125 2.86426 11.3438 2.86426 12.9167V17.1562C2.86426 17.9896 3.12468 18.6875 3.61426 19.1771C4.09343 19.6562 4.79134 19.9167 5.62467 19.9167C6.05175 19.9167 6.40592 20.2708 6.40592 20.6979V22.0625L9.42676 20.0521C9.55176 19.9687 9.70801 19.9167 9.86426 19.9167H12.6976C14.0726 19.9167 15.0413 19.2292 15.3434 18.0208C15.4163 17.7604 15.458 17.4687 15.458 17.1562V12.9167C15.458 11.2188 14.3955 10.1562 12.6976 10.1562H5.62467Z" fill="#1A202F" fill-opacity="0.9"/>
</svg>
