<svg width="27" height="28" viewBox="0 0 27 28" fill="none" xmlns="http://www.w3.org/2000/svg">
<path fill-rule="evenodd" clip-rule="evenodd" d="M10.0997 8.10669C8.38681 8.10669 6.7441 8.78712 5.53293 9.99829C4.32176 11.2095 3.64133 12.8522 3.64133 14.565V15.1517C3.64128 15.7324 3.46934 16.3002 3.14716 16.7834L2.19133 18.2192C1.07966 19.8859 1.928 22.1509 3.8605 22.6775C4.48966 22.8492 5.12466 22.9942 5.76383 23.1134L5.7655 23.1175C6.4055 24.8275 8.118 26.0234 10.0997 26.0234C12.0813 26.0234 13.7938 24.8275 14.4347 23.1175L14.4363 23.1134C15.0765 22.9943 15.7115 22.8489 16.3397 22.6775C18.2722 22.1509 19.1205 19.8859 18.0088 18.2192L17.0522 16.7834C16.73 16.3002 16.558 15.7324 16.558 15.1517V14.565C16.558 12.8522 15.8776 11.2095 14.6664 9.99829C13.4552 8.78712 11.8125 8.10669 10.0997 8.10669ZM12.913 23.3459C11.0438 23.5692 9.15468 23.5692 7.2855 23.3459C7.878 24.1967 8.90883 24.7734 10.0997 24.7734C11.2905 24.7734 12.3205 24.1967 12.913 23.3459ZM4.89133 14.565C4.89133 13.1837 5.44006 11.8589 6.41681 10.8822C7.39357 9.90542 8.71833 9.35669 10.0997 9.35669C11.481 9.35669 12.8058 9.90542 13.7825 10.8822C14.7593 11.8589 15.308 13.1837 15.308 14.565V15.1517C15.308 15.9792 15.553 16.7884 16.0122 17.4767L16.9688 18.9125C17.1171 19.1345 17.2104 19.3886 17.2411 19.6538C17.2718 19.919 17.239 20.1876 17.1453 20.4376C17.0517 20.6876 16.9 20.9118 16.7027 21.0916C16.5054 21.2714 16.2681 21.4017 16.0105 21.4717C12.1403 22.5272 8.05816 22.5272 4.188 21.4717C3.93063 21.4015 3.69364 21.2711 3.49653 21.0913C3.29942 20.9116 3.14783 20.6875 3.05425 20.4377C2.96066 20.1879 2.92777 19.9194 2.95827 19.6544C2.98876 19.3894 3.08178 19.1354 3.22966 18.9134L4.188 17.4767C4.64678 16.7881 4.8915 15.9791 4.89133 15.1517V14.565Z" fill="#1A202F"/>
<circle cx="18.4996" cy="8.46494" r="8.4" fill="#276EF1"/>
<path d="M15.8435 12.0649V11.0371L18.5704 8.36395C18.8312 8.10059 19.0485 7.86665 19.2224 7.6621C19.3962 7.45755 19.5266 7.2594 19.6135 7.06764C19.7005 6.87588 19.7439 6.67133 19.7439 6.454C19.7439 6.20599 19.6877 5.99378 19.5752 5.81736C19.4627 5.63838 19.308 5.50031 19.1111 5.40315C18.9143 5.30599 18.6905 5.25741 18.44 5.25741C18.1817 5.25741 17.9555 5.31111 17.7611 5.41849C17.5668 5.52332 17.416 5.6729 17.3086 5.86721C17.2037 6.06153 17.1513 6.29292 17.1513 6.56139H15.7975C15.7975 6.06281 15.9113 5.62943 16.1388 5.26125C16.3664 4.89307 16.6796 4.60798 17.0785 4.40599C17.4799 4.204 17.9401 4.10301 18.4591 4.10301C18.9858 4.10301 19.4486 4.20145 19.8475 4.39832C20.2464 4.5952 20.5557 4.86494 20.7756 5.20755C20.9981 5.55017 21.1093 5.94136 21.1093 6.38113C21.1093 6.67517 21.053 6.96409 20.9405 7.2479C20.828 7.5317 20.6299 7.84619 20.3461 8.19136C20.0648 8.53653 19.6698 8.95457 19.161 9.44548L17.8072 10.8223V10.876H21.2282V12.0649H15.8435Z" fill="white"/>
</svg>
