<svg width="20" height="21" viewBox="0 0 20 21" fill="none" xmlns="http://www.w3.org/2000/svg">
<path d="M10.1331 9.74811C10.1081 9.74811 10.0915 9.74811 10.0665 9.74811C10.0248 9.73978 9.96647 9.73978 9.91647 9.74811C7.4998 9.67311 5.6748 7.77311 5.6748 5.43145C5.6748 3.04811 7.61647 1.10645 9.9998 1.10645C12.3831 1.10645 14.3248 3.04811 14.3248 5.43145C14.3165 7.77311 12.4831 9.67311 10.1581 9.74811C10.1498 9.74811 10.1415 9.74811 10.1331 9.74811ZM9.9998 2.35645C8.30814 2.35645 6.9248 3.73978 6.9248 5.43145C6.9248 7.09811 8.2248 8.43978 9.88314 8.49811C9.9248 8.48978 10.0415 8.48978 10.1498 8.49811C11.7831 8.42311 13.0665 7.08145 13.0748 5.43145C13.0748 3.73978 11.6915 2.35645 9.9998 2.35645Z" fill="#1A202F"/>
<path d="M10.1413 18.8568C8.50801 18.8568 6.86634 18.4401 5.62467 17.6068C4.46634 16.8401 3.83301 15.7901 3.83301 14.6484C3.83301 13.5068 4.46634 12.4484 5.62467 11.6734C8.12467 10.0151 12.1747 10.0151 14.658 11.6734C15.808 12.4401 16.4497 13.4901 16.4497 14.6318C16.4497 15.7734 15.8163 16.8318 14.658 17.6068C13.408 18.4401 11.7747 18.8568 10.1413 18.8568ZM6.31634 12.7234C5.51634 13.2568 5.08301 13.9401 5.08301 14.6568C5.08301 15.3651 5.52467 16.0484 6.31634 16.5734C8.39134 17.9651 11.8913 17.9651 13.9663 16.5734C14.7663 16.0401 15.1997 15.3568 15.1997 14.6401C15.1997 13.9318 14.758 13.2484 13.9663 12.7234C11.8913 11.3401 8.39134 11.3401 6.31634 12.7234Z" fill="#1A202F"/>
</svg>
