<?xml version="1.0" encoding="utf-8"?>
<!-- Generator: Adobe Illustrator 26.0.1, SVG Export Plug-In . SVG Version: 6.00 Build 0)  -->
<svg version="1.1" id="Layer_1" xmlns="http://www.w3.org/2000/svg" xmlns:xlink="http://www.w3.org/1999/xlink" x="0px" y="0px"
	 viewBox="0 0 1000 1000" style="enable-background:new 0 0 1000 1000;" xml:space="preserve">
<style type="text/css">
	.st0{fill:#276EF1;}
	.st1{fill:#1A202F;}
</style>
<g>
	<g>
		<path class="st0" d="M198.31,443.75c1.34,0,1.97,0.69,1.97,2.17v64.84c0,1.48-0.63,2.17-1.97,2.17h-9.68
			c-1.34,0-2.06-0.69-2.06-2.17v-64.84c0-1.48,0.72-2.17,2.06-2.17H198.31z"/>
		<path class="st0" d="M228.15,443.75c5.73,0,6.99,0.79,10.39,5.83l33.33,48.24c0.27,0.49,0.63,0.69,1.16,0.69h0.81
			c0.45,0,0.72-0.3,0.72-0.99v-51.6c0-1.48,0.63-2.17,1.97-2.17h9.41c1.34,0,1.97,0.69,1.97,2.17v56.74c0,8.01-2.6,10.28-8.06,10.28
			h-7.71c-5.47,0-6.81-0.59-10.39-5.83l-33.42-48.24c-0.36-0.49-0.63-0.69-1.17-0.69h-0.81c-0.54,0-0.72,0.3-0.72,0.99v51.6
			c0,1.48-0.63,2.17-1.97,2.17h-9.41c-1.34,0-2.06-0.69-2.06-2.17v-56.74c0-8.01,2.6-10.28,8.06-10.28H228.15z"/>
		<path class="st0" d="M362.1,443.75c1.34,0,1.97,0.69,1.97,2.17v9.39c0,1.48-0.63,2.17-1.97,2.17h-44.89
			c-3.4,0-4.75,2.08-4.75,5.54v3.36c0,3.66,1.52,5.54,4.66,5.54h33.6c10.3,0,15.68,6.13,15.68,17v7.91
			c0,9.59-5.02,16.11-15.86,16.11H300.9c-1.34,0-2.06-0.69-2.06-2.17v-9.39c0-1.48,0.72-2.18,2.06-2.18h47.04
			c3.4,0,4.75-2.08,4.75-5.54v-4.05c0-3.66-1.52-5.53-4.66-5.53h-33.6c-10.3,0-15.68-6.13-15.68-17v-7.22
			c0-9.59,5.02-16.11,15.86-16.11H362.1z"/>
		<path class="st0" d="M427.42,443.75c13.71,0,19.26,7.02,19.26,20.36v7.31c0,13.34-5.55,20.36-19.26,20.36h-37.1v18.98
			c0,1.48-0.63,2.17-1.97,2.17h-9.68c-1.34,0-2.06-0.69-2.06-2.17v-64.05c0-1.98,0.9-2.97,2.69-2.97H427.42z M390.32,478.74h34.32
			c6.09,0,8.33-2.87,8.33-8.8v-3.76c0-5.93-2.24-8.8-8.33-8.8h-33.15c-0.81,0-1.17,0.3-1.17,1.19V478.74z"/>
		<path class="st0" d="M519.34,443.75c1.34,0,2.06,0.69,2.06,2.17v9.39c0,1.48-0.72,2.17-2.06,2.17h-39.15
			c-9.32,0-11.92,3.06-11.92,13.44v0.99h50.63c1.34,0,1.97,0.69,1.97,2.17v7.81c0,1.48-0.63,2.17-1.97,2.17h-50.63v1.68
			c0,10.38,2.6,13.44,11.92,13.44h39.15c1.34,0,2.06,0.69,2.06,2.18v9.39c0,1.48-0.72,2.17-2.06,2.17h-39.42
			c-18.1,0-25.09-7.12-25.09-26.09v-17c0-18.98,6.99-26.09,25.09-26.09H519.34z"/>
		<path class="st0" d="M596.49,443.75c1.34,0,1.97,0.69,1.97,2.17v9.69c0,1.48-0.63,2.27-1.97,2.27h-39.87
			c-9.23,0-11.92,2.97-11.92,13.44v14.04c0,10.48,2.69,13.54,11.92,13.54h39.87c1.34,0,1.97,0.69,1.97,2.17v9.69
			c0,1.48-0.63,2.17-1.97,2.17h-40.41c-18.1,0-25.09-7.12-25.09-26.09v-17c0-18.98,6.99-26.09,25.09-26.09H596.49z"/>
		<path class="st0" d="M676.23,443.75c1.34,0,2.06,0.69,2.06,2.17v9.69c0,1.48-0.72,2.27-2.06,2.27H648.1v52.88
			c0,1.48-0.63,2.17-1.97,2.17h-9.77c-1.34,0-1.97-0.69-1.97-2.17v-52.88h-28.13c-1.34,0-2.06-0.79-2.06-2.27v-9.69
			c0-1.48,0.72-2.17,2.06-2.17H676.23z"/>
		<path class="st0" d="M698.72,443.75c1.34,0,1.97,0.69,1.97,2.17v39.44c0,10.48,2.69,13.54,11.92,13.54h36.29
			c1.34,0,1.97,0.69,1.97,2.17v9.69c0,1.48-0.63,2.17-1.97,2.17h-36.83c-18.1,0-25.09-7.12-25.09-26.09v-40.92
			c0-1.48,0.72-2.17,2.06-2.17H698.72z"/>
		<path class="st0" d="M748.26,443.75c1.07,0,1.61,0.3,2.15,1.19l23.92,35.68l24.1-35.68c0.54-0.89,1.08-1.19,2.15-1.19h11.74
			c0.99,0,1.43,1.09,0.81,1.98l-32.17,46.06v18.98c0,1.48-0.63,2.17-1.97,2.17h-9.68c-1.34,0-2.06-0.69-2.06-2.17v-18.98
			l-31.81-46.06c-0.63-0.89-0.27-1.98,0.81-1.98H748.26z"/>
	</g>
	<g>
		<polygon class="st1" points="223.43,546.07 217.63,537.7 214.26,537.7 222.06,548.82 222.06,555.79 224.81,555.79 224.81,548.82 
			232.62,537.7 229.25,537.7 		"/>
		<path class="st1" d="M248.08,538.6c-1.44-0.83-3.03-1.25-4.74-1.25c-1.69,0-3.27,0.42-4.71,1.26c-1.43,0.84-2.58,1.99-3.42,3.42
			c-0.84,1.43-1.27,3.02-1.27,4.72c0,1.7,0.43,3.29,1.27,4.72c0.84,1.43,1.99,2.58,3.42,3.42c1.43,0.84,3.02,1.26,4.71,1.26
			c1.71,0,3.3-0.42,4.74-1.25c1.44-0.83,2.59-1.98,3.43-3.41c0.84-1.43,1.27-3.02,1.27-4.73c0-1.71-0.43-3.3-1.27-4.73
			C250.67,540.58,249.51,539.43,248.08,538.6z M243.34,553.42c-1.2,0-2.32-0.3-3.33-0.9c-1.01-0.6-1.83-1.42-2.43-2.44
			c-0.6-1.02-0.9-2.15-0.9-3.35s0.3-2.33,0.9-3.35c0.6-1.02,1.41-1.84,2.43-2.44c1.01-0.59,2.13-0.9,3.33-0.9
			c1.21,0,2.34,0.3,3.36,0.9c1.02,0.6,1.84,1.42,2.44,2.43c0.6,1.01,0.9,2.14,0.9,3.35s-0.3,2.34-0.9,3.35
			c-0.6,1.02-1.42,1.84-2.44,2.43C245.68,553.12,244.55,553.42,243.34,553.42z"/>
		<path class="st1" d="M269.62,548.65c0,0.86-0.22,1.66-0.65,2.39c-0.43,0.73-1.02,1.31-1.74,1.74c-1.45,0.86-3.32,0.86-4.77,0
			c-0.73-0.43-1.31-1.02-1.74-1.74c-0.43-0.73-0.65-1.53-0.65-2.39V537.7h-2.74v10.95c0,1.36,0.34,2.62,1.01,3.76
			c0.67,1.14,1.59,2.05,2.74,2.72h0c1.15,0.67,2.42,1.01,3.77,1.01c1.35,0,2.61-0.34,3.75-1.01c1.14-0.67,2.06-1.59,2.73-2.73
			c0.67-1.14,1.02-2.41,1.02-3.75V537.7h-2.73V548.65z"/>
		<path class="st1" d="M290.12,548.31c0.6-0.57,1.08-1.25,1.41-2.02c0.33-0.77,0.5-1.6,0.5-2.47c0-1.11-0.28-2.15-0.82-3.08
			c-0.54-0.93-1.29-1.68-2.22-2.22c-0.94-0.54-1.97-0.82-3.08-0.82h-8.99v18.09h2.74v-5.84h5.69l3.98,5.84h3.31l-4.31-6.32
			C289,549.19,289.6,548.8,290.12,548.31z M279.66,540.44h6.25c0.61,0,1.19,0.15,1.7,0.46c0.52,0.3,0.94,0.72,1.24,1.23
			c0.31,0.51,0.46,1.08,0.46,1.7c0,0.53-0.14,1.04-0.42,1.51c-0.29,0.48-0.67,0.89-1.15,1.22c-0.48,0.33-1,0.55-1.5,0.64h-6.58
			V540.44z"/>
		<path class="st1" d="M318.18,546.44c0.4-0.42,0.73-0.9,0.98-1.45c0.3-0.65,0.45-1.36,0.45-2.1c0-0.95-0.24-1.83-0.71-2.62
			c-0.47-0.79-1.11-1.42-1.9-1.88s-1.68-0.69-2.62-0.69h-9.32v18.09h9.89c0.95,0,1.83-0.23,2.63-0.69c0.8-0.46,1.44-1.09,1.9-1.88
			c0.46-0.79,0.7-1.67,0.7-2.62c0-0.86-0.21-1.69-0.62-2.47C319.19,547.45,318.73,546.88,318.18,546.44z M316.21,552.72
			c-0.38,0.22-0.8,0.33-1.27,0.33h-7.15v-4.95h7.15c0.46,0,0.88,0.11,1.26,0.34c0.38,0.22,0.69,0.53,0.92,0.91
			c0.22,0.38,0.34,0.8,0.34,1.25c0,0.45-0.11,0.87-0.33,1.24C316.89,552.21,316.59,552.5,316.21,552.72z M316.54,544.14
			c-0.23,0.38-0.53,0.69-0.91,0.91c-0.38,0.22-0.8,0.34-1.25,0.34h-6.58v-4.95h6.58c0.46,0,0.88,0.11,1.26,0.33
			c0.39,0.22,0.68,0.51,0.91,0.89c0.22,0.37,0.33,0.79,0.33,1.23C316.87,543.34,316.76,543.77,316.54,544.14z"/>
		<polygon class="st1" points="324.75,555.79 338.78,555.79 338.78,553.04 327.49,553.04 327.49,548.1 338.1,548.1 338.1,545.39 
			327.49,545.39 327.49,540.44 338.78,540.44 338.78,537.7 324.75,537.7 		"/>
		<path class="st1" d="M356.5,547.01c-1.23-0.9-3.06-1.54-5.44-1.89c-1.46-0.21-2.58-0.54-3.33-1c-0.71-0.43-1.05-0.94-1.05-1.55
			c0-0.46,0.17-0.86,0.51-1.24c0.36-0.39,0.86-0.7,1.49-0.93c1.27-0.45,3-0.49,4.32,0.08c0.65,0.28,1.17,0.67,1.57,1.16
			c0.39,0.48,0.61,1.02,0.66,1.61l0.02,0.24H358l-0.02-0.29c-0.08-1.1-0.45-2.11-1.1-3c-0.65-0.88-1.51-1.59-2.57-2.1
			c-1.06-0.51-2.23-0.76-3.48-0.76c-1.27,0-2.44,0.22-3.49,0.66c-1.06,0.45-1.9,1.07-2.51,1.86c-0.62,0.8-0.93,1.71-0.93,2.71
			c0,1.4,0.6,2.56,1.79,3.45c1.15,0.86,2.87,1.47,5.11,1.8c1.62,0.25,2.86,0.62,3.68,1.12c0.77,0.47,1.15,1.02,1.15,1.69
			c0,0.51-0.19,0.96-0.57,1.37c-0.4,0.43-0.95,0.77-1.66,1.02c-1.43,0.51-3.33,0.54-4.8-0.08c-0.72-0.31-1.31-0.73-1.74-1.26
			c-0.43-0.52-0.66-1.09-0.7-1.73l-0.02-0.25h-2.8l0.02,0.28c0.08,1.15,0.47,2.21,1.16,3.14c0.69,0.93,1.61,1.67,2.74,2.2
			c1.13,0.53,2.39,0.79,3.74,0.79c1.36,0,2.61-0.23,3.73-0.7c1.13-0.47,2.03-1.12,2.68-1.96c0.66-0.84,0.99-1.8,0.99-2.85
			C358.41,549.16,357.76,547.94,356.5,547.01z"/>
		<polygon class="st1" points="361.7,540.44 368.24,540.44 368.24,555.79 370.96,555.79 370.96,540.44 377.49,540.44 377.49,537.7 
			361.7,537.7 		"/>
		<polygon class="st1" points="382.05,555.79 384.8,555.79 384.8,548.1 395.41,548.1 395.41,545.39 384.8,545.39 384.8,540.44 
			396.09,540.44 396.09,537.7 382.05,537.7 		"/>
		<path class="st1" d="M413.87,548.31c0.6-0.57,1.08-1.25,1.41-2.02c0.33-0.77,0.5-1.6,0.5-2.47c0-1.11-0.28-2.15-0.82-3.08
			c-0.54-0.93-1.29-1.68-2.22-2.22c-0.94-0.54-1.97-0.82-3.08-0.82h-8.99v18.09h2.74v-5.84h5.69l3.98,5.84h3.31l-4.31-6.32
			C412.75,549.19,413.35,548.8,413.87,548.31z M403.41,540.44h6.25c0.61,0,1.19,0.15,1.7,0.46c0.52,0.3,0.94,0.72,1.24,1.23
			c0.31,0.51,0.46,1.08,0.46,1.7c0,0.53-0.14,1.04-0.42,1.51c-0.29,0.48-0.67,0.89-1.15,1.22c-0.48,0.33-1,0.55-1.5,0.64h-6.58
			V540.44z"/>
		<rect x="420.71" y="537.7" class="st1" width="2.74" height="18.09"/>
		<polygon class="st1" points="428,555.79 442.04,555.79 442.04,553.04 430.74,553.04 430.74,548.1 441.35,548.1 441.35,545.39 
			430.74,545.39 430.74,540.44 442.04,540.44 442.04,537.7 428,537.7 		"/>
		<polygon class="st1" points="458.91,549.25 446.62,537.36 446.62,555.79 449.36,555.79 449.36,544.37 461.64,556.15 461.64,537.7 
			458.91,537.7 		"/>
		<path class="st1" d="M477.48,538.91c-1.38-0.81-2.9-1.22-4.54-1.22h-6.75v18.09h6.75c1.63,0,3.16-0.41,4.54-1.22
			c1.38-0.81,2.49-1.92,3.29-3.29c0.81-1.38,1.22-2.91,1.22-4.54s-0.41-3.16-1.22-4.54C479.97,540.83,478.86,539.72,477.48,538.91z
			 M472.95,553.04h-4v-12.6h4c1.14,0,2.2,0.29,3.16,0.85c0.96,0.56,1.73,1.33,2.29,2.3c0.56,0.96,0.85,2.02,0.85,3.15
			c0,1.13-0.29,2.2-0.85,3.16c-0.56,0.96-1.33,1.74-2.29,2.3C475.15,552.76,474.09,553.04,472.95,553.04z"/>
		<polygon class="st1" points="512.81,548.88 508.4,537.72 506.39,537.72 501.96,548.88 497.53,537.72 494.64,537.72 501.96,556.25 
			507.39,542.47 512.81,556.25 520.16,537.72 517.28,537.72 		"/>
		<polygon class="st1" points="537,545.39 527.45,545.39 527.45,537.7 524.71,537.7 524.71,555.79 527.45,555.79 527.45,548.1 
			537,548.1 537,555.79 539.73,555.79 539.73,537.7 537,537.7 		"/>
		<polygon class="st1" points="544.29,555.79 558.33,555.79 558.33,553.04 547.03,553.04 547.03,548.1 557.64,548.1 557.64,545.39 
			547.03,545.39 547.03,540.44 558.33,540.44 558.33,537.7 544.29,537.7 		"/>
		<polygon class="st1" points="575.19,549.25 562.9,537.36 562.9,555.79 565.65,555.79 565.65,544.37 577.92,556.15 577.92,537.7 
			575.19,537.7 		"/>
		<polygon class="st1" points="599.68,546.07 593.88,537.7 590.51,537.7 598.31,548.82 598.31,555.79 601.05,555.79 601.05,548.82 
			608.87,537.7 605.5,537.7 		"/>
		<path class="st1" d="M624.33,538.6c-1.44-0.83-3.03-1.25-4.74-1.25c-1.69,0-3.27,0.42-4.71,1.26c-1.43,0.84-2.58,1.98-3.43,3.42
			c-0.84,1.44-1.27,3.02-1.27,4.72s0.43,3.29,1.27,4.72c0.84,1.43,1.99,2.58,3.42,3.42c1.43,0.84,3.02,1.26,4.71,1.26
			c1.71,0,3.3-0.42,4.74-1.25c1.44-0.83,2.59-1.98,3.43-3.41c0.84-1.43,1.27-3.02,1.27-4.73c0-1.71-0.43-3.3-1.27-4.73
			C626.92,540.58,625.76,539.43,624.33,538.6z M622.95,552.52c-1.02,0.6-2.15,0.9-3.36,0.9c-1.2,0-2.32-0.3-3.33-0.9
			c-1.01-0.6-1.83-1.42-2.43-2.44c-0.6-1.02-0.9-2.15-0.9-3.35c0-1.2,0.3-2.32,0.9-3.35c0.6-1.02,1.41-1.84,2.43-2.44
			c1.01-0.59,2.13-0.9,3.33-0.9c1.21,0,2.34,0.3,3.36,0.9c1.02,0.6,1.84,1.42,2.44,2.43s0.9,2.14,0.9,3.35s-0.3,2.34-0.9,3.35
			C624.79,551.11,623.97,551.93,622.95,552.52L622.95,552.52z"/>
		<path class="st1" d="M645.87,548.65c0,0.86-0.22,1.66-0.64,2.39c-0.43,0.73-1.02,1.31-1.74,1.74c-1.45,0.86-3.32,0.86-4.77,0
			c-0.73-0.43-1.32-1.02-1.74-1.74c-0.43-0.73-0.64-1.53-0.64-2.39V537.7h-2.74v10.95c0,1.35,0.34,2.62,1.01,3.76
			c0.67,1.14,1.59,2.05,2.74,2.72c1.15,0.67,2.42,1.01,3.77,1.01c1.35,0,2.61-0.34,3.75-1.01c1.14-0.67,2.06-1.59,2.73-2.73
			c0.67-1.14,1.02-2.41,1.02-3.75V537.7h-2.73V548.65z"/>
		<rect x="661.26" y="537.7" class="st1" width="2.74" height="18.09"/>
		<polygon class="st1" points="680.84,549.25 668.55,537.36 668.55,555.79 671.3,555.79 671.3,544.37 683.57,556.15 683.57,537.7 
			680.84,537.7 		"/>
		<polygon class="st1" points="697.17,549.92 691.2,537.85 691.12,537.7 688.09,537.7 697.18,556.12 706.29,537.7 703.26,537.7 		
			"/>
		<polygon class="st1" points="710.81,555.79 724.84,555.79 724.84,553.04 713.55,553.04 713.55,548.1 724.16,548.1 724.16,545.39 
			713.55,545.39 713.55,540.44 724.84,540.44 724.84,537.7 710.81,537.7 		"/>
		<path class="st1" d="M742.56,547.01c-1.23-0.9-3.06-1.54-5.44-1.89c-1.46-0.21-2.58-0.54-3.33-1c-0.71-0.43-1.05-0.94-1.05-1.55
			c0-0.46,0.17-0.86,0.51-1.24c0.35-0.39,0.86-0.7,1.49-0.93c1.27-0.45,3-0.49,4.32,0.08c0.64,0.28,1.17,0.67,1.56,1.15
			c0.38,0.48,0.61,1.02,0.66,1.61l0.02,0.24h2.75l-0.02-0.29c-0.08-1.1-0.45-2.11-1.1-3c-0.64-0.88-1.51-1.59-2.57-2.1
			c-1.06-0.51-2.23-0.76-3.48-0.76c-1.27,0-2.44,0.22-3.49,0.66c-1.06,0.45-1.9,1.07-2.51,1.86c-0.62,0.8-0.93,1.71-0.93,2.71
			c0,1.4,0.6,2.57,1.79,3.45c1.15,0.86,2.88,1.47,5.11,1.8c1.62,0.25,2.86,0.62,3.68,1.12c0.77,0.47,1.15,1.02,1.15,1.69
			c0,0.51-0.19,0.96-0.58,1.37c-0.4,0.43-0.95,0.77-1.65,1.02c-1.43,0.51-3.33,0.54-4.8-0.08c-0.72-0.3-1.31-0.73-1.74-1.26
			c-0.43-0.52-0.66-1.09-0.7-1.73l-0.01-0.25h-2.8l0.02,0.29c0.08,1.15,0.47,2.21,1.16,3.14c0.68,0.93,1.61,1.67,2.74,2.2
			c1.13,0.53,2.39,0.79,3.74,0.79c1.36,0,2.61-0.23,3.73-0.7c1.13-0.47,2.03-1.12,2.68-1.96c0.66-0.84,0.99-1.8,0.99-2.85
			C744.47,549.16,743.82,547.94,742.56,547.01z"/>
		<polygon class="st1" points="747.76,537.7 747.76,540.44 754.3,540.44 754.3,555.79 757.02,555.79 757.02,540.44 763.55,540.44 
			763.55,537.7 		"/>
	</g>
</g>
</svg>
