<?xml version="1.0" encoding="utf-8"?>
<!-- Generator: Adobe Illustrator 26.0.1, SVG Export Plug-In . SVG Version: 6.00 Build 0)  -->
<svg version="1.1" id="Layer_1" xmlns="http://www.w3.org/2000/svg" xmlns:xlink="http://www.w3.org/1999/xlink" x="0px" y="0px"
	 viewBox="0 0 1000 1000" style="enable-background:new 0 0 1000 1000;" xml:space="preserve">
<style type="text/css">
	.st0{fill:#FFFFFF;}
	.st1{fill:#FFFFFF;}
	.st2{fill:#FFFFFF;}
</style>
<g>
	<g>
		<g>
			<path class="st0" d="M521.58,456.65c-3.78,1.74-6.93,3.19-10.13,4.66c0.33,3.27,0.64,6.28,1.03,10.17
				c-7.12,2.6-14.28,5.21-21.68,7.91c-1.92-3.08-3.62-5.81-5.76-9.23c-3.4,1.21-6.89,2.45-10.94,3.89
				c-1.74-7.76-7.15-7.73-13.38-7.84c-42.79-0.76-76.76-18.18-96.78-56.68c-19.69-37.87-16.52-75.95,6.56-111.67
				c29.26-45.25,94.92-59.38,141.23-31.13c45.11,27.52,64.41,77,48.71,125.44c-6.21,19.16-16.95,35.53-32.36,48.57
				C522.95,445.09,518.21,449.11,521.58,456.65z M379.17,313.6c-25.02,43.67-9.86,99.78,33.73,124.81
				c43.85,25.18,99.54,10.22,124.79-33.53c24.99-43.29,10.04-99.62-33.02-124.48C460.68,255.01,404.18,269.96,379.17,313.6z"/>
			<path class="st0" d="M509.45,548.14c-0.79-2.5-1.59-5-2.38-7.49l1.66-0.77c0.93,2.11,1.93,4.2,2.79,6.33
				c0.1,0.24,0.19,0.48,0.28,0.71c12.07-6.47,22.05-15.9,32.97-24.2c-6.67-14.63-13.35-29.27-20.07-44
				c-12.91,4.76-24.96,9.2-37.15,13.7c0.08,1.48,0.01,1.98,0.14,2.41c5.57,18.52,11.14,37.04,16.72,55.55
				C506.14,549.71,507.81,548.95,509.45,548.14z"/>
		</g>
		<circle class="st1" cx="458.41" cy="359.33" r="76.16"/>
		<path class="st2" d="M456.72,300.53c-34.59,19.44-50.15,48.91-47.6,88.43c-7.57-14.99-7.52-30.54-2.01-45.68
			C415.55,320.1,431.75,305,456.72,300.53z"/>
	</g>
	<g>
		<path class="st0" d="M647.24,596.86c-2.76-6.65-7.7-11.13-14.51-13.66c3.22-12.94-0.92-22.68-12.29-29.16
			c9.98-17.99-2.42-36.89-21.7-36.43c-0.13-0.48-0.31-0.96-0.4-1.47c-3.71-19.22-22.87-26.57-38.3-14.69
			c-3.13,2.41-6.26,4.85-9.87,7.66c-2.42,2.18-5.18,3.97-7.8,5.89c-1.39,1.02-2.83,1.89-4.28,2.81c-1.01,0.64-0.52,0.67,0.02,0
			c-0.26,0.33-0.57,0.63-0.9,0.93c-0.18,0.35-0.4,0.66-0.64,0.86c-7.05,5.62-14.19,11.11-21.88,17.08
			c-1.8-9.33-3.55-18.36-5.26-27.23c-0.78,0.04-1.55,0.11-2.33,0.13c-4.04,0.08-8.12,0.05-12.2-0.09c-0.61,1.27-1.68,2.43-3.28,3.58
			c-9.42,6.79-18.44,14.14-27.61,21.26c-20.26,15.74-27.17,36.37-20.24,61.01c0.85,3.01,0.44,4.74-2.16,6.73
			c-20.39,15.63-40.61,31.48-60.95,47.17c-5.49,4.24-8.6,9.61-8.44,16.54c0.07,2.88,0.98,5.75,1.51,8.62
			c17.9,23.05,35.8,46.11,53.7,69.16c10.61,7.03,19.94,4.98,29.54-2.8c18.24-14.8,37.05-28.9,55.57-43.36
			c6.74-5.26,14.31-7.54,22.77-6.83c10.78,0.9,20.67-1.96,29.1-8.38c25.57-19.48,50.89-39.28,76.21-59.09
			C648.58,616.84,651.11,606.21,647.24,596.86z M632.79,612.39c-0.92,0.9-1.99,1.65-3,2.44c-23.76,18.47-47.5,36.95-71.28,55.38
			c-6.89,5.34-14.59,7.85-23.45,7.16c-11.12-0.87-21.21,2.32-30.04,9.14c-19.52,15.07-38.97,30.24-58.46,45.36
			c-5.53,4.29-8.4,3.95-12.62-1.48c-15.29-19.68-30.58-39.37-45.85-59.06c-4.08-5.26-3.7-8.23,1.59-12.34
			c18.66-14.5,37.33-28.99,56-43.48c0.81-0.63,1.62-1.25,2.95-2.29c0.94,3.23,1.66,5.82,2.46,8.38c1.4,4.47,4.58,6.54,8.35,5.49
			c3.83-1.07,5.55-4.45,4.33-8.97c-2.47-9.08-5.08-18.12-7.59-27.19c-5.01-18.11,0.19-33.85,14.98-45.39
			c8.04-6.28,16.11-12.52,24.17-18.77c0.98-0.76,1.97-1.53,3.44-2.67c1.38,7.21,2.73,13.74,3.79,20.32
			c0.14,0.89-0.89,2.27-1.76,2.97c-4.92,3.98-10.02,7.74-14.93,11.72c-3.32,2.7-3.88,6.67-1.64,9.6c2.27,2.97,6.15,3.32,9.65,0.84
			c0.95-0.67,1.85-1.41,2.77-2.12c23.46-18.21,46.92-36.43,70.39-54.64c1.22-0.95,2.45-1.92,3.81-2.64
			c4.43-2.34,8.98-1.33,12.1,2.57c3.72,4.63,3.21,10.22-1.45,14.02c-4.1,3.35-18.16,15.97-22.3,19.28
			c-3.48,2.78-4.09,6.33-1.78,9.46c2.41,3.27,6.21,3.69,9.86,0.92c5.66-4.29,21-18.21,26.64-22.54c5.19-3.99,11.21-3.55,14.79,1.03
			c3.54,4.54,2.53,10.57-2.58,14.64c-5.46,4.34-22.14,18.03-27.6,22.36c-3.81,3.02-4.52,6.48-2.16,9.69
			c2.45,3.34,6.26,3.66,10.22,0.77c2.5-1.83,15.95-13.36,18.49-15.14c4.43-3.1,10.32-2.2,13.51,1.95c3.2,4.16,2.59,10.07-1.54,13.57
			c-2.46,2.09-21.84,17.7-24.32,19.78c-3.51,2.95-4,6.73-1.41,9.84c2.48,2.98,5.85,3.06,9.65,0.52
			c2.11-1.41,21.06-16.72,23.45-17.29c4.06-0.98,8.36,1.71,10.41,5.78C636.59,604.87,635.79,609.45,632.79,612.39z"/>
	</g>
</g>
</svg>
