<svg width="49" height="49" viewBox="0 0 49 49" fill="none" xmlns="http://www.w3.org/2000/svg">
<rect width="48.6" height="48.6" rx="8.1" fill="#B8DADE"/>
<path d="M27.9008 33.9749H20.7008C17.9828 33.9749 16.4258 32.4179 16.4258 29.6999V20.9249C16.4258 18.0899 17.8658 16.6499 20.7008 16.6499C21.0698 16.6499 21.3758 16.9559 21.3758 17.3249C21.3758 17.6849 21.5198 18.0269 21.7718 18.2789C22.0238 18.5309 22.3658 18.6749 22.7258 18.6749H25.8758C26.6228 18.6749 27.2258 18.0719 27.2258 17.3249C27.2258 16.9559 27.5318 16.6499 27.9008 16.6499C30.7358 16.6499 32.1758 18.0899 32.1758 20.9249V29.6999C32.1758 32.4179 30.6188 33.9749 27.9008 33.9749ZM20.1158 18.0179C18.6938 18.1349 17.7758 18.7739 17.7758 20.9249V29.6999C17.7758 31.6979 18.7028 32.6249 20.7008 32.6249H27.9008C29.8988 32.6249 30.8258 31.6979 30.8258 29.6999V20.9249C30.8258 18.7739 29.9078 18.1439 28.4858 18.0179C28.1798 19.1699 27.1268 20.0249 25.8758 20.0249H22.7258C22.0058 20.0249 21.3308 19.7459 20.8178 19.2329C20.4758 18.8909 20.2418 18.4769 20.1158 18.0179Z" fill="#292D32"/>
<path d="M25.8754 20.025H22.7254C22.0054 20.025 21.3304 19.746 20.8174 19.233C20.3044 18.72 20.0254 18.045 20.0254 17.325C20.0254 15.84 21.2404 14.625 22.7254 14.625H25.8754C26.5954 14.625 27.2704 14.904 27.7834 15.417C28.2964 15.93 28.5754 16.605 28.5754 17.325C28.5754 18.81 27.3604 20.025 25.8754 20.025ZM22.7254 15.975C21.9784 15.975 21.3754 16.578 21.3754 17.325C21.3754 17.685 21.5194 18.027 21.7714 18.279C22.0234 18.531 22.3654 18.675 22.7254 18.675H25.8754C26.6224 18.675 27.2254 18.072 27.2254 17.325C27.2254 16.965 27.0814 16.623 26.8294 16.371C26.5774 16.119 26.2354 15.975 25.8754 15.975H22.7254Z" fill="#292D32"/>
<path d="M24.3004 25.8749H20.7004C20.3314 25.8749 20.0254 25.5689 20.0254 25.1999C20.0254 24.8309 20.3314 24.5249 20.7004 24.5249H24.3004C24.6694 24.5249 24.9754 24.8309 24.9754 25.1999C24.9754 25.5689 24.6694 25.8749 24.3004 25.8749Z" fill="#292D32"/>
<path d="M27.9004 29.475H20.7004C20.3314 29.475 20.0254 29.169 20.0254 28.8C20.0254 28.431 20.3314 28.125 20.7004 28.125H27.9004C28.2694 28.125 28.5754 28.431 28.5754 28.8C28.5754 29.169 28.2694 29.475 27.9004 29.475Z" fill="#292D32"/>
</svg>
