<svg width="49" height="49" viewBox="0 0 49 49" fill="none" xmlns="http://www.w3.org/2000/svg">
<rect width="48.6" height="48.6" rx="8.1" fill="#C2DEB8"/>
<path d="M27.9004 33.975H20.7004C17.4154 33.975 15.5254 32.085 15.5254 28.8V19.8C15.5254 16.515 17.4154 14.625 20.7004 14.625H27.9004C31.1854 14.625 33.0754 16.515 33.0754 19.8V28.8C33.0754 32.085 31.1854 33.975 27.9004 33.975ZM20.7004 15.975C18.1264 15.975 16.8754 17.226 16.8754 19.8V28.8C16.8754 31.374 18.1264 32.625 20.7004 32.625H27.9004C30.4744 32.625 31.7254 31.374 31.7254 28.8V19.8C31.7254 17.226 30.4744 15.975 27.9004 15.975H20.7004Z" fill="#1A202F"/>
<path d="M30.15 21.825H28.35C26.982 21.825 25.875 20.718 25.875 19.35V17.55C25.875 17.181 26.181 16.875 26.55 16.875C26.919 16.875 27.225 17.181 27.225 17.55V19.35C27.225 19.971 27.729 20.475 28.35 20.475H30.15C30.519 20.475 30.825 20.781 30.825 21.15C30.825 21.519 30.519 21.825 30.15 21.825Z" fill="#1A202F"/>
<path d="M24.3004 25.8749H20.7004C20.3314 25.8749 20.0254 25.5689 20.0254 25.1999C20.0254 24.8309 20.3314 24.5249 20.7004 24.5249H24.3004C24.6694 24.5249 24.9754 24.8309 24.9754 25.1999C24.9754 25.5689 24.6694 25.8749 24.3004 25.8749Z" fill="#1A202F"/>
<path d="M27.9004 29.475H20.7004C20.3314 29.475 20.0254 29.169 20.0254 28.8C20.0254 28.431 20.3314 28.125 20.7004 28.125H27.9004C28.2694 28.125 28.5754 28.431 28.5754 28.8C28.5754 29.169 28.2694 29.475 27.9004 29.475Z" fill="#1A202F"/>
</svg>
