<svg width="49" height="49" viewBox="0 0 49 49" fill="none" xmlns="http://www.w3.org/2000/svg">
<rect width="48.6" height="48.6" rx="8.1" fill="#DEBFB8"/>
<path d="M29.357 22.1581H24.632C24.263 22.1581 23.957 21.8521 23.957 21.4831C23.957 21.1141 24.263 20.8081 24.632 20.8081H29.357C29.726 20.8081 30.032 21.1141 30.032 21.4831C30.032 21.8521 29.735 22.1581 29.357 22.1581Z" fill="#292D32"/>
<path d="M19.9083 22.842C19.7373 22.842 19.5663 22.779 19.4313 22.644L18.7563 21.969C18.4953 21.708 18.4953 21.276 18.7563 21.015C19.0173 20.754 19.4493 20.754 19.7103 21.015L19.9083 21.213L21.4563 19.665C21.7173 19.404 22.1493 19.404 22.4103 19.665C22.6713 19.926 22.6713 20.358 22.4103 20.619L20.3853 22.644C20.2593 22.77 20.0883 22.842 19.9083 22.842Z" fill="#292D32"/>
<path d="M29.357 28.4579H24.632C24.263 28.4579 23.957 28.1519 23.957 27.7829C23.957 27.4139 24.263 27.1079 24.632 27.1079H29.357C29.726 27.1079 30.032 27.4139 30.032 27.7829C30.032 28.1519 29.735 28.4579 29.357 28.4579Z" fill="#292D32"/>
<path d="M19.9083 29.1418C19.7373 29.1418 19.5663 29.0788 19.4313 28.9438L18.7563 28.2688C18.4953 28.0078 18.4953 27.5758 18.7563 27.3148C19.0173 27.0538 19.4493 27.0538 19.7103 27.3148L19.9083 27.5128L21.4563 25.9648C21.7173 25.7038 22.1493 25.7038 22.4103 25.9648C22.6713 26.2258 22.6713 26.6578 22.4103 26.9188L20.3853 28.9438C20.2593 29.0698 20.0883 29.1418 19.9083 29.1418Z" fill="#292D32"/>
<path d="M27 33.975H21.6C16.713 33.975 14.625 31.887 14.625 27V21.6C14.625 16.713 16.713 14.625 21.6 14.625H27C31.887 14.625 33.975 16.713 33.975 21.6V27C33.975 31.887 31.887 33.975 27 33.975ZM21.6 15.975C17.451 15.975 15.975 17.451 15.975 21.6V27C15.975 31.149 17.451 32.625 21.6 32.625H27C31.149 32.625 32.625 31.149 32.625 27V21.6C32.625 17.451 31.149 15.975 27 15.975H21.6Z" fill="#292D32"/>
</svg>
