<svg width="90" height="90" viewBox="0 0 90 90" fill="none" xmlns="http://www.w3.org/2000/svg">
<path d="M80.9821 71.7285H75.0205V71.7735H80.9821V71.7285Z" fill="#EBEBEB"/>
<path d="M59.6199 72.2188H58.0557V72.2637H59.6199V72.2188Z" fill="#EBEBEB"/>
<path d="M74.8399 70.0586H71.3857V70.1036H74.8399V70.0586Z" fill="#EBEBEB"/>
<path d="M17.2166 70.3613H9.44238V70.4063H17.2166V70.3613Z" fill="#EBEBEB"/>
<path d="M19.9597 70.3613H18.8203V70.4063H19.9597V70.3613Z" fill="#EBEBEB"/>
<path d="M40.5274 71.1211H23.665V71.1661H40.5274V71.1211Z" fill="#EBEBEB"/>
<path d="M42.6601 60.8044H7.90573C7.63314 60.8044 7.37172 60.6961 7.17897 60.5034C6.98622 60.3106 6.87793 60.0492 6.87793 59.7766V10.9192C6.8803 10.6482 6.98964 10.389 7.18213 10.1982C7.37462 10.0074 7.63469 9.90038 7.90573 9.90039H42.6601C42.9327 9.90039 43.1941 10.0087 43.3869 10.2014C43.5796 10.3942 43.6879 10.6556 43.6879 10.9282V59.7766C43.6879 60.0492 43.5796 60.3106 43.3869 60.5034C43.1941 60.6961 42.9327 60.8044 42.6601 60.8044ZM7.90573 9.93639C7.64522 9.93687 7.39552 10.0406 7.21131 10.2248C7.0271 10.409 6.92341 10.6587 6.92293 10.9192V59.7766C6.92341 60.0371 7.0271 60.2868 7.21131 60.471C7.39552 60.6552 7.64522 60.7589 7.90573 60.7594H42.6601C42.9206 60.7589 43.1703 60.6552 43.3545 60.471C43.5388 60.2868 43.6425 60.0371 43.6429 59.7766V10.9192C43.6425 10.6587 43.5388 10.409 43.3545 10.2248C43.1703 10.0406 42.9206 9.93687 42.6601 9.93639H7.90573Z" fill="#EBEBEB"/>
<path d="M81.5954 60.8044H46.8374C46.5649 60.8039 46.3038 60.6955 46.1111 60.5028C45.9185 60.3102 45.81 60.049 45.8096 59.7766V10.9192C45.8124 10.6483 45.9219 10.3895 46.1143 10.1988C46.3067 10.0081 46.5665 9.90085 46.8374 9.90039H81.5954C81.8658 9.90133 82.1249 10.0088 82.3166 10.1995C82.5084 10.3902 82.6172 10.6488 82.6196 10.9192V59.7766C82.6196 60.0486 82.5118 60.3094 82.3198 60.5021C82.1278 60.6947 81.8673 60.8034 81.5954 60.8044ZM46.8374 9.93639C46.5769 9.93687 46.3272 10.0406 46.143 10.2248C45.9587 10.409 45.855 10.6587 45.8546 10.9192V59.7766C45.855 60.0371 45.9587 60.2868 46.143 60.471C46.3272 60.6552 46.5769 60.7589 46.8374 60.7594H81.5954C81.8559 60.7589 82.1056 60.6552 82.2898 60.471C82.474 60.2868 82.5777 60.0371 82.5782 59.7766V10.9192C82.5777 10.6587 82.474 10.409 82.2898 10.2248C82.1056 10.0406 81.8559 9.93687 81.5954 9.93639H46.8374Z" fill="#EBEBEB"/>
<path d="M90 68.832H0V68.877H90V68.832Z" fill="#EBEBEB"/>
<path d="M75.0204 17.2441H53.2764V68.8555H75.0204V17.2441Z" fill="#F0F0F0"/>
<path d="M74.0966 18.1777H54.2012V68.8549H74.0966V18.1777Z" fill="#F5F5F5"/>
<path d="M63.6819 24.8633H55.7061V43.4231H63.6819V24.8633Z" fill="#FAFAFA"/>
<path d="M72.6965 24.8633H64.7207V43.4231H72.6965V24.8633Z" fill="#FAFAFA"/>
<path d="M72.6963 49.0352H55.7061V67.595H72.6963V49.0352Z" fill="#EBEBEB"/>
<path d="M58.8165 19.5254H69.5859C70.4108 19.5254 71.2019 19.8531 71.7852 20.4364C72.3686 21.0197 72.6963 21.8109 72.6963 22.6358V23.9048H55.7061V22.6358C55.7061 21.8109 56.0338 21.0197 56.6171 20.4364C57.2004 19.8531 57.9915 19.5254 58.8165 19.5254Z" fill="#FAFAFA"/>
<path d="M57.1569 44.2598H55.7061V48.0398H57.1569V44.2598Z" fill="#E6E6E6"/>
<path d="M57.157 48.041H57.4414V44.261H57.157V48.041Z" fill="#E0E0E0"/>
<path d="M56.6781 45.743C56.6785 45.8641 56.6429 45.9826 56.5758 46.0835C56.5088 46.1844 56.4133 46.2631 56.3015 46.3097C56.1898 46.3563 56.0666 46.3687 55.9478 46.3453C55.829 46.3219 55.7198 46.2637 55.634 46.1782C55.5482 46.0927 55.4898 45.9836 55.466 45.8649C55.4422 45.7461 55.4542 45.623 55.5005 45.511C55.5468 45.3991 55.6252 45.3034 55.7259 45.2361C55.8266 45.1688 55.945 45.1328 56.0661 45.1328C56.2281 45.1328 56.3835 45.197 56.4982 45.3114C56.6129 45.4258 56.6776 45.581 56.6781 45.743Z" fill="#E0E0E0"/>
<path d="M56.5611 46.8027H56.2461V47.5677H56.5611V46.8027Z" fill="#E0E0E0"/>
<path d="M55.5269 46.5987C55.9991 46.5987 56.3819 46.2159 56.3819 45.7437C56.3819 45.2715 55.9991 44.8887 55.5269 44.8887C55.0547 44.8887 54.6719 45.2715 54.6719 45.7437C54.6719 46.2159 55.0547 46.5987 55.5269 46.5987Z" fill="#EBEBEB"/>
<path d="M14.5635 21.7922L22.2729 17.3066H28.2129L36.0501 21.5798V61.088H14.5635V21.7922Z" fill="#FAFAFA"/>
<path d="M36.2715 61.0881H14.5635V21.7923L14.7849 21.5799C17.6399 18.8292 21.4529 17.2968 25.4175 17.3067C29.3821 17.2962 33.1953 18.8287 36.0501 21.5799L36.2715 21.7923V61.0881ZM16.0035 59.6481H34.8315V22.4097C32.2624 20.0537 28.9033 18.7466 25.4175 18.7466C21.9317 18.7466 18.5725 20.0537 16.0035 22.4097V59.6481Z" fill="#F5F5F5"/>
<path d="M35.1058 28.7883V27.7083H25.9582V18.5625H24.8782V27.7083H15.7324V28.7883H24.8782V38.6559H15.7324V39.7359H24.8782V49.6017H15.7324V50.6817H24.8782V59.8293H25.9582V50.6817H35.1058V49.6017H25.9582V39.7359H35.1058V38.6559H25.9582V28.7883H35.1058Z" fill="#F0F0F0"/>
<path d="M36.9917 61.809H13.8438V21.4998L14.0543 21.2892C17.0705 18.2799 21.1571 16.5898 25.4178 16.5898C29.6784 16.5898 33.765 18.2799 36.7811 21.2892L36.9917 21.4998V61.809ZM15.2838 60.369H35.5517V22.0992C32.825 19.4862 29.1944 18.0274 25.4178 18.0274C21.6411 18.0274 18.0104 19.4862 15.2838 22.0992V60.369Z" fill="#EBEBEB"/>
<path d="M43.1569 65.2455L43.4251 65.5389L43.7185 65.2707L43.9849 65.5623L44.2783 65.2941L44.5447 65.5875L44.8381 65.3193L45.1063 65.6109L45.3979 65.3427L45.6661 65.6361L45.9577 65.3679L46.2259 65.6595L46.5175 65.3931L46.7857 65.6847L47.0773 65.4165L47.3455 65.7099L47.6371 65.4417L47.9053 65.7333L48.1969 65.4651L48.4651 65.7585L48.7585 65.4903L49.0249 65.7819L49.3183 65.5137L49.5847 65.8071L49.8781 65.5389L50.1445 65.8305L50.4379 65.5641L50.7061 65.8557L50.9977 65.5875L51.2659 65.8791L51.5575 65.6127L51.8257 65.9043L52.1173 65.6361L52.3855 65.9277L52.6771 65.6613L52.8211 65.8161L53.2549 65.4345L52.3297 63.9279L52.2037 62.5527L42.6943 64.4715L42.8977 65.4849L43.1569 65.2455Z" fill="#263238"/>
<path opacity="0.7" d="M43.1569 65.2455L43.4251 65.5389L43.7185 65.2707L43.9849 65.5623L44.2783 65.2941L44.5447 65.5875L44.8381 65.3193L45.1063 65.6109L45.3979 65.3427L45.6661 65.6361L45.9577 65.3679L46.2259 65.6595L46.5175 65.3931L46.7857 65.6847L47.0773 65.4165L47.3455 65.7099L47.6371 65.4417L47.9053 65.7333L48.1969 65.4651L48.4651 65.7585L48.7585 65.4903L49.0249 65.7819L49.3183 65.5137L49.5847 65.8071L49.8781 65.5389L50.1445 65.8305L50.4379 65.5641L50.7061 65.8557L50.9977 65.5875L51.2659 65.8791L51.5575 65.6127L51.8257 65.9043L52.1173 65.6361L52.3855 65.9277L52.6771 65.6613L52.8211 65.8161L53.2549 65.4345L52.3297 63.9279L52.2037 62.5527L42.6943 64.4715L42.8977 65.4849L43.1569 65.2455Z" fill="white"/>
<path d="M55.2597 64.9931C54.7827 64.4909 54.1599 63.1373 54.1797 62.4461C54.1816 62.4191 54.1871 62.3925 54.1959 62.3669C54.2105 62.3206 54.2127 62.2713 54.2026 62.2238C54.1924 62.1764 54.1701 62.1323 54.1378 62.0961C54.1055 62.0598 54.0644 62.0325 54.0184 62.0169C53.9724 62.0013 53.9232 61.9978 53.8755 62.0069L52.4103 62.3021C52.2687 62.3308 52.141 62.4066 52.0479 62.517C51.9548 62.6275 51.9017 62.7661 51.8973 62.9105L51.8577 64.1021C51.8532 64.2519 51.9016 64.3985 51.9945 64.5161L52.9773 65.7761C53.0505 65.8699 53.1484 65.9415 53.26 65.9828C53.3716 66.0242 53.4925 66.0336 53.6091 66.0101L55.3443 65.6591C55.3982 65.6482 55.4477 65.6216 55.4867 65.5828C55.5257 65.544 55.5524 65.4945 55.5635 65.4407C55.5746 65.3868 55.5697 65.3308 55.5493 65.2797C55.5289 65.2287 55.4939 65.1847 55.4487 65.1533C55.3809 65.1058 55.3176 65.0522 55.2597 64.9931ZM53.5713 65.3621C53.1789 65.0669 52.8387 64.0643 52.7469 63.5819C52.7163 63.4199 52.6749 63.0419 52.7829 62.9249C52.8585 62.8385 53.1195 62.8025 53.3085 62.7881C53.3312 62.7863 53.3541 62.79 53.3751 62.799C53.396 62.808 53.4145 62.822 53.4288 62.8397C53.4432 62.8574 53.453 62.8784 53.4575 62.9007C53.4619 62.9231 53.4608 62.9462 53.4543 62.9681C53.4228 63.05 53.4116 63.1383 53.4219 63.2255C53.4615 63.3497 53.7693 63.4469 53.8143 63.5693C53.8593 63.6917 53.7135 63.9041 53.7621 64.0031C53.8107 64.1021 54.0879 64.1399 54.1473 64.2353C54.2067 64.3307 54.1131 64.6241 54.1635 64.7393C54.2324 64.8413 54.3175 64.9313 54.4155 65.0057C54.432 65.0187 54.4453 65.0352 54.4545 65.0541C54.4636 65.0729 54.4684 65.0936 54.4684 65.1146C54.4684 65.1356 54.4636 65.1563 54.4545 65.1751C54.4453 65.194 54.432 65.2105 54.4155 65.2235C54.3075 65.3138 54.186 65.3866 54.0555 65.4395C53.8876 65.4658 53.7158 65.4387 53.5641 65.3621H53.5713Z" fill="#276EF1"/>
<path opacity="0.3" d="M55.2597 64.9931C54.7827 64.4909 54.1599 63.1373 54.1797 62.4461C54.1816 62.4191 54.1871 62.3925 54.1959 62.3669C54.2105 62.3206 54.2127 62.2713 54.2026 62.2238C54.1924 62.1764 54.1701 62.1323 54.1378 62.0961C54.1055 62.0598 54.0644 62.0325 54.0184 62.0169C53.9724 62.0013 53.9232 61.9978 53.8755 62.0069L52.4103 62.3021C52.2687 62.3308 52.141 62.4066 52.0479 62.517C51.9548 62.6275 51.9017 62.7661 51.8973 62.9105L51.8577 64.1021C51.8532 64.2519 51.9016 64.3985 51.9945 64.5161L52.9773 65.7761C53.0505 65.8699 53.1484 65.9415 53.26 65.9828C53.3716 66.0242 53.4925 66.0336 53.6091 66.0101L55.3443 65.6591C55.3982 65.6482 55.4477 65.6216 55.4867 65.5828C55.5257 65.544 55.5524 65.4945 55.5635 65.4407C55.5746 65.3868 55.5697 65.3308 55.5493 65.2797C55.5289 65.2287 55.4939 65.1847 55.4487 65.1533C55.3809 65.1058 55.3176 65.0522 55.2597 64.9931ZM53.5713 65.3621C53.1789 65.0669 52.8387 64.0643 52.7469 63.5819C52.7163 63.4199 52.6749 63.0419 52.7829 62.9249C52.8585 62.8385 53.1195 62.8025 53.3085 62.7881C53.3312 62.7863 53.3541 62.79 53.3751 62.799C53.396 62.808 53.4145 62.822 53.4288 62.8397C53.4432 62.8574 53.453 62.8784 53.4575 62.9007C53.4619 62.9231 53.4608 62.9462 53.4543 62.9681C53.4228 63.05 53.4116 63.1383 53.4219 63.2255C53.4615 63.3497 53.7693 63.4469 53.8143 63.5693C53.8593 63.6917 53.7135 63.9041 53.7621 64.0031C53.8107 64.1021 54.0879 64.1399 54.1473 64.2353C54.2067 64.3307 54.1131 64.6241 54.1635 64.7393C54.2324 64.8413 54.3175 64.9313 54.4155 65.0057C54.432 65.0187 54.4453 65.0352 54.4545 65.0541C54.4636 65.0729 54.4684 65.0936 54.4684 65.1146C54.4684 65.1356 54.4636 65.1563 54.4545 65.1751C54.4453 65.194 54.432 65.2105 54.4155 65.2235C54.3075 65.3138 54.186 65.3866 54.0555 65.4395C53.8876 65.4658 53.7158 65.4387 53.5641 65.3621H53.5713Z" fill="white"/>
<path d="M64.1968 27.9824C64.7173 27.9605 65.2092 27.7387 65.5702 27.3632C65.9705 26.9626 66.1954 26.4194 66.1954 25.853C66.1954 25.2867 65.9705 24.7435 65.5702 24.3428C65.2578 24.0095 64.8377 23.7972 64.384 23.7434C63.9715 23.7209 63.5581 23.7209 63.1456 23.7434C62.6919 23.7958 62.2715 24.0076 61.9594 24.341L60.4492 25.8512L61.9594 27.3614C62.2729 27.6934 62.6924 27.9054 63.1456 27.9608C63.4084 27.9878 63.934 27.9896 64.1968 27.9824Z" fill="#276EF1"/>
<path opacity="0.3" d="M64.1968 27.9824C64.7173 27.9605 65.2092 27.7387 65.5702 27.3632C65.9705 26.9626 66.1954 26.4194 66.1954 25.853C66.1954 25.2867 65.9705 24.7435 65.5702 24.3428C65.2578 24.0095 64.8377 23.7972 64.384 23.7434C63.9715 23.7209 63.5581 23.7209 63.1456 23.7434C62.6919 23.7958 62.2715 24.0076 61.9594 24.341L60.4492 25.8512L61.9594 27.3614C62.2729 27.6934 62.6924 27.9054 63.1456 27.9608C63.4084 27.9878 63.934 27.9896 64.1968 27.9824Z" fill="white"/>
<path d="M62.5483 24.3432C62.847 24.0442 63.2277 23.8406 63.6422 23.758C64.0567 23.6754 64.4864 23.7176 64.8769 23.8793C65.2675 24.0409 65.6012 24.3148 65.8361 24.6662C66.0709 25.0176 66.1963 25.4307 66.1963 25.8534C66.1963 26.2761 66.0709 26.6892 65.8361 27.0406C65.6012 27.392 65.2675 27.6659 64.8769 27.8275C64.4864 27.9892 64.0567 28.0314 63.6422 27.9488C63.2277 27.8662 62.847 27.6626 62.5483 27.3636L61.0381 25.8534L62.5483 24.3432Z" fill="#276EF1"/>
<path opacity="0.6" d="M62.5483 24.3432C62.847 24.0442 63.2277 23.8406 63.6422 23.758C64.0567 23.6754 64.4864 23.7176 64.8769 23.8793C65.2675 24.0409 65.6012 24.3148 65.8361 24.6662C66.0709 25.0176 66.1963 25.4307 66.1963 25.8534C66.1963 26.2761 66.0709 26.6892 65.8361 27.0406C65.6012 27.392 65.2675 27.6659 64.8769 27.8275C64.4864 27.9892 64.0567 28.0314 63.6422 27.9488C63.2277 27.8662 62.847 27.6626 62.5483 27.3636L61.0381 25.8534L62.5483 24.3432Z" fill="white"/>
<path d="M58.709 24.0391L60.5018 25.8319H61.004L59.2112 24.0391H58.709Z" fill="#263238"/>
<path opacity="0.7" d="M58.709 24.0391L60.5018 25.8319H61.004L59.2112 24.0391H58.709Z" fill="white"/>
<path d="M58.709 24.0393L58.8314 23.9169C58.8717 23.8763 58.9197 23.8442 58.9725 23.8222C59.0253 23.8003 59.082 23.789 59.1392 23.7891H59.2688C59.2845 23.7893 59.2999 23.7941 59.3129 23.8029C59.326 23.8117 59.3362 23.8241 59.3423 23.8386C59.3484 23.8531 59.3502 23.8691 59.3474 23.8846C59.3445 23.9001 59.3372 23.9144 59.3264 23.9259L59.2112 24.0393H58.709Z" fill="#263238"/>
<path opacity="0.5" d="M58.709 24.0393L58.8314 23.9169C58.8717 23.8763 58.9197 23.8442 58.9725 23.8222C59.0253 23.8003 59.082 23.789 59.1392 23.7891H59.2688C59.2845 23.7893 59.2999 23.7941 59.3129 23.8029C59.326 23.8117 59.3362 23.8241 59.3423 23.8386C59.3484 23.8531 59.3502 23.8691 59.3474 23.8846C59.3445 23.9001 59.3372 23.9144 59.3264 23.9259L59.2112 24.0393H58.709Z" fill="white"/>
<g opacity="0.7">
<path d="M65.0145 26.5436C65.178 26.3168 65.2555 26.0392 65.2331 25.7605C65.2107 25.4818 65.0898 25.2202 64.8921 25.0225C64.6944 24.8248 64.4328 24.7039 64.1541 24.6815C63.8754 24.6591 63.5979 24.7366 63.3711 24.9002L65.0145 26.5436Z" fill="white"/>
<path d="M63.1043 25.166C62.9407 25.3928 62.8632 25.6704 62.8856 25.949C62.908 26.2277 63.0289 26.4893 63.2266 26.687C63.4243 26.8847 63.6859 27.0056 63.9646 27.028C64.2433 27.0505 64.5209 26.973 64.7477 26.8094L63.1043 25.166Z" fill="white"/>
</g>
<path d="M72.4957 26.4609L71.5723 26.8821C71.5723 26.8821 72.7945 29.3445 73.1653 30.1833C73.5577 31.0653 74.4739 33.3891 74.8375 34.3125C74.8569 34.3621 74.8862 34.4072 74.9237 34.4451C74.9611 34.4829 75.0059 34.5127 75.0553 34.5326C75.1047 34.5525 75.1576 34.5621 75.2109 34.5607C75.2641 34.5594 75.3165 34.5472 75.3649 34.5249L75.7807 34.3269C75.8291 34.3046 75.8724 34.2725 75.908 34.2328C75.9435 34.1931 75.9706 34.1465 75.9874 34.0959C76.0043 34.0453 76.0106 33.9918 76.006 33.9386C76.0014 33.8855 75.986 33.8339 75.9607 33.7869C75.4999 32.9067 74.3407 30.6783 73.9267 29.7999C73.5469 28.9809 72.4957 26.4609 72.4957 26.4609Z" fill="#276EF1"/>
<path opacity="0.5" d="M72.4957 26.4609L71.5723 26.8821C71.5723 26.8821 72.7945 29.3445 73.1653 30.1833C73.5577 31.0653 74.4739 33.3891 74.8375 34.3125C74.8569 34.3621 74.8862 34.4072 74.9237 34.4451C74.9611 34.4829 75.0059 34.5127 75.0553 34.5326C75.1047 34.5525 75.1576 34.5621 75.2109 34.5607C75.2641 34.5594 75.3165 34.5472 75.3649 34.5249L75.7807 34.3269C75.8291 34.3046 75.8724 34.2725 75.908 34.2328C75.9435 34.1931 75.9706 34.1465 75.9874 34.0959C76.0043 34.0453 76.0106 33.9918 76.006 33.9386C76.0014 33.8855 75.986 33.8339 75.9607 33.7869C75.4999 32.9067 74.3407 30.6783 73.9267 29.7999C73.5469 28.9809 72.4957 26.4609 72.4957 26.4609Z" fill="white"/>
<path d="M70.2168 26.127C70.4223 25.9228 70.6393 25.7305 70.8666 25.551C71.0659 25.4021 71.2949 25.2978 71.538 25.245C72.0582 25.1352 72.8844 25.0866 73.8204 26.028L73.59 26.1324C73.59 26.1324 72.5964 25.245 72.3426 25.7886C72.2688 25.9488 72.5046 26.4762 72.5046 26.4762L71.5812 26.8974C71.5277 26.7982 71.4548 26.7108 71.367 26.6402C71.2791 26.5697 71.178 26.5174 71.0696 26.4866C70.9613 26.4557 70.8478 26.4468 70.736 26.4605C70.6241 26.4742 70.5161 26.5101 70.4184 26.5662L70.2168 26.127Z" fill="#263238"/>
<path opacity="0.6" d="M70.2168 26.127C70.4223 25.9228 70.6393 25.7305 70.8666 25.551C71.0659 25.4021 71.2949 25.2978 71.538 25.245C72.0582 25.1352 72.8844 25.0866 73.8204 26.028L73.59 26.1324C73.59 26.1324 72.5964 25.245 72.3426 25.7886C72.2688 25.9488 72.5046 26.4762 72.5046 26.4762L71.5812 26.8974C71.5277 26.7982 71.4548 26.7108 71.367 26.6402C71.2791 26.5697 71.178 26.5174 71.0696 26.4866C70.9613 26.4557 70.8478 26.4468 70.736 26.4605C70.6241 26.4742 70.5161 26.5101 70.4184 26.5662L70.2168 26.127Z" fill="white"/>
<path d="M69.9521 25.9293L69.8604 25.9712C69.712 26.0389 69.6467 26.214 69.7144 26.3623L69.9161 26.8044C69.9838 26.9528 70.1589 27.0181 70.3072 26.9504L70.3989 26.9086C70.5473 26.8409 70.6126 26.6658 70.5449 26.5175L70.3432 26.0753C70.2755 25.927 70.1004 25.8617 69.9521 25.9293Z" fill="#263238"/>
<path opacity="0.4" d="M69.9521 25.9293L69.8604 25.9712C69.712 26.0389 69.6467 26.214 69.7144 26.3623L69.9161 26.8044C69.9838 26.9528 70.1589 27.0181 70.3072 26.9504L70.3989 26.9086C70.5473 26.8409 70.6126 26.6658 70.5449 26.5175L70.3432 26.0753C70.2755 25.927 70.1004 25.8617 69.9521 25.9293Z" fill="white"/>
<path d="M61.8463 28.9707H17.0713V59.4267H61.8463V28.9707Z" fill="#263238"/>
<path opacity="0.5" d="M61.8463 28.9707H17.0713V59.4267H61.8463V28.9707Z" fill="white"/>
<path opacity="0.9" d="M60.8567 29.9609H18.0635V58.4351H60.8567V29.9609Z" fill="white"/>
<path d="M36.9394 43.7148H25.126V53.5464H36.9394V43.7148Z" fill="#263238"/>
<path opacity="0.7" d="M36.9394 43.7148H25.126V53.5464H36.9394V43.7148Z" fill="white"/>
<path d="M35.426 46.334H30.4346V52.535H35.426V46.334Z" fill="#276EF1"/>
<path d="M29.6731 46.334H26.4961V51.4928H29.6731V46.334Z" fill="#276EF1"/>
<path opacity="0.7" d="M29.3852 46.6211H26.7842V51.2039H29.3852V46.6211Z" fill="white"/>
<path opacity="0.5" d="M27.1904 51.2039H28.274L29.3846 47.0531V46.6211H28.4162L27.1904 51.2039Z" fill="white"/>
<path opacity="0.7" d="M32.7435 46.7305H30.8301V52.5355H32.7435V46.7305Z" fill="white"/>
<path opacity="0.7" d="M35.0277 46.7305H33.1143V52.5355H35.0277V46.7305Z" fill="white"/>
<path d="M36.6576 39.2246H26.7432V43.8506H36.6576V39.2246Z" fill="#263238"/>
<path opacity="0.7" d="M36.6576 39.2246H26.7432V43.8506H36.6576V39.2246Z" fill="white"/>
<path d="M31.637 40.666H28.46V42.0592H31.637V40.666Z" fill="#276EF1"/>
<path opacity="0.7" d="M31.349 40.9531H28.748V41.7703H31.349V40.9531Z" fill="white"/>
<path d="M35.1145 40.666H31.9375V42.0592H35.1145V40.666Z" fill="#276EF1"/>
<path opacity="0.7" d="M34.8266 40.9531H32.2256V41.7703H34.8266V40.9531Z" fill="white"/>
<path opacity="0.5" d="M29.3975 41.7703H30.4811L30.6989 40.9531H29.6153L29.3975 41.7703Z" fill="white"/>
<path opacity="0.5" d="M32.875 41.7703H33.9586L34.1764 40.9531H33.0928L32.875 41.7703Z" fill="white"/>
<path d="M39.4936 45.0518H23.6104L24.9982 42.377H39.0976L39.4936 45.0518Z" fill="#276EF1"/>
<path opacity="0.3" d="M39.4936 45.0518H23.6104L24.9982 42.377H39.0976L39.4936 45.0518Z" fill="black"/>
<path d="M37.1787 40.3492H25.7109L26.6055 38.623H36.9231L37.1787 40.3492Z" fill="#276EF1"/>
<path opacity="0.3" d="M37.1787 40.3492H25.7109L26.6055 38.623H36.9231L37.1787 40.3492Z" fill="black"/>
<path d="M36.9394 52.5352H23.6104V53.5468H36.9394V52.5352Z" fill="#263238"/>
<path opacity="0.5" d="M36.9394 52.5352H23.6104V53.5468H36.9394V52.5352Z" fill="white"/>
<path d="M36.292 36.6082V44.5282H50.9872V36.6082L43.6396 32.7148L36.292 36.6082Z" fill="#276EF1"/>
<path opacity="0.5" d="M36.292 36.6082V44.5282H50.9872V36.6082L43.6396 32.7148L36.292 36.6082Z" fill="white"/>
<path d="M50.9872 43.8516H36.292V53.5482H50.9872V43.8516Z" fill="#276EF1"/>
<path opacity="0.5" d="M50.9872 43.8516H36.292V53.5482H50.9872V43.8516Z" fill="white"/>
<path d="M49.1635 42.2786H38.1133V37.4222L43.6393 34.3496L49.1635 37.4222V42.2786Z" fill="#276EF1"/>
<path opacity="0.8" d="M49.1635 42.2786H38.1133V37.4222L43.6393 34.3496L49.1635 37.4222V42.2786Z" fill="white"/>
<path d="M43.4885 38.1016H40.3115V41.2786H43.4885V38.1016Z" fill="#276EF1"/>
<path opacity="0.7" d="M43.1996 38.3926H40.5986V40.9936H43.1996V38.3926Z" fill="white"/>
<path d="M46.9661 38.1016H43.7891V41.2786H46.9661V38.1016Z" fill="#276EF1"/>
<path opacity="0.7" d="M46.6782 38.3926H44.0771V40.9936H46.6782V38.3926Z" fill="white"/>
<path d="M49.56 46.1914H37.7178V53.5462H49.56V46.1914Z" fill="#263238"/>
<path opacity="0.3" d="M49.56 46.1914H37.7178V53.5462H49.56V46.1914Z" fill="white"/>
<path opacity="0.5" d="M41.0127 40.9916H42.0963L42.7911 38.3906H41.7075L41.0127 40.9916Z" fill="white"/>
<path opacity="0.5" d="M44.4902 40.9916H45.5738L46.2704 38.3906H45.185L44.4902 40.9916Z" fill="white"/>
<path d="M52.3874 38.1902L43.6394 33.4274L34.8914 38.1902L34.418 37.319L43.6394 32.2988L52.8608 37.319L52.3874 38.1902Z" fill="#276EF1"/>
<path d="M51.5813 45.0527H35.6963L36.0941 43.1699H51.1853L51.5813 45.0527Z" fill="#276EF1"/>
<path d="M49.6492 38.1019L43.639 34.8295L37.627 38.1019L37.249 37.4053L43.639 33.9277L50.029 37.4053L49.6492 38.1019Z" fill="#276EF1"/>
<path opacity="0.5" d="M40.0267 46.5898H38.1133V53.5486H40.0267V46.5898Z" fill="white"/>
<path opacity="0.5" d="M42.3109 46.5898H40.3975V53.5486H42.3109V46.5898Z" fill="white"/>
<path opacity="0.5" d="M44.595 46.5898H42.6816V53.5486H44.595V46.5898Z" fill="white"/>
<path opacity="0.5" d="M46.8792 46.5898H44.9658V53.5486H46.8792V46.5898Z" fill="white"/>
<path opacity="0.5" d="M49.1634 46.5898H47.25V53.5486H49.1634V46.5898Z" fill="white"/>
<path d="M50.8879 54.5403H36.3907V54.1191H36.1927V54.5403H23.7097V54.1191H23.5117V54.7383H36.1927V55.2603H51.0859V54.1209H50.8879V54.5403ZM50.8879 55.0605H36.3907V54.7383H50.8879V55.0605Z" fill="#263238"/>
<path d="M53.375 43.0694V32.1992H44.4902V32.399H53.177V43.0712H51.5804V43.2692H53.177V53.4482H51.5804V53.639H53.87V43.0694H53.375ZM53.672 53.4464H53.375V43.2674H53.672V53.4464Z" fill="#263238"/>
<path d="M26.8835 35.4439H36.1931V35.9371H36.3911V35.2441H26.6855V38.1025H26.8835V35.4439Z" fill="#263238"/>
<path d="M24.8342 42.2782H24.2888V38.7214H26.1716V38.5234H24.0908V42.4762H24.8342V42.2782Z" fill="#263238"/>
<g opacity="0.2">
<path d="M50.8879 54.5384H36.3907V54.1172H36.1927V54.5384H23.7097V54.1172H23.5117V54.7364H36.1927V55.2584H51.0859V54.119H50.8879V54.5384ZM50.8879 55.0586H36.3907V54.7364H50.8879V55.0586Z" fill="white"/>
<path d="M53.375 43.0694V32.1992H44.4902V32.399H53.177V43.0712H51.5804V43.2692H53.177V53.4482H51.5804V53.639H53.87V43.0694H53.375ZM53.672 53.4464H53.375V43.2674H53.672V53.4464Z" fill="white"/>
<path d="M26.8835 35.442H36.1931V35.9352H36.3911V35.2422H26.6855V38.1006H26.8835V35.442Z" fill="white"/>
<path d="M24.8352 42.2782H24.2898V38.7214H26.1726V38.5234H24.0918V42.4762H24.8352V42.2782Z" fill="white"/>
</g>
<path d="M53.5319 55.8398H50.8877V58.5398H60.9551V55.8398H53.5319ZM51.0857 56.0378H53.3339V57.0872H51.0857V56.0378ZM53.3339 58.3364H51.0857V57.2852H53.3339V58.3364ZM57.0455 58.3364H53.5319V57.2852H57.0455V58.3364ZM60.7571 58.3364H57.2399V57.2852H60.7535L60.7571 58.3364ZM57.2399 57.0872H53.5319V56.0378H60.7571V57.0872H57.2399Z" fill="#263238"/>
<path opacity="0.2" d="M53.5319 55.8398H50.8877V58.5398H60.9551V55.8398H53.5319ZM51.0857 56.0378H53.3339V57.0872H51.0857V56.0378ZM53.3339 58.3364H51.0857V57.2852H53.3339V58.3364ZM57.0455 58.3364H53.5319V57.2852H57.0455V58.3364ZM60.7571 58.3364H57.2399V57.2852H60.7535L60.7571 58.3364ZM57.2399 57.0872H53.5319V56.0378H60.7571V57.0872H57.2399Z" fill="white"/>
<path d="M57.3152 38.7457L56.6924 37.6189L56.4458 35.9863L55.9634 36.0547L55.3262 37.2337L56.2046 38.1481L56.6672 39.3001L57.3152 38.7457Z" fill="#FFC3BD"/>
<path d="M62.5585 38.7442C62.5553 38.7221 62.5465 38.7011 62.533 38.6832C62.5194 38.6653 62.5016 38.6512 62.4811 38.642C62.4607 38.6328 62.4382 38.629 62.4159 38.6308C62.3936 38.6327 62.372 38.6401 62.3533 38.6524C61.8133 39.0124 60.1537 40.0924 59.2465 40.0924C58.1521 40.0924 57.0865 38.0566 57.0865 38.0566L56.2441 38.5732C56.2441 38.5732 57.5131 41.869 59.2555 41.869C60.9979 41.869 62.8213 40.429 62.8213 40.429L62.5585 38.7442Z" fill="#276EF1"/>
<path opacity="0.5" d="M62.5585 38.7442C62.5553 38.7221 62.5465 38.7011 62.533 38.6832C62.5194 38.6653 62.5016 38.6512 62.4811 38.642C62.4607 38.6328 62.4382 38.629 62.4159 38.6308C62.3936 38.6327 62.372 38.6401 62.3533 38.6524C61.8133 39.0124 60.1537 40.0924 59.2465 40.0924C58.1521 40.0924 57.0865 38.0566 57.0865 38.0566L56.2441 38.5732C56.2441 38.5732 57.5131 41.869 59.2555 41.869C60.9979 41.869 62.8213 40.429 62.8213 40.429L62.5585 38.7442Z" fill="white"/>
<path d="M56.0947 38.5381L57.0757 37.9062L57.3151 38.2212L56.2351 38.8872L56.0947 38.5381Z" fill="#276EF1"/>
<path opacity="0.1" d="M60.6484 41.6133C61.4218 41.3304 62.1496 40.9356 62.8084 40.4415L62.596 39.0195H62.3152L60.6484 41.6133Z" fill="black"/>
<path d="M60.9443 69.9258L61.0559 73.0182H62.1827L62.4509 70.0356L60.9443 69.9258Z" fill="#FFC3BD"/>
<path d="M67.0225 70.0307L67.5157 73.0853L68.6335 72.9449L68.5309 69.9551L67.0225 70.0307Z" fill="#FFC3BD"/>
<path d="M61.6585 47.203C61.6585 47.203 60.1681 54.943 60.9295 71.683H62.4325C62.4325 71.683 63.4387 63.6244 63.3325 60.4564C63.3325 60.3772 63.3325 60.3016 63.3235 60.2296C63.2807 59.5642 63.3414 58.8963 63.5035 58.2496L63.5143 58.2118L65.2423 51.6094C65.2423 51.6094 68.2231 50.6896 66.9487 47.2012L61.6585 47.203Z" fill="#276EF1"/>
<path opacity="0.1" d="M64.875 50.913L64.227 49.2012C63.9363 51.5235 63.876 53.8689 64.047 56.2032L65.1756 51.8958L64.875 50.913Z" fill="black"/>
<path d="M60.7676 71.2695L60.7928 72.0165L62.5028 72.0993L62.645 71.3253L60.7676 71.2695Z" fill="#263238"/>
<path d="M63.9947 47.2031C63.9947 47.2031 63.8741 55.5947 67.2563 72.0125L68.7413 71.7767C68.7413 71.7767 68.4677 64.2167 67.9295 60.8993C67.9031 60.7373 67.8761 60.5861 67.8485 60.4457C67.678 59.6048 67.6014 58.7476 67.6199 57.8897V57.8573C67.6703 55.9313 67.7837 52.8677 67.9997 51.5681C68.1797 50.5313 68.1959 49.5881 67.8197 47.3777L63.9947 47.2031Z" fill="#276EF1"/>
<path d="M67.0332 71.5108L67.1934 72.2398L68.889 72.0112V71.2246L67.0332 71.5108Z" fill="#263238"/>
<path d="M72.4948 43.0752L73.7116 42.9546L74.2318 42.5352L75.4468 42.7008V43.1346L75.0994 43.8366L73.78 43.6206L72.4102 43.8798L72.4948 43.0752Z" fill="#FFC3BD"/>
<path d="M64.6552 33.0811C64.6552 33.0811 63.3178 32.9461 63.8164 34.4941L64.8406 33.3169L64.6552 33.0811Z" fill="#263238"/>
<path opacity="0.3" d="M64.6552 33.0811C64.6552 33.0811 63.3178 32.9461 63.8164 34.4941L64.8406 33.3169L64.6552 33.0811Z" fill="white"/>
<path d="M66.1132 36.0586C65.9908 36.7462 65.8792 37.936 66.232 38.5552C66.2744 38.627 66.2906 38.7113 66.2778 38.7937C66.265 38.8761 66.224 38.9515 66.1618 39.007C65.7247 39.446 65.1405 39.7076 64.522 39.7414C63.73 39.7846 63.667 39.3598 63.8164 39.0214C63.8365 38.9771 63.8654 38.9374 63.9012 38.9046C63.9371 38.8718 63.9793 38.8467 64.0252 38.8306C64.7686 38.575 64.8082 37.918 64.6552 37.3456L66.1132 36.0586Z" fill="#FFC3BD"/>
<path opacity="0.2" d="M65.5193 36.5879L64.6553 37.3475C64.6899 37.4882 64.7127 37.6314 64.7237 37.7759C65.0549 37.7219 66.4193 37.0217 65.5193 36.5879Z" fill="black"/>
<path d="M66.5762 35.0398C66.3512 36.0694 66.2702 36.6832 65.6636 37.1332C64.7492 37.8136 63.5396 37.1332 63.455 36.0532C63.3776 35.0794 63.7592 33.5638 64.841 33.3082C65.0791 33.2519 65.3276 33.2572 65.5631 33.3235C65.7986 33.3899 66.0133 33.5152 66.187 33.6876C66.3606 33.86 66.4875 34.0738 66.5556 34.3088C66.6237 34.5438 66.6308 34.7923 66.5762 35.0308V35.0398Z" fill="#FFC3BD"/>
<path d="M64.9043 35.0862C64.8899 35.1708 64.8359 35.2338 64.7801 35.2248C64.7243 35.2158 64.6901 35.1402 64.7045 35.0556C64.7189 34.971 64.7729 34.9098 64.8287 34.9188C64.8845 34.9278 64.9169 35.0016 64.9043 35.0862Z" fill="#263238"/>
<path d="M63.9482 34.9376C63.9338 35.0222 63.8798 35.0834 63.824 35.0744C63.7682 35.0654 63.734 34.9916 63.7484 34.907C63.7628 34.8224 63.8168 34.7594 63.8726 34.7684C63.9284 34.7774 63.9608 34.853 63.9482 34.9376Z" fill="#263238"/>
<path d="M64.2977 35.0254C64.157 35.2685 63.9825 35.4903 63.7793 35.6842C63.831 35.7346 63.893 35.7732 63.9611 35.7974C64.0291 35.8216 64.1016 35.8309 64.1735 35.8246L64.2977 35.0254Z" fill="#ED847E"/>
<path d="M65.295 34.7389C65.3032 34.7416 65.312 34.7416 65.3202 34.7389C65.3315 34.7322 65.3399 34.7213 65.3436 34.7086C65.3472 34.6959 65.346 34.6823 65.34 34.6705C65.3034 34.5996 65.2506 34.5383 65.1859 34.4917C65.1211 34.4451 65.0463 34.4145 64.9674 34.4023C64.954 34.4023 64.9412 34.4077 64.9318 34.4171C64.9223 34.4266 64.917 34.4394 64.917 34.4527C64.917 34.4661 64.9223 34.4789 64.9318 34.4884C64.9412 34.4978 64.954 34.5031 64.9674 34.5031C65.0296 34.5136 65.0884 34.5386 65.1391 34.5761C65.1898 34.6137 65.2309 34.6627 65.259 34.7191C65.2632 34.7249 65.2686 34.7296 65.2748 34.733C65.281 34.7365 65.2879 34.7385 65.295 34.7389Z" fill="#263238"/>
<path d="M63.6369 34.4938C63.6451 34.494 63.6531 34.4921 63.6604 34.4883C63.6676 34.4845 63.6738 34.479 63.6783 34.4722C63.7126 34.4196 63.7589 34.3759 63.8133 34.3446C63.8677 34.3133 63.9288 34.2954 63.9915 34.2922C63.9981 34.2924 64.0046 34.2914 64.0107 34.289C64.0168 34.2867 64.0224 34.2832 64.0271 34.2786C64.0318 34.2741 64.0355 34.2686 64.0381 34.2626C64.0406 34.2566 64.0419 34.2501 64.0419 34.2436C64.0422 34.237 64.0411 34.2304 64.0388 34.2242C64.0365 34.218 64.033 34.2123 64.0284 34.2074C64.0239 34.2026 64.0185 34.1987 64.0125 34.1959C64.0065 34.1932 63.9999 34.1916 63.9933 34.1914C63.9134 34.1948 63.8355 34.2169 63.7658 34.256C63.696 34.2951 63.6365 34.35 63.5919 34.4164C63.5882 34.4217 63.5855 34.4277 63.5841 34.434C63.5827 34.4403 63.5826 34.4469 63.5838 34.4533C63.585 34.4596 63.5874 34.4657 63.591 34.4711C63.5945 34.4765 63.5991 34.4812 63.6045 34.4848C63.6143 34.4907 63.6255 34.4938 63.6369 34.4938Z" fill="#263238"/>
<path d="M64.0218 36.1648C64.3617 36.1261 64.7044 36.1171 65.046 36.1378C64.9452 36.3394 64.7724 36.4978 64.3854 36.4888C63.9984 36.4798 64.0218 36.1648 64.0218 36.1648Z" fill="#263238"/>
<path d="M64.575 36.3328C64.4275 36.3205 64.2795 36.3504 64.1484 36.4192C64.2189 36.4655 64.3017 36.4894 64.386 36.4876C64.533 36.5 64.6804 36.47 64.8108 36.4012C64.7407 36.3556 64.6587 36.3318 64.575 36.3328Z" fill="#FF5652"/>
<path d="M64.0566 36.1591C64.0635 36.1854 64.0775 36.2093 64.0973 36.2281C64.117 36.2469 64.1416 36.2598 64.1682 36.2653C64.392 36.2709 64.6158 36.2595 64.8378 36.2311C64.8733 36.2309 64.9082 36.2221 64.9396 36.2055C64.9709 36.1889 64.9978 36.1649 65.0178 36.1357C64.6973 36.1216 64.3761 36.1294 64.0566 36.1591Z" fill="white"/>
<path d="M66.3602 33.6758C66.3602 33.6758 65.6816 33.9962 65.9318 34.6388C66.182 35.2814 65.876 35.6738 65.876 35.6738L66.3602 35.7458C66.3602 35.7458 67.4402 34.9916 67.1918 33.926L66.3602 33.6758Z" fill="#263238"/>
<path opacity="0.3" d="M66.3602 33.6758C66.3602 33.6758 65.6816 33.9962 65.9318 34.6388C66.182 35.2814 65.876 35.6738 65.876 35.6738L66.3602 35.7458C66.3602 35.7458 67.4402 34.9916 67.1918 33.926L66.3602 33.6758Z" fill="white"/>
<path d="M66.9329 36.0867C66.8468 36.1856 66.7421 36.2665 66.6248 36.3249C66.5074 36.3833 66.3797 36.4179 66.2489 36.4269C65.8979 36.4485 65.7953 36.1173 65.9555 35.8257C66.0977 35.5629 66.4523 35.2335 66.7745 35.3505C66.8449 35.3766 66.9075 35.42 66.9567 35.4768C67.0058 35.5335 67.0399 35.6017 67.0557 35.6751C67.0715 35.7485 67.0685 35.8247 67.047 35.8966C67.0256 35.9686 66.9863 36.0339 66.9329 36.0867Z" fill="#FFC3BD"/>
<path d="M67.1266 34.1058C67.4866 33.9258 67.7926 33.015 66.3796 32.6838C64.63 32.2716 64.0396 31.4238 64.0396 31.4238C64.0396 31.4238 63.9658 32.232 64.4806 32.5416C64.4806 32.5416 63.7804 32.1492 63.5176 32.7918C63.5176 32.7918 63.9514 32.6604 64.4806 33.3858C65.179 34.338 66.511 34.4118 67.1266 34.1058Z" fill="#263238"/>
<path d="M64.6812 33.4384C64.6812 33.4384 63.5832 32.5582 63.5166 33.739C63.5166 33.739 63.864 33.4546 64.6812 33.4384Z" fill="#263238"/>
<path d="M67.9925 38.9235C68.0092 38.9058 68.0303 38.8927 68.0535 38.8854C68.0768 38.8781 68.1016 38.8769 68.1254 38.882C68.1493 38.8871 68.1715 38.8982 68.1898 38.9143C68.2081 38.9304 68.222 38.9509 68.2301 38.9739C68.4497 39.5805 69.3929 41.8179 70.0787 42.3165C70.9175 42.9267 73.2431 42.8745 73.2431 42.8745L73.2917 43.8591C73.2917 43.8591 70.5287 44.5395 69.1913 43.5675C67.8539 42.5955 66.8711 40.0629 66.8711 40.0629L67.9925 38.9235Z" fill="#276EF1"/>
<path opacity="0.5" d="M67.9925 38.9235C68.0092 38.9058 68.0303 38.8927 68.0535 38.8854C68.0768 38.8781 68.1016 38.8769 68.1254 38.882C68.1493 38.8871 68.1715 38.8982 68.1898 38.9143C68.2081 38.9304 68.222 38.9509 68.2301 38.9739C68.4497 39.5805 69.3929 41.8179 70.0787 42.3165C70.9175 42.9267 73.2431 42.8745 73.2431 42.8745L73.2917 43.8591C73.2917 43.8591 70.5287 44.5395 69.1913 43.5675C67.8539 42.5955 66.8711 40.0629 66.8711 40.0629L67.9925 38.9235Z" fill="white"/>
<path opacity="0.1" d="M67.1953 40.4993V40.7783C67.5553 41.5415 68.2105 42.7277 69.0079 43.4099L68.0395 39.4355L67.1953 40.4993Z" fill="black"/>
<path d="M73.0977 42.7578L73.1625 44.0052L73.4865 43.9242L73.4307 42.7578H73.0977Z" fill="#276EF1"/>
<path d="M67.7678 38.666C67.289 38.5922 66.5708 38.495 65.768 38.4284L65.0606 38.7884L64.7366 38.3708C64.095 38.3409 63.4521 38.3547 62.8124 38.4122C62.6524 38.4288 62.5022 38.4969 62.3843 38.6063C62.2665 38.7157 62.1874 38.8605 62.159 39.0188C61.9124 40.3832 61.1546 44.5052 61.484 48.0332C61.484 48.0332 63.2444 48.413 64.004 47.9054C64.004 47.9054 66.2774 48.6794 67.9892 48.0134L68.3492 39.3878C68.3605 39.2165 68.3071 39.0471 68.1994 38.9134C68.0916 38.7797 67.9376 38.6914 67.7678 38.666Z" fill="#276EF1"/>
<path opacity="0.5" d="M67.7678 38.666C67.289 38.5922 66.5708 38.495 65.768 38.4284L65.0606 38.7884L64.7366 38.3708C64.095 38.3409 63.4521 38.3547 62.8124 38.4122C62.6524 38.4288 62.5022 38.4969 62.3843 38.6063C62.2665 38.7157 62.1874 38.8605 62.159 39.0188C61.9124 40.3832 61.1546 44.5052 61.484 48.0332C61.484 48.0332 63.2444 48.413 64.004 47.9054C64.004 47.9054 66.2774 48.6794 67.9892 48.0134L68.3492 39.3878C68.3605 39.2165 68.3071 39.0471 68.1994 38.9134C68.0916 38.7797 67.9376 38.6914 67.7678 38.666Z" fill="white"/>
<path d="M64.7998 38.1853L65.1022 38.6245L66.0994 38.0845C66.1624 38.0513 66.2344 38.0394 66.3048 38.0504C66.3751 38.0614 66.4401 38.0948 66.49 38.1457L66.8698 38.5381L65.887 39.6451C65.8766 39.6577 65.8626 39.6668 65.8468 39.6711C65.8311 39.6755 65.8144 39.6748 65.799 39.6693C65.7836 39.6638 65.7703 39.6537 65.7609 39.6403C65.7516 39.6269 65.7465 39.611 65.7466 39.5947C65.7466 39.2779 65.6512 38.7415 65.1022 38.8549C65.1022 38.8549 64.5784 38.5345 64.2706 39.2149C64.2629 39.2305 64.2504 39.2432 64.2349 39.2511C64.2195 39.2591 64.2019 39.2619 64.1847 39.259C64.1675 39.2562 64.1517 39.2479 64.1397 39.2354C64.1276 39.2229 64.1198 39.2069 64.1176 39.1897L64.0186 38.3491L64.33 38.1097C64.3654 38.0828 64.4059 38.0635 64.4491 38.0527C64.4922 38.042 64.5371 38.0401 64.581 38.0472C64.6249 38.0542 64.6669 38.0701 64.7045 38.0938C64.7421 38.1176 64.7745 38.1487 64.7998 38.1853Z" fill="#276EF1"/>
<path d="M65.0985 39.1987C65.0985 39.2272 65.0901 39.255 65.0743 39.2787C65.0585 39.3024 65.036 39.3208 65.0097 39.3317C64.9833 39.3426 64.9544 39.3455 64.9265 39.3399C64.8985 39.3344 64.8729 39.3206 64.8527 39.3005C64.8326 39.2804 64.8189 39.2547 64.8133 39.2268C64.8078 39.1988 64.8106 39.1699 64.8215 39.1436C64.8324 39.1173 64.8509 39.0948 64.8745 39.079C64.8982 39.0631 64.9261 39.0547 64.9545 39.0547C64.9735 39.0547 64.9922 39.0584 65.0097 39.0656C65.0271 39.0729 65.043 39.0835 65.0564 39.0969C65.0697 39.1102 65.0803 39.1261 65.0876 39.1436C65.0948 39.1611 65.0985 39.1798 65.0985 39.1987Z" fill="#263238"/>
<path d="M64.62 41.4858C64.62 41.5143 64.6116 41.5421 64.5958 41.5658C64.5799 41.5895 64.5574 41.6079 64.5311 41.6188C64.5048 41.6297 64.4759 41.6326 64.4479 41.627C64.42 41.6215 64.3943 41.6078 64.3742 41.5876C64.3541 41.5675 64.3404 41.5418 64.3348 41.5139C64.3292 41.486 64.3321 41.457 64.343 41.4307C64.3539 41.4044 64.3723 41.3819 64.396 41.3661C64.4197 41.3502 64.4476 41.3418 64.476 41.3418C64.5142 41.3418 64.5508 41.357 64.5779 41.384C64.6049 41.411 64.62 41.4476 64.62 41.4858Z" fill="#263238"/>
<path d="M64.3095 44.0366C64.3095 44.0748 64.2943 44.1114 64.2673 44.1384C64.2403 44.1654 64.2037 44.1806 64.1655 44.1806C64.1273 44.1806 64.0907 44.1654 64.0637 44.1384C64.0367 44.1114 64.0215 44.0748 64.0215 44.0366C64.0215 43.9984 64.0367 43.9618 64.0637 43.9348C64.0907 43.9077 64.1273 43.8926 64.1655 43.8926C64.2037 43.8926 64.2403 43.9077 64.2673 43.9348C64.2943 43.9618 64.3095 43.9984 64.3095 44.0366Z" fill="#263238"/>
<path d="M64.0219 46.7099C64.1015 46.7099 64.1659 46.6454 64.1659 46.5659C64.1659 46.4863 64.1015 46.4219 64.0219 46.4219C63.9424 46.4219 63.8779 46.4863 63.8779 46.5659C63.8779 46.6454 63.9424 46.7099 64.0219 46.7099Z" fill="#263238"/>
<path d="M61.0521 72.6748H62.3121C62.3388 72.6751 62.3647 72.6845 62.3853 72.7016C62.406 72.7186 62.4201 72.7422 62.4255 72.7684L62.8593 73.9816C62.87 74.032 62.8602 74.0845 62.8322 74.1277C62.8042 74.1709 62.7602 74.2012 62.7099 74.212H62.6685C62.1447 74.194 61.6785 74.1562 61.0269 74.1472C60.2565 74.1346 60.4509 74.2282 59.5455 74.2264C59.0055 74.2264 58.9119 73.6036 59.1423 73.5766C60.2025 73.4614 60.3177 73.1446 60.7335 72.772C60.8243 72.7019 60.9376 72.6674 61.0521 72.6748Z" fill="#263238"/>
<path d="M67.4632 72.6748H68.7232C68.75 72.6751 68.7758 72.6845 68.7965 72.7016C68.8171 72.7186 68.8313 72.7422 68.8366 72.7684L69.2704 73.9816C69.2811 74.032 69.2714 74.0845 69.2434 74.1277C69.2153 74.1709 69.1714 74.2012 69.121 74.212C69.1073 74.2138 69.0934 74.2138 69.0796 74.212C68.5558 74.194 68.0896 74.1562 67.438 74.1472C66.6694 74.1346 66.862 74.2282 65.9566 74.2264C65.4166 74.2264 65.323 73.6036 65.5534 73.5766C66.6154 73.4614 66.7306 73.1446 67.1446 72.772C67.2355 72.7019 67.3487 72.6674 67.4632 72.6748Z" fill="#263238"/>
<path d="M64.1483 36.6602C64.2516 36.7268 64.3719 36.7623 64.4948 36.7623C64.6177 36.7623 64.7381 36.7268 64.8413 36.6602C64.8413 36.6602 64.8089 37.1354 64.6811 37.1822C64.6397 37.1966 64.5335 37.0886 64.5335 37.0886C64.5335 37.0886 64.4633 37.3244 64.3967 37.3208C64.3301 37.3172 64.2725 37.0544 64.2725 37.0544C64.2725 37.0544 64.1897 37.1984 64.1483 37.1822C64.0277 37.1336 64.1483 36.6602 64.1483 36.6602Z" fill="#263238"/>
<path opacity="0.5" d="M64.1483 36.6602C64.2516 36.7268 64.3719 36.7623 64.4948 36.7623C64.6177 36.7623 64.7381 36.7268 64.8413 36.6602C64.8413 36.6602 64.8089 37.1354 64.6811 37.1822C64.6397 37.1966 64.5335 37.0886 64.5335 37.0886C64.5335 37.0886 64.4633 37.3244 64.3967 37.3208C64.3301 37.3172 64.2725 37.0544 64.2725 37.0544C64.2725 37.0544 64.1897 37.1984 64.1483 37.1822C64.0277 37.1336 64.1483 36.6602 64.1483 36.6602Z" fill="white"/>
<path d="M67.2534 56.8138L66.9258 73.1146H68.085C68.085 73.1146 70.2972 62.6026 69.6798 59.1772L71.5824 52.5586L67.68 52.9924L67.2534 56.8138Z" fill="#FFB573"/>
<path d="M71.7682 57.1064L73.6204 73.1642H74.7544C74.7544 73.1642 75.5104 62.4758 74.4754 59.153L74.56 52.502L71.167 52.9934L71.7682 57.1064Z" fill="#FFB573"/>
<path d="M67.0268 72.7725H68.2094C68.234 72.7728 68.2578 72.7815 68.2768 72.7973C68.2958 72.813 68.3089 72.8347 68.3138 72.8589L68.7206 73.9965C68.7259 74.0199 68.7264 74.0441 68.7221 74.0678C68.7179 74.0914 68.709 74.1139 68.6959 74.1341C68.6828 74.1542 68.6658 74.1715 68.646 74.185C68.6261 74.1984 68.6037 74.2078 68.5802 74.2125C68.5677 74.2142 68.5549 74.2142 68.5424 74.2125C68.051 74.1963 67.6154 74.1621 67.0034 74.1513C66.2834 74.1405 66.4634 74.2287 65.6156 74.2269C65.1044 74.2269 65.0216 73.6419 65.2376 73.6185C66.2312 73.5105 66.3392 73.2117 66.728 72.8643C66.8129 72.7979 66.9193 72.7652 67.0268 72.7725Z" fill="#276EF1"/>
<path d="M73.6548 72.7725H74.8374C74.8622 72.7727 74.8863 72.7814 74.9056 72.7971C74.9249 72.8128 74.9383 72.8346 74.9436 72.8589L75.3486 73.9965C75.3538 74.0199 75.3544 74.0442 75.3501 74.0678C75.3459 74.0914 75.3369 74.1139 75.3239 74.1341C75.3108 74.1542 75.2938 74.1715 75.2739 74.185C75.2541 74.1984 75.2317 74.2078 75.2082 74.2125C75.1956 74.2143 75.1829 74.2143 75.1704 74.2125C74.679 74.1963 74.2434 74.1621 73.6332 74.1513C72.9132 74.1405 73.0932 74.2287 72.2436 74.2269C71.7342 74.2269 71.6496 73.6419 71.8674 73.6185C72.861 73.5105 72.969 73.2117 73.3578 72.8643C73.4419 72.7979 73.5478 72.7652 73.6548 72.7725Z" fill="#276EF1"/>
<path d="M67.9191 47.4277C67.1361 51.6299 66.8144 55.9051 66.9597 60.1771C69.692 60.278 72.4279 60.1986 75.1497 59.9395C74.838 58.5349 74.7421 57.0909 74.8653 55.6573C75.1263 53.0203 74.5791 49.8973 72.9609 47.4277H67.9191Z" fill="#276EF1"/>
<path opacity="0.5" d="M67.9191 47.4277C67.1361 51.6299 66.8144 55.9051 66.9597 60.1771C69.692 60.278 72.4279 60.1986 75.1497 59.9395C74.838 58.5349 74.7421 57.0909 74.8653 55.6573C75.1263 53.0203 74.5791 49.8973 72.9609 47.4277H67.9191Z" fill="white"/>
<path d="M68.4251 40.293C68.4251 40.293 67.3883 40.9752 67.0265 43.4682C66.5873 46.5012 68.0309 45.4626 68.0309 45.4626L68.4251 40.293Z" fill="#FFB573"/>
<path d="M72.9844 34.8921C73.5244 35.2233 73.645 35.9829 73.681 36.4383C73.717 36.8937 73.2652 36.4383 73.627 37.2141C73.9888 37.9899 74.2228 38.6865 73.015 38.5821C72.0324 38.4837 71.0402 38.6017 70.108 38.9277C69.3358 39.1977 68.7778 38.8485 69.208 37.8765C69.6382 36.9045 69.028 36.2871 68.7328 35.9793C68.4376 35.6715 68.1352 34.5393 69.073 34.1991C70.0108 33.8589 69.118 33.4359 70.2628 33.2991C71.4076 33.1623 73.6792 33.6087 72.9844 34.8921Z" fill="#263238"/>
<path d="M70.3799 39.4805L71.7569 39.4409C71.6273 38.8397 71.7875 37.9811 71.9279 37.4609L70.5221 38.5103C70.5869 38.8631 70.5959 39.2267 70.3799 39.4805Z" fill="#FFB573"/>
<path opacity="0.2" d="M71.5897 37.9141L70.5205 38.5189C70.546 38.6476 70.5599 38.7783 70.5619 38.9095C70.8625 38.8789 71.5033 38.8105 71.5897 37.9141Z" fill="black"/>
<path d="M72.5907 35.9623C72.4107 37.1233 72.3711 37.6183 71.7303 38.1655C70.7655 38.9899 69.3777 38.5255 69.1995 37.3375C69.0393 36.2665 69.3471 34.5493 70.5279 34.1821C70.7883 34.0996 71.0654 34.0852 71.333 34.1402C71.6005 34.1952 71.8495 34.3177 72.0563 34.4962C72.2631 34.6746 72.4208 34.903 72.5143 35.1597C72.6078 35.4163 72.6341 35.6926 72.5907 35.9623Z" fill="#FFB573"/>
<path d="M72.787 36.9102C72.7458 37.0147 72.6844 37.1099 72.6062 37.1906C72.5281 37.2712 72.4347 37.3356 72.3316 37.38C72.0544 37.497 71.878 37.2594 71.923 36.9768C71.9626 36.7248 72.1552 36.3576 72.4504 36.3594C72.5143 36.3617 72.5766 36.3798 72.6318 36.4121C72.687 36.4443 72.7334 36.4898 72.7667 36.5443C72.8001 36.5989 72.8194 36.6609 72.8229 36.7247C72.8264 36.7885 72.8141 36.8523 72.787 36.9102Z" fill="#FFB573"/>
<path d="M71.8202 33.7533C72.0596 34.0791 71.6258 34.7757 70.5602 34.8333C69.7574 34.8729 68.8502 35.8395 68.8304 34.9035C68.7998 34.0503 70.76 33.4293 71.8202 33.7533Z" fill="#263238"/>
<path d="M71.2599 34.071C70.7541 34.5534 71.2059 35.2842 71.5083 35.6028C71.8107 35.9214 72.2571 36.2004 71.9961 36.7494C71.7351 37.2984 71.6721 38.7294 72.6567 38.3694C73.6413 38.0094 73.4127 36.3282 73.0329 35.5812C72.6531 34.8342 71.8629 33.4968 71.2599 34.071Z" fill="#263238"/>
<path d="M69.9912 36.2305C69.8881 36.44 69.7566 36.6345 69.6006 36.8083C69.6458 36.8474 69.6991 36.876 69.7566 36.8922C69.8142 36.9084 69.8746 36.9117 69.9336 36.9019L69.9912 36.2305Z" fill="#ED893E"/>
<path d="M71.2679 35.702C71.2756 35.7038 71.2836 35.7038 71.2913 35.702C71.3006 35.6943 71.3067 35.6833 71.3083 35.6713C71.31 35.6593 71.3071 35.6472 71.3003 35.6372C71.2494 35.5662 71.182 35.5087 71.1039 35.4695C71.0258 35.4303 70.9394 35.4107 70.8521 35.4122C70.84 35.4136 70.8289 35.4196 70.8212 35.429C70.8134 35.4384 70.8097 35.4505 70.8107 35.4626C70.8116 35.4747 70.8172 35.486 70.8263 35.494C70.8353 35.5021 70.8472 35.5063 70.8593 35.5058C70.9314 35.5058 71.0024 35.523 71.0666 35.5559C71.1307 35.5887 71.1861 35.6363 71.2283 35.6948C71.2339 35.699 71.2404 35.7018 71.2473 35.7031C71.2541 35.7043 71.2612 35.7039 71.2679 35.702Z" fill="#263238"/>
<path d="M69.2512 35.546H69.2746C69.3318 35.5025 69.3985 35.4733 69.4693 35.4608C69.54 35.4483 69.6127 35.4528 69.6814 35.474C69.6929 35.4783 69.7056 35.4781 69.7169 35.4735C69.7283 35.4688 69.7374 35.46 69.7426 35.4488C69.7466 35.4371 69.7458 35.4243 69.7404 35.4132C69.735 35.4021 69.7254 35.3935 69.7138 35.3894C69.6307 35.3629 69.5426 35.3565 69.4566 35.3705C69.3705 35.3846 69.289 35.4188 69.2188 35.4704C69.2085 35.4774 69.2015 35.4881 69.1991 35.5002C69.1967 35.5124 69.1993 35.525 69.2062 35.5352C69.2107 35.5429 69.2174 35.549 69.2254 35.5528C69.2334 35.5567 69.2424 35.5581 69.2512 35.5568V35.546Z" fill="#263238"/>
<path d="M70.6754 36.1315C70.6754 36.2251 70.6106 36.297 70.5476 36.2934C70.4846 36.2898 70.4414 36.207 70.4504 36.1134C70.4594 36.0198 70.517 35.9461 70.5782 35.9515C70.6394 35.9569 70.6826 36.0361 70.6754 36.1315Z" fill="#263238"/>
<path d="M69.6003 36.0395C69.6003 36.1331 69.5355 36.2051 69.4743 36.1997C69.4131 36.1943 69.3681 36.1151 69.3771 36.0197C69.3861 35.9243 69.4419 35.8523 69.5031 35.8577C69.5643 35.8631 69.6093 35.9423 69.6003 36.0395Z" fill="#263238"/>
<path d="M69.5308 35.8659L69.3076 35.7812C69.3076 35.7812 69.4102 35.9685 69.5308 35.8659Z" fill="#263238"/>
<path d="M70.6049 35.9576L70.3799 35.873C70.3799 35.873 70.4843 36.0602 70.6049 35.9576Z" fill="#263238"/>
<path d="M67.7578 47.7134C67.7578 47.7134 67.6606 46.4138 67.6984 44.6534C67.6984 44.3798 67.5742 44.0828 67.5742 43.451C67.5742 42.8192 67.7542 42.1298 67.7812 41.8634C67.8784 40.7366 68.0692 40.5584 68.4256 40.301C69.583 39.4586 73.0876 39.4658 73.4656 40.301C74.0488 41.579 72.8932 44.7722 73.273 47.7224C73.2748 47.7134 70.5154 48.3794 67.7578 47.7134Z" fill="#263238"/>
<path opacity="0.5" d="M73.5194 40.4434H72.9092C72.9092 40.4434 72.4952 41.176 73.3232 44.3944C73.5068 42.733 73.7894 41.2732 73.5194 40.4434Z" fill="black"/>
<path d="M70.3457 39.0175C70.869 39.078 71.3987 39.0518 71.9135 38.9401C71.938 38.934 71.9637 38.934 71.9882 38.9401C72.0127 38.9462 72.0354 38.9582 72.0542 38.9751C72.073 38.9919 72.0874 39.0132 72.0962 39.0369C72.1049 39.0606 72.1077 39.0861 72.1043 39.1111C72.0719 39.3505 72.0737 39.6907 72.3311 39.7465C71.928 39.9898 71.4687 40.1244 70.998 40.1374C70.5274 40.1503 70.0614 40.0411 69.6455 39.8203C69.6455 39.8203 70.2323 39.7159 70.1855 39.1975C70.1821 39.1748 70.1837 39.1516 70.1902 39.1295C70.1967 39.1075 70.2081 39.0871 70.2234 39.0699C70.2386 39.0527 70.2575 39.0391 70.2787 39.0301C70.2998 39.021 70.3227 39.0167 70.3457 39.0175Z" fill="#263238"/>
<path d="M67.7466 44.4591C68.4126 44.0307 69.0066 43.7103 69.0066 43.7103L69.4944 42.7275C69.512 42.6913 69.5402 42.6613 69.5752 42.6414C69.6102 42.6214 69.6504 42.6126 69.6906 42.6159L70.0164 42.6447C70.0675 42.6497 70.1146 42.6742 70.1482 42.7131C70.1817 42.752 70.1989 42.8023 70.1964 42.8535L70.1406 44.0487C70.1369 44.0912 70.1199 44.1314 70.0922 44.1637C70.0644 44.1959 70.0272 44.2187 69.9858 44.2287L69.291 44.3943C69.291 44.3943 67.7592 46.0431 67.3902 45.7749C66.8358 45.3807 67.2552 44.7759 67.7466 44.4591Z" fill="#FFB573"/>
<path opacity="0.1" d="M70.6303 52.9922L70.4287 60.2066C70.8859 60.1976 71.3737 60.1832 71.8867 60.1634L70.6303 52.9922Z" fill="black"/>
<path d="M73.0799 40.2172C73.5299 39.9472 74.4371 40.6618 74.8151 43.3852C75.1589 45.8746 74.4713 46.2076 73.4813 45.5092C72.8187 45.046 72.1293 44.6222 71.4167 44.2402L70.6715 44.098L70.1405 44.0566C70.0663 44.0504 69.9969 44.0171 69.9458 43.9629C69.8946 43.9088 69.8653 43.8377 69.8633 43.7632L69.8399 42.8632C69.839 42.821 69.847 42.7791 69.8633 42.7401C69.8796 42.7012 69.9039 42.6661 69.9346 42.6371C69.9653 42.6081 70.0017 42.5858 70.0415 42.5718C70.0813 42.5577 70.1236 42.5521 70.1657 42.5554L70.6715 42.5932L71.5229 43.4788L73.7999 44.3032C73.7999 44.3032 73.6649 42.9532 73.3301 42.2908C72.9737 41.5906 72.6569 40.4656 73.0799 40.2172Z" fill="#FFB573"/>
<path opacity="0.1" d="M70.0198 42.6445L69.7624 42.6211C69.7273 42.6555 69.6996 42.6967 69.681 42.7422C69.6624 42.7877 69.6534 42.8366 69.6544 42.8857L69.6814 43.9657C69.683 44.0273 69.7004 44.0874 69.7319 44.1404C69.7634 44.1933 69.808 44.2373 69.8614 44.2681L69.9874 44.2375C70.0288 44.2275 70.066 44.2047 70.0938 44.1724C70.1215 44.1401 70.1385 44.0999 70.1422 44.0575L70.198 42.8623C70.203 42.8098 70.1871 42.7575 70.1537 42.7167C70.1203 42.6759 70.0722 42.65 70.0198 42.6445Z" fill="black"/>
<path d="M73.0799 40.2172C73.5299 39.9472 74.4371 40.6618 74.8151 43.3852C75.1589 45.8746 74.4713 46.2076 73.4813 45.5092C72.8187 45.046 72.1293 44.6222 71.4167 44.2402L70.6715 44.098L70.1405 44.0566C70.0663 44.0504 69.9969 44.0171 69.9458 43.9629C69.8946 43.9088 69.8653 43.8377 69.8633 43.7632L69.8399 42.8632C69.839 42.821 69.847 42.7791 69.8633 42.7401C69.8796 42.7012 69.9039 42.6661 69.9346 42.6371C69.9653 42.6081 70.0017 42.5858 70.0415 42.5718C70.0813 42.5577 70.1236 42.5521 70.1657 42.5554L70.6715 42.5932L71.5229 43.4788L73.7999 44.3032C73.7999 44.3032 73.6649 42.9532 73.3301 42.2908C72.9737 41.5906 72.6569 40.4656 73.0799 40.2172Z" fill="#FFB573"/>
<path d="M71.2968 34.5586C71.2968 34.5586 70.5768 35.4586 70.0044 35.2318C69.432 35.005 70.3212 35.2066 71.2968 34.5586Z" fill="#263238"/>
<path d="M70.1592 37.4573C70.1043 37.4571 70.0495 37.4522 69.9954 37.4429C69.988 37.4416 69.9815 37.4375 69.9771 37.4314C69.9728 37.4254 69.9709 37.4179 69.972 37.4105C69.9733 37.4032 69.9774 37.3966 69.9834 37.3923C69.9895 37.3879 69.997 37.3861 70.0044 37.3871C70.1231 37.4117 70.246 37.4082 70.3632 37.377C70.4803 37.3457 70.5886 37.2876 70.6794 37.2071C70.6847 37.202 70.6918 37.1992 70.6992 37.1992C70.7065 37.1992 70.7136 37.202 70.719 37.2071C70.7217 37.2098 70.724 37.213 70.7255 37.2166C70.727 37.2201 70.7277 37.2239 70.7277 37.2278C70.7277 37.2317 70.727 37.2355 70.7255 37.239C70.724 37.2426 70.7217 37.2458 70.719 37.2485C70.5657 37.3867 70.3655 37.4614 70.1592 37.4573Z" fill="#263238"/>
<path opacity="0.6" d="M70.083 39.8864C70.6946 40.0489 71.3418 40.0155 71.9334 39.791C71.9334 39.791 70.3422 40.7738 70.083 39.8864Z" fill="black"/>
</svg>
