<svg width="91" height="90" viewBox="0 0 91 90" fill="none" xmlns="http://www.w3.org/2000/svg">
<g clip-path="url(#clip0_1986_22972)">
<path d="M81.4821 71.7285H75.5205V71.7735H81.4821V71.7285Z" fill="#EBEBEB"/>
<path d="M60.1199 72.2188H58.5557V72.2638H60.1199V72.2188Z" fill="#EBEBEB"/>
<path d="M75.3399 70.0586H71.8857V70.1036H75.3399V70.0586Z" fill="#EBEBEB"/>
<path d="M17.7166 70.3613H9.94238V70.4063H17.7166V70.3613Z" fill="#EBEBEB"/>
<path d="M20.4597 70.3613H19.3203V70.4063H20.4597V70.3613Z" fill="#EBEBEB"/>
<path d="M41.0274 71.1211H24.165V71.1661H41.0274V71.1211Z" fill="#EBEBEB"/>
<path d="M43.4118 60.8044H8.65378C8.38119 60.8044 8.11976 60.6961 7.92701 60.5034C7.73426 60.3106 7.62598 60.0492 7.62598 59.7766V10.9192C7.62835 10.6482 7.73768 10.389 7.93018 10.1982C8.12267 10.0074 8.38274 9.90038 8.65378 9.90039H43.4118C43.5467 9.90039 43.6804 9.92698 43.8051 9.97863C43.9298 10.0303 44.0431 10.106 44.1385 10.2014C44.234 10.2969 44.3097 10.4102 44.3613 10.5349C44.413 10.6596 44.4396 10.7932 44.4396 10.9282V59.7766C44.4396 59.9116 44.413 60.0452 44.3613 60.1699C44.3097 60.2946 44.234 60.4079 44.1385 60.5034C44.0431 60.5988 43.9298 60.6745 43.8051 60.7262C43.6804 60.7778 43.5467 60.8044 43.4118 60.8044ZM8.65378 9.93639C8.39327 9.93687 8.14357 10.0406 7.95936 10.2248C7.77515 10.409 7.67145 10.6587 7.67098 10.9192V59.7766C7.67145 60.0371 7.77515 60.2868 7.95936 60.471C8.14357 60.6552 8.39327 60.7589 8.65378 60.7594H43.4118C43.6723 60.7589 43.922 60.6552 44.1062 60.471C44.2904 60.2868 44.3941 60.0371 44.3946 59.7766V10.9192C44.3941 10.6587 44.2904 10.409 44.1062 10.2248C43.922 10.0406 43.6723 9.93687 43.4118 9.93639H8.65378Z" fill="#EBEBEB"/>
<path d="M82.3464 60.8044H47.5883C47.3158 60.8044 47.0543 60.6961 46.8616 60.5034C46.6688 60.3106 46.5605 60.0492 46.5605 59.7766V10.9192C46.5629 10.6482 46.6723 10.389 46.8647 10.1982C47.0572 10.0074 47.3173 9.90038 47.5883 9.90039H82.3464C82.6189 9.90039 82.8804 10.0087 83.0731 10.2014C83.2659 10.3942 83.3741 10.6556 83.3741 10.9282V59.7766C83.3741 60.0492 83.2659 60.3106 83.0731 60.5034C82.8804 60.6961 82.6189 60.8044 82.3464 60.8044ZM47.5883 9.93639C47.3278 9.93687 47.0781 10.0406 46.8939 10.2248C46.7097 10.409 46.606 10.6587 46.6055 10.9192V59.7766C46.606 60.0371 46.7097 60.2868 46.8939 60.471C47.0781 60.6552 47.3278 60.7589 47.5883 60.7594H82.3464C82.6069 60.7589 82.8566 60.6552 83.0408 60.471C83.225 60.2868 83.3287 60.0371 83.3291 59.7766V10.9192C83.3287 10.6587 83.225 10.409 83.0408 10.2248C82.8566 10.0406 82.6069 9.93687 82.3464 9.93639H47.5883Z" fill="#EBEBEB"/>
<path d="M90.5 68.832H0.5V68.877H90.5V68.832Z" fill="#EBEBEB"/>
<path d="M73.552 35.6323L72.124 20.0918L51.3406 22.0015L52.7686 37.5421L73.552 35.6323Z" fill="#E6E6E6"/>
<path opacity="0.9" d="M71.0324 21.4052L52.6562 23.0938L53.863 36.227L72.2392 34.5385L71.0324 21.4052Z" fill="#FAFAFA"/>
<path d="M62.5817 23.8373L62.6897 25.0271L55.5527 25.6841L55.9127 29.6081L56.2997 33.7355L59.7809 33.4151L65.3717 32.9021L65.6291 32.8769L69.4991 32.5169L69.4397 31.8599L68.4173 31.9535C68.4254 31.7197 68.5109 31.4952 68.6605 31.3153C68.81 31.1355 69.0151 31.0104 69.2435 30.9599L69.3551 30.9347L69.1211 28.3985L68.4317 28.4615L67.9619 23.3477L62.5817 23.8373ZM56.5265 33.4529L56.1935 29.8421L56.9927 29.7683C57.0829 30.0538 57.2678 30.3 57.5169 30.4663C57.7659 30.6325 58.0642 30.7089 58.3625 30.6827L58.4921 30.6719L58.3967 29.6387L59.1599 29.5703L59.4929 33.1811L56.5265 33.4529ZM59.7503 33.1577L59.3903 29.2877L58.1105 29.4047L58.2041 30.4289C57.9702 30.4204 57.7457 30.3345 57.5658 30.1846C57.386 30.0348 57.261 29.8294 57.2105 29.6009L57.1853 29.4911L56.1647 29.5847L55.8335 25.9199L62.7131 25.2881L63.0731 29.2121L63.6599 29.1581L64.5851 29.0735L65.0081 29.0339L65.3393 32.6447L59.7503 33.1577ZM63.6383 28.8971L63.5663 28.1177C63.7769 28.1255 63.9803 28.1961 64.1504 28.3206C64.3204 28.4451 64.4493 28.6177 64.5203 28.8161L63.6383 28.8971ZM68.8781 28.6757L69.0671 30.7331C68.7818 30.8233 68.5357 31.0083 68.3698 31.2574C68.2038 31.5065 68.1279 31.8047 68.1545 32.1029L68.1653 32.2325L69.1967 32.1371L69.2093 32.2883L65.5985 32.6195L65.2673 29.0087L68.4461 28.7153L68.8781 28.6757ZM67.7189 23.6249L68.1653 28.4849L65.2439 28.7549L64.9847 28.7783L64.7867 28.7963C64.6997 28.507 64.5155 28.2567 64.2653 28.0875C64.0151 27.9183 63.7142 27.8406 63.4133 27.8675L63.2837 27.8783L63.3791 28.9259H63.3089L62.9489 25.0019L62.8625 24.0695L67.7189 23.6249Z" fill="#E0E0E0"/>
<path d="M33.4633 36.8397L36.5693 21.2246L15.688 17.0711L12.582 32.6861L33.4633 36.8397Z" fill="#E6E6E6"/>
<path opacity="0.9" d="M16.6572 18.5203L14.0322 31.7168L32.4949 35.3893L35.1199 22.1928L16.6572 18.5203Z" fill="#FAFAFA"/>
<path d="M26.1501 22.123L25.9125 23.3182L18.7395 21.8926L17.9601 25.8346L17.1357 29.9746L20.6349 30.6712L26.2527 31.7872L26.5119 31.8394L30.3981 32.6116L30.5313 31.942L29.5035 31.7386C29.5797 31.5126 29.7286 31.3181 29.9269 31.1856C30.1252 31.0531 30.3618 30.9899 30.5997 31.006H30.7167L31.2225 28.459L30.5313 28.3204L31.5519 23.1814L26.1501 22.123ZM17.4417 29.7748L18.1617 26.146L18.9645 26.3044C18.9698 26.6108 19.0798 26.9061 19.2763 27.1413C19.4728 27.3764 19.744 27.5372 20.0445 27.5968L20.1741 27.622L20.3811 26.5852L21.1479 26.7382L20.4279 30.367L17.4417 29.7748ZM20.6817 30.4192L21.4539 26.5312L20.1687 26.281L19.9653 27.3088C19.7393 27.2326 19.5449 27.0837 19.4124 26.8854C19.2798 26.6871 19.2167 26.4505 19.2327 26.2126V26.0956L18.2067 25.8922L18.9411 22.2076L25.8531 23.5828L25.0683 27.5266L25.6587 27.6436L26.5875 27.8236L27.0123 27.9064L26.2923 31.5352L20.6817 30.4192ZM25.7217 27.379L25.8765 26.5942C26.0802 26.6634 26.2586 26.7919 26.3888 26.9631C26.519 27.1344 26.5951 27.3406 26.6073 27.5554L25.7217 27.379ZM30.9111 28.6804L30.5007 30.7468C30.1947 30.7524 29.8997 30.8627 29.6649 31.0591C29.4302 31.2556 29.2697 31.5265 29.2101 31.8268L29.1831 31.9564L30.2199 32.1634L30.1893 32.3146L26.5605 31.5946L27.2805 27.9658L30.4755 28.6012L30.9111 28.6804ZM31.2369 23.401L30.2667 28.2808L27.3309 27.6958L27.0717 27.6454L26.8719 27.6058C26.8706 27.2967 26.7623 26.9976 26.5655 26.7594C26.3686 26.5212 26.0952 26.3585 25.7919 26.299L25.6623 26.272L25.4535 27.3232L25.3815 27.3088L26.1663 23.3668L26.3463 22.4308L31.2369 23.401Z" fill="#E0E0E0"/>
<path d="M54.3411 19.2608H52.5807C52.0895 19.2608 51.6184 19.0657 51.271 18.7183C50.9237 18.3709 50.7285 17.8998 50.7285 17.4086V15.6608C50.7285 15.1696 50.9237 14.6984 51.271 14.3511C51.6184 14.0037 52.0895 13.8086 52.5807 13.8086H54.3411C54.8322 13.8091 55.303 14.0044 55.6503 14.3516C55.9975 14.6989 56.1928 15.1697 56.1933 15.6608V17.4212C56.1895 17.9101 55.9928 18.3777 55.6459 18.7222C55.299 19.0668 54.83 19.2603 54.3411 19.2608ZM52.5807 14.336C52.4074 14.3362 52.2358 14.3707 52.0759 14.4376C51.916 14.5044 51.7709 14.6022 51.6489 14.7253C51.5269 14.8484 51.4305 14.9945 51.3653 15.155C51.3 15.3156 51.2671 15.4875 51.2685 15.6608V17.4212C51.269 17.7691 51.4074 18.1026 51.6534 18.3485C51.8994 18.5945 52.2328 18.7329 52.5807 18.7334H54.3411C54.689 18.7329 55.0225 18.5945 55.2685 18.3485C55.5144 18.1026 55.6528 17.7691 55.6533 17.4212V15.6608C55.6528 15.3129 55.5144 14.9794 55.2685 14.7335C55.0225 14.4875 54.689 14.3491 54.3411 14.3486L52.5807 14.336Z" fill="#F0F0F0"/>
<path d="M52.7289 17.6762L50.1621 15.1094L50.9271 14.3462L52.7289 16.1498L55.9959 12.8828L56.7591 13.646L52.7289 17.6762Z" fill="#E0E0E0"/>
<path d="M16.5483 42.8404H15.1929C15.0043 42.8405 14.8176 42.8031 14.6435 42.7306C14.4694 42.6581 14.3113 42.5519 14.1785 42.418C14.0456 42.2842 13.9406 42.1253 13.8694 41.9507C13.7982 41.776 13.7623 41.589 13.7637 41.4004V40.0504C13.7642 39.6717 13.915 39.3086 14.183 39.041C14.4509 38.7734 14.8142 38.623 15.1929 38.623H16.5483C16.9267 38.6235 17.2895 38.7741 17.5571 39.0416C17.8247 39.3092 17.9752 39.672 17.9757 40.0504V41.4004C17.9771 41.5889 17.9413 41.7757 17.8702 41.9503C17.7991 42.1248 17.6942 42.2836 17.5616 42.4174C17.4289 42.5512 17.2711 42.6575 17.0972 42.7301C16.9233 42.8027 16.7368 42.8402 16.5483 42.8404ZM15.1929 39.0442C14.9254 39.0442 14.6687 39.15 14.4789 39.3385C14.289 39.527 14.1814 39.7829 14.1795 40.0504V41.4004C14.18 41.6689 14.287 41.9262 14.477 42.1159C14.667 42.3055 14.9245 42.412 15.1929 42.412H16.5483C16.8166 42.412 17.0739 42.3055 17.2636 42.1158C17.4533 41.926 17.5599 41.6687 17.5599 41.4004V40.0504C17.5599 39.9176 17.5337 39.7861 17.4829 39.6633C17.4321 39.5406 17.3576 39.4291 17.2636 39.3351C17.1697 39.2412 17.0582 39.1667 16.9354 39.1158C16.8127 39.065 16.6812 39.0388 16.5483 39.0388L15.1929 39.0442Z" fill="#F0F0F0"/>
<path d="M15.3063 41.6096L13.3281 39.6332L13.9167 39.0446L15.3063 40.4342L17.8227 37.916L18.4113 38.5046L15.3063 41.6096Z" fill="#E0E0E0"/>
<path d="M78.0795 53.88H76.7223C76.3439 53.8795 75.9811 53.729 75.7135 53.4614C75.4459 53.1938 75.2954 52.831 75.2949 52.4526V51.0954C75.2954 50.7169 75.4459 50.3542 75.7135 50.0866C75.9811 49.819 76.3439 49.6684 76.7223 49.668H78.0795C78.4579 49.6684 78.8207 49.819 79.0883 50.0866C79.3559 50.3542 79.5064 50.7169 79.5069 51.0954V52.4526C79.5064 52.831 79.3559 53.1938 79.0883 53.4614C78.8207 53.729 78.4579 53.8795 78.0795 53.88ZM76.7223 50.0838C76.454 50.0838 76.1967 50.1903 76.007 50.3801C75.8173 50.5698 75.7107 50.8271 75.7107 51.0954V52.4526C75.7107 52.5854 75.7369 52.717 75.7877 52.8397C75.8386 52.9624 75.9131 53.0739 76.007 53.1679C76.1009 53.2618 76.2125 53.3363 76.3352 53.3872C76.4579 53.438 76.5895 53.4642 76.7223 53.4642H78.0795C78.2124 53.4642 78.3439 53.438 78.4666 53.3872C78.5894 53.3363 78.7009 53.2618 78.7948 53.1679C78.8888 53.0739 78.9633 52.9624 79.0141 52.8397C79.065 52.717 79.0911 52.5854 79.0911 52.4526V51.0954C79.0911 50.8271 78.9845 50.5698 78.7948 50.3801C78.6051 50.1903 78.3478 50.0838 78.0795 50.0838H76.7223Z" fill="#F0F0F0"/>
<path d="M76.8376 52.6545L74.8594 50.6781L75.448 50.0895L76.8376 51.4791L79.354 48.9609L79.9426 49.5495L76.8376 52.6545Z" fill="#E0E0E0"/>
<path d="M45.4998 76.2686C64.7747 76.2686 80.4 75.3563 80.4 74.231C80.4 73.1056 64.7747 72.1934 45.4998 72.1934C26.225 72.1934 10.5996 73.1056 10.5996 74.231C10.5996 75.3563 26.225 76.2686 45.4998 76.2686Z" fill="#F5F5F5"/>
<path d="M63.0393 35.9986C63.296 35.3147 63.6072 34.6526 63.9699 34.0186C64.1409 33.7054 64.3299 33.403 64.5099 33.1024C64.6899 32.8018 64.8879 32.5102 65.1039 32.2024C65.2401 32.0164 65.4434 31.8908 65.6706 31.8523C65.8979 31.8138 66.1312 31.8654 66.321 31.9961C66.5108 32.1269 66.6421 32.3265 66.6871 32.5526C66.7321 32.7786 66.6872 33.0133 66.5619 33.2068V33.2176C66.3819 33.4804 66.2019 33.7576 66.0219 34.0456C65.8419 34.3336 65.6781 34.6108 65.5107 34.8952C65.1815 35.447 64.8881 36.0194 64.6323 36.6088C64.5603 36.7888 64.4973 36.958 64.4523 37.1218H62.7441C62.8064 36.7388 62.9052 36.3627 63.0393 35.9986Z" fill="#B55B52"/>
<path d="M66.5295 30.3166C64.8087 30.6982 63.3525 34.408 63.3525 34.408L65.3325 35.533C65.9186 34.9044 66.4043 34.1892 66.7725 33.4126C67.2045 32.491 68.0631 29.9764 66.5295 30.3166Z" fill="#407BFF"/>
<path opacity="0.2" d="M67.1613 32.3992C67.0541 32.7446 66.9243 33.0825 66.7725 33.4108C66.4043 34.1874 65.9186 34.9025 65.3325 35.5312L64.9023 35.2792C65.5845 34.0408 65.5773 32.4586 65.5773 32.4586L67.0605 32.2012L67.1613 32.3992Z" fill="black"/>
<path d="M65.0216 43.5996L65.128 43.6182C65.2066 43.6319 65.2764 43.6763 65.3223 43.7415C65.3681 43.8068 65.3861 43.8875 65.3724 43.9661L64.7445 47.5602C64.7308 47.6387 64.6864 47.7086 64.6212 47.7544C64.5559 47.8003 64.4752 47.8183 64.3966 47.8046L64.3807 47.8018C64.2499 47.779 64.1336 47.7051 64.0573 47.5965C63.9811 47.4879 63.951 47.3535 63.9739 47.2228L64.5482 43.9353C64.5669 43.8283 64.6271 43.7329 64.7158 43.67C64.8045 43.6072 64.9144 43.5818 65.0216 43.5996Z" fill="#263238"/>
<path opacity="0.1" d="M65.0216 43.5996L65.128 43.6182C65.2066 43.6319 65.2764 43.6763 65.3223 43.7415C65.3681 43.8068 65.3861 43.8875 65.3724 43.9661L64.7445 47.5602C64.7308 47.6387 64.6864 47.7086 64.6212 47.7544C64.5559 47.8003 64.4752 47.8183 64.3966 47.8046L64.3807 47.8018C64.2499 47.779 64.1336 47.7051 64.0573 47.5965C63.9811 47.4879 63.951 47.3535 63.9739 47.2228L64.5482 43.9353C64.5669 43.8283 64.6271 43.7329 64.7158 43.67C64.8045 43.6072 64.9144 43.5818 65.0216 43.5996Z" fill="white"/>
<path d="M65.1741 72.9577L63.8313 72.9415L63.7197 69.8203L65.4927 69.8491L65.1741 72.9577Z" fill="#B55B52"/>
<path opacity="0.2" d="M63.7197 69.8223L63.7845 71.6457L65.3073 71.6655L65.4945 69.8493L63.7197 69.8223Z" fill="black"/>
<path d="M63.8029 72.4844L65.2681 72.5078C65.2938 72.5077 65.3186 72.5172 65.3376 72.5346C65.3566 72.5519 65.3684 72.5758 65.3707 72.6014L65.4967 73.7984C65.4989 73.8287 65.4948 73.8592 65.4847 73.8878C65.4746 73.9165 65.4586 73.9427 65.4378 73.9649C65.4169 73.9871 65.3918 74.0047 65.3638 74.0166C65.3358 74.0285 65.3057 74.0345 65.2753 74.0342C64.7479 74.018 63.9883 73.9748 63.3241 73.964C62.5483 73.9514 62.6239 73.9838 61.7131 73.964C61.1623 73.955 61.0759 73.3952 61.3117 73.3484C62.3917 73.136 62.4961 73.1252 63.4717 72.5798C63.572 72.5199 63.6861 72.4871 63.8029 72.4844Z" fill="#263238"/>
<path d="M63.5599 72.6062C63.5653 72.6041 63.5702 72.6008 63.574 72.5963C63.5777 72.5919 63.5803 72.5866 63.5815 72.581C63.5822 72.5743 63.5811 72.5676 63.5783 72.5616C63.5754 72.5555 63.5709 72.5504 63.5653 72.5468C63.5041 72.5144 62.9695 72.2336 62.8057 72.3218C62.7901 72.3295 62.7769 72.3412 62.7674 72.3558C62.7579 72.3703 62.7525 72.3872 62.7517 72.4046C62.7477 72.4332 62.7507 72.4624 62.7604 72.4897C62.7702 72.5169 62.7863 72.5415 62.8075 72.5612C62.9533 72.6926 63.3475 72.6458 63.5563 72.6062H63.5599ZM62.8399 72.3722C62.9407 72.338 63.2323 72.455 63.4429 72.5522C63.1459 72.5972 62.9245 72.581 62.8435 72.5072C62.8292 72.4942 62.8185 72.4778 62.8122 72.4595C62.8059 72.4413 62.8043 72.4218 62.8075 72.4027C62.8077 72.3961 62.8096 72.3896 62.813 72.3839C62.8165 72.3782 62.8214 72.3735 62.8273 72.3704L62.8399 72.3722Z" fill="#407BFF"/>
<path d="M63.56 72.6058C63.5647 72.6031 63.5686 72.5992 63.5711 72.5944C63.5737 72.5896 63.5748 72.5842 63.5744 72.5788C63.5744 72.5626 63.5438 72.2008 63.3764 72.0568C63.352 72.0354 63.3234 72.0193 63.2924 72.0094C63.2615 71.9994 63.2288 71.996 63.1964 71.9992C63.1082 71.9992 63.083 72.0514 63.0758 72.0874C63.0488 72.2386 63.3656 72.5338 63.5258 72.6094C63.5314 72.6117 63.5374 72.6126 63.5434 72.612C63.5494 72.6113 63.5551 72.6092 63.56 72.6058ZM63.1802 72.0658C63.191 72.0645 63.2019 72.0645 63.2126 72.0658C63.2359 72.0631 63.2595 72.0655 63.2819 72.0726C63.3042 72.0797 63.3248 72.0915 63.3422 72.1072C63.4398 72.226 63.4988 72.3717 63.5114 72.5248C63.3476 72.4222 63.1334 72.1918 63.1514 72.1C63.1514 72.0874 63.1532 72.073 63.1802 72.064V72.0658Z" fill="#407BFF"/>
<path d="M66.7023 58.1619C68.6985 51.3075 70.5597 46.5447 70.1223 43.1445L65.3847 43.2003C65.3847 43.2003 62.8755 54.3135 63.0627 58.3347C63.2571 62.5161 63.5037 70.4613 63.5037 70.4613L65.6637 70.4919C65.6637 70.4919 67.2639 62.8329 66.7023 58.1619Z" fill="#263238"/>
<path opacity="0.2" d="M67.5052 55.3989C68.5636 51.9033 69.5122 49.4733 70.0594 47.4375C66.9202 48.5445 66.9832 52.3785 67.5052 55.3989Z" fill="black"/>
<path d="M63.1982 69.9805L63.3296 70.9075L65.7056 70.9489L65.8478 70.0741L63.1982 69.9805Z" fill="#263238"/>
<path opacity="0.3" d="M63.1982 69.9805L63.3296 70.9075L65.7056 70.9489L65.8478 70.0741L63.1982 69.9805Z" fill="black"/>
<path d="M74.3348 72.9577L72.9884 72.9415L72.29 69.8203L74.018 69.8473L74.3348 72.9577Z" fill="#B55B52"/>
<path opacity="0.2" d="M72.29 69.8223L72.695 71.6241L74.2016 71.6439L74.0198 69.8493L72.29 69.8223Z" fill="black"/>
<path d="M72.8871 72.6676L74.3506 72.6388C74.3765 72.6376 74.402 72.6462 74.422 72.6629C74.4419 72.6795 74.455 72.703 74.4586 72.7288L74.6278 73.9204C74.6313 73.9504 74.6285 73.9809 74.6196 74.0098C74.6107 74.0387 74.5958 74.0654 74.576 74.0883C74.5562 74.1112 74.5318 74.1296 74.5045 74.1426C74.4771 74.1555 74.4474 74.1626 74.4171 74.1634C73.8897 74.1634 73.7224 74.1292 73.0582 74.1418C72.2824 74.158 72.6406 74.176 71.7316 74.1958C71.1808 74.2066 71.0727 73.6558 71.3067 73.5946C72.0465 73.4146 72.2302 73.1086 72.556 72.7792C72.6479 72.7008 72.7665 72.6608 72.8871 72.6676Z" fill="#263238"/>
<path d="M73.1558 72.7577C73.1615 72.7576 73.1672 72.7561 73.1723 72.7533C73.1773 72.7505 73.1815 72.7464 73.1846 72.7415C73.1881 72.7358 73.1899 72.7293 73.1899 72.7226C73.1899 72.7159 73.1881 72.7094 73.1846 72.7037C73.1378 72.6551 72.7148 72.2213 72.5312 72.2537C72.5141 72.257 72.4981 72.2645 72.4846 72.2755C72.4711 72.2865 72.4605 72.3006 72.4538 72.3167C72.4405 72.3423 72.4336 72.3707 72.4336 72.3995C72.4336 72.4283 72.4405 72.4567 72.4538 72.4823C72.5492 72.6533 72.9308 72.7289 73.1504 72.7577H73.1558ZM72.5492 72.3149C72.6572 72.3149 72.8984 72.5147 73.0658 72.6749C72.7688 72.6263 72.5654 72.5417 72.5096 72.4463C72.5007 72.4293 72.4961 72.4105 72.4961 72.3914C72.4961 72.3723 72.5007 72.3534 72.5096 72.3365C72.5111 72.3298 72.5147 72.3237 72.5198 72.3192C72.525 72.3146 72.5315 72.3119 72.5384 72.3113L72.5492 72.3149Z" fill="#407BFF"/>
<path d="M73.1553 72.7581H73.1643C73.1696 72.7571 73.1746 72.7545 73.1784 72.7507C73.1823 72.7468 73.1849 72.7419 73.1859 72.7365C73.1859 72.7203 73.2741 72.3765 73.1571 72.1785C73.1413 72.1509 73.1198 72.127 73.094 72.1084C73.0683 72.0897 73.0388 72.0768 73.0077 72.0705C72.9231 72.0507 72.8835 72.0831 72.8673 72.1155C72.7953 72.2523 73.0041 72.6303 73.1337 72.7509C73.1365 72.7536 73.1399 72.7556 73.1437 72.7569C73.1474 72.7581 73.1514 72.7586 73.1553 72.7581ZM72.9609 72.1263C72.9716 72.1247 72.9825 72.1247 72.9933 72.1263C73.0391 72.1378 73.0785 72.1669 73.1031 72.2073C73.1604 72.3497 73.1718 72.5064 73.1355 72.6555C73.0113 72.5079 72.8799 72.2217 72.9231 72.1407C72.9273 72.135 72.9332 72.1306 72.9399 72.128C72.9466 72.1255 72.9538 72.1249 72.9609 72.1263Z" fill="#407BFF"/>
<path d="M72.8032 58.3781C73.5394 51.5219 74.1478 46.4693 73.084 43.0781L68.1484 43.2095C68.1484 43.2095 68.269 54.5387 69.196 58.5599C70.159 62.7413 72.1534 70.4705 72.1534 70.4705L74.3134 70.5011C74.3134 70.5011 74.2252 63.0473 72.8032 58.3781Z" fill="#263238"/>
<path d="M71.8359 69.9805L71.9781 70.9075L74.4063 70.9489L74.5431 70.0741L71.8359 69.9805Z" fill="#263238"/>
<path opacity="0.3" d="M71.8359 69.9805L71.9781 70.9075L74.4063 70.9489L74.5431 70.0741L71.8359 69.9805Z" fill="black"/>
<path d="M67.221 30.1098C68.73 29.9488 70.2543 30.0033 71.748 30.2718C72.1524 30.3364 72.5256 30.5284 72.8134 30.8197C73.1012 31.1111 73.2886 31.4867 73.3482 31.8918C73.6272 33.8124 74.0682 37.5942 73.2744 43.4946C72.5634 43.7196 70.47 43.7034 68.805 43.5846C68.625 43.5702 68.1822 43.149 68.1822 43.149C68.1822 43.149 67.7826 43.4928 67.5522 43.4658C66.4506 43.3326 65.5722 43.1436 65.3688 42.9258C64.9188 41.8458 64.6362 39.135 65.8332 36.7032C65.8458 35.247 65.5578 33.6072 65.5326 32.043C65.5248 31.569 65.6931 31.1089 66.005 30.7518C66.3169 30.3946 66.7502 30.1659 67.221 30.1098Z" fill="#407BFF"/>
<path d="M69.7679 27.625C69.9011 28.624 70.1045 29.785 70.8101 30.3502C70.6626 30.7379 70.4042 31.0735 70.0671 31.3152C69.73 31.5568 69.3292 31.6939 68.9147 31.7092C67.8455 31.765 68.0147 30.9118 68.1947 30.46C68.6483 29.9506 68.4305 29.38 68.3153 28.9786L69.7679 27.625Z" fill="#B55B52"/>
<path opacity="0.2" d="M69.4732 28.1128C69.4732 28.0498 69.4552 27.9868 69.4462 27.9238L68.3086 28.9786C68.4101 29.2516 68.4613 29.5406 68.4598 29.8318C69.0232 29.4556 69.5416 28.7194 69.4732 28.1128Z" fill="black"/>
<path d="M70.1429 26.1738C69.9737 27.495 69.9431 28.278 69.2285 28.908C68.1485 29.8584 66.5537 29.1276 66.3233 27.7812C66.1163 26.568 66.4259 24.6114 67.7633 24.1812C68.0583 24.0867 68.3724 24.0685 68.6764 24.1281C68.9804 24.1877 69.2644 24.3232 69.5019 24.5221C69.7394 24.721 69.9227 24.9767 70.0348 25.2655C70.1469 25.5543 70.184 25.8668 70.1429 26.1738Z" fill="#B55B52"/>
<path d="M68.0276 26.9214C68.0276 27.0294 67.9574 27.1122 67.8854 27.1014C67.8134 27.0906 67.763 27.006 67.7702 26.898C67.7774 26.79 67.8404 26.7054 67.9124 26.718C67.9844 26.7306 68.033 26.8188 68.0276 26.9214Z" fill="#263238"/>
<path d="M66.6752 26.8644C66.6752 26.9724 66.605 27.0552 66.5348 27.0444C66.4646 27.0336 66.4124 26.9472 66.4196 26.8392C66.4268 26.7312 66.4898 26.6484 66.56 26.6592C66.6302 26.67 66.6824 26.7564 66.6752 26.8644Z" fill="#263238"/>
<path d="M68.3984 26.9532H67.3994C67.3605 26.953 67.3229 26.9673 67.294 26.9932C67.265 27.0192 67.2468 27.055 67.2428 27.0936C67.1943 27.0721 67.1419 27.061 67.0889 27.061C67.0358 27.061 66.9834 27.0721 66.935 27.0936C66.9301 27.0554 66.9116 27.0203 66.8828 26.9948C66.854 26.9693 66.8168 26.9552 66.7784 26.955H66.0206C65.9781 26.955 65.9373 26.9719 65.9073 27.0019C65.8772 27.032 65.8604 27.0727 65.8604 27.1152V27.5778C65.8604 27.6203 65.8772 27.6611 65.9073 27.6911C65.9373 27.7211 65.9781 27.738 66.0206 27.738H66.7838C66.8262 27.738 66.867 27.7211 66.897 27.6911C66.9271 27.6611 66.944 27.6203 66.944 27.5778V27.1998C66.989 27.1715 67.0411 27.1565 67.0943 27.1565C67.1474 27.1565 67.1995 27.1715 67.2446 27.1998V27.5814C67.2446 27.6239 67.2614 27.6647 67.2915 27.6947C67.3215 27.7247 67.3623 27.7416 67.4048 27.7416H68.4038C68.4462 27.7416 68.487 27.7247 68.517 27.6947C68.5471 27.6647 68.564 27.6239 68.564 27.5814V27.1188C68.5647 27.0969 68.5609 27.075 68.5529 27.0546C68.5448 27.0341 68.5327 27.0156 68.5171 27C68.5016 26.9845 68.483 26.9723 68.4626 26.9643C68.4422 26.9562 68.4203 26.9525 68.3984 26.9532ZM66.845 27.576C66.8445 27.5935 66.8373 27.6102 66.8249 27.6226C66.8126 27.635 66.7959 27.6422 66.7784 27.6426H66.0206C66.0029 27.6426 65.986 27.6356 65.9735 27.6231C65.961 27.6106 65.954 27.5937 65.954 27.576V27.1134C65.954 27.0958 65.961 27.0788 65.9735 27.0663C65.986 27.0538 66.0029 27.0468 66.0206 27.0468H66.7838C66.8013 27.0473 66.818 27.0544 66.8303 27.0668C66.8427 27.0792 66.8499 27.0959 66.8504 27.1134L66.845 27.576ZM68.465 27.576C68.4652 27.5848 68.4637 27.5936 68.4604 27.6018C68.4571 27.61 68.4522 27.6174 68.446 27.6237C68.4398 27.6299 68.4323 27.6348 68.4241 27.6381C68.4159 27.6413 68.4072 27.6429 68.3984 27.6426H67.3994C67.3905 27.6429 67.3818 27.6413 67.3736 27.6381C67.3654 27.6348 67.3579 27.6299 67.3517 27.6237C67.3455 27.6174 67.3406 27.61 67.3373 27.6018C67.3341 27.5936 67.3325 27.5848 67.3328 27.576V27.1134C67.3325 27.1046 67.3341 27.0958 67.3373 27.0876C67.3406 27.0794 67.3455 27.072 67.3517 27.0658C67.3579 27.0595 67.3654 27.0546 67.3736 27.0514C67.3818 27.0481 67.3905 27.0466 67.3994 27.0468H68.3984C68.4159 27.0473 68.4326 27.0544 68.4449 27.0668C68.4573 27.0792 68.4645 27.0959 68.465 27.1134V27.576Z" fill="#263238"/>
<path d="M67.0876 27.1543C66.9451 27.4179 66.7663 27.6602 66.5566 27.8743C66.6131 27.9265 66.68 27.966 66.753 27.9902C66.8259 28.0144 66.9032 28.0227 66.9796 28.0147L67.0876 27.1543Z" fill="#A02724"/>
<path d="M68.2882 26.3296C68.2984 26.3266 68.3077 26.321 68.3152 26.3134C68.3211 26.3075 68.3259 26.3005 68.3291 26.2928C68.3324 26.285 68.3341 26.2767 68.3341 26.2684C68.3341 26.26 68.3324 26.2517 68.3291 26.244C68.3259 26.2362 68.3211 26.2292 68.3152 26.2234C68.2475 26.1494 68.1633 26.0926 68.0694 26.0576C67.9755 26.0225 67.8747 26.0103 67.7752 26.0218C67.767 26.0233 67.7592 26.0264 67.7522 26.0309C67.7453 26.0354 67.7393 26.0413 67.7346 26.0482C67.7299 26.055 67.7266 26.0627 67.725 26.0709C67.7233 26.079 67.7232 26.0874 67.7248 26.0956C67.7286 26.112 67.7386 26.1263 67.7526 26.1356C67.7667 26.145 67.7837 26.1487 67.8004 26.146C67.88 26.1376 67.9606 26.1483 68.0353 26.1771C68.1101 26.2059 68.177 26.252 68.2306 26.3116C68.2381 26.3188 68.2473 26.3241 68.2573 26.3273C68.2673 26.3304 68.2778 26.3312 68.2882 26.3296Z" fill="#263238"/>
<path d="M66.2656 26.3141C66.2759 26.316 66.2866 26.3154 66.2966 26.3122C66.3066 26.3091 66.3157 26.3036 66.3232 26.2961C66.3769 26.237 66.444 26.1916 66.5188 26.1638C66.5937 26.1359 66.6741 26.1264 66.7534 26.1359C66.7615 26.1373 66.7699 26.1371 66.778 26.1353C66.786 26.1335 66.7937 26.1301 66.8004 26.1254C66.8072 26.1206 66.813 26.1146 66.8174 26.1076C66.8218 26.1006 66.8249 26.0928 66.8263 26.0846C66.8277 26.0765 66.8275 26.0681 66.8257 26.06C66.8239 26.052 66.8205 26.0443 66.8157 26.0375C66.811 26.0308 66.8049 26.025 66.7979 26.0206C66.7909 26.0161 66.7831 26.0131 66.775 26.0117C66.6759 25.998 66.5751 26.0085 66.481 26.0424C66.3869 26.0762 66.3025 26.1324 66.235 26.2061C66.2233 26.2182 66.2168 26.2343 66.2168 26.2511C66.2168 26.2679 66.2233 26.284 66.235 26.2961C66.2428 26.3054 66.2536 26.3117 66.2656 26.3141Z" fill="#263238"/>
<path d="M70.4354 29.8555C70.4678 30.1615 70.1006 31.2469 68.8154 31.7113C69.3104 31.7113 69.5264 32.3431 69.5264 32.3431C69.5264 32.3431 71.2274 31.4431 71.024 30.3433C70.9974 30.2065 70.9242 30.0831 70.8169 29.9942C70.7096 29.9052 70.5748 29.8562 70.4354 29.8555Z" fill="#407BFF"/>
<path d="M68.4221 29.9375C68.4527 30.2381 68.1053 30.8681 68.8199 31.7105C68.3231 31.7105 68.0279 32.2073 68.0279 32.2073C67.8369 31.9088 67.7239 31.5671 67.6994 31.2136C67.6749 30.8601 67.7396 30.5061 67.8875 30.1841C68.0364 30.0493 68.2229 29.9633 68.4221 29.9375Z" fill="#407BFF"/>
<g opacity="0.5">
<path d="M70.4364 29.8555C70.4688 30.1615 70.1016 31.2469 68.8164 31.7113C69.3114 31.7113 69.5274 32.3431 69.5274 32.3431C69.5274 32.3431 71.2284 31.4431 71.025 30.3433C70.9984 30.2065 70.9252 30.0831 70.8179 29.9942C70.7106 29.9052 70.5758 29.8562 70.4364 29.8555Z" fill="white"/>
<path d="M68.4221 29.9375C68.4527 30.2381 68.1053 30.8681 68.8199 31.7105C68.3231 31.7105 68.0279 32.2073 68.0279 32.2073C67.8369 31.9088 67.7239 31.5671 67.6994 31.2136C67.6749 30.8601 67.7396 30.5061 67.8875 30.1841C68.0364 30.0493 68.2229 29.9633 68.4221 29.9375Z" fill="white"/>
</g>
<path d="M65.0557 43.9821L73.5247 44.2107V43.1451L65.1853 42.9219L65.0557 43.9821Z" fill="#263238"/>
<path opacity="0.3" d="M65.0557 43.9821L73.5247 44.2107V43.1451L65.1853 42.9219L65.0557 43.9821Z" fill="white"/>
<path d="M70.9629 43.8126L71.2383 48.1685L73.4829 48.0264C73.6239 48.0162 73.7554 47.9511 73.8489 47.8451C73.9425 47.739 73.9907 47.6006 73.9833 47.4594L73.7691 44.0753C73.7617 43.9591 73.7084 43.8506 73.621 43.7736C73.5336 43.6966 73.4191 43.6576 73.3029 43.6649L70.9629 43.8126Z" fill="#263238"/>
<path opacity="0.3" d="M70.9629 43.8126L71.2383 48.1685L73.4829 48.0264C73.6239 48.0162 73.7554 47.9511 73.8489 47.8451C73.9425 47.739 73.9907 47.6006 73.9833 47.4594L73.7691 44.0753C73.7617 43.9591 73.7084 43.8506 73.621 43.7736C73.5336 43.6966 73.4191 43.6576 73.3029 43.6649L70.9629 43.8126Z" fill="white"/>
<path opacity="0.2" d="M71.5099 48.1471L71.244 48.1638L70.9691 43.8075L71.3284 43.7848C71.4375 43.7779 71.5449 43.8147 71.6269 43.887C71.7089 43.9592 71.7589 44.0611 71.7658 44.1702L71.9835 47.6212C71.9869 47.6868 71.9774 47.7525 71.9554 47.8144C71.9335 47.8764 71.8996 47.9334 71.8556 47.9822C71.8116 48.0311 71.7584 48.0707 71.6991 48.099C71.6398 48.1273 71.5755 48.1436 71.5099 48.1471Z" fill="black"/>
<path opacity="0.2" d="M71.7659 44.3399V44.2032C71.7622 44.1454 71.7472 44.089 71.7216 44.0371C71.6961 43.9852 71.6606 43.9389 71.6171 43.9007C71.5736 43.8626 71.523 43.8334 71.4682 43.8149C71.4135 43.7964 71.3556 43.7888 71.2979 43.7928L73.3103 43.6649C73.4265 43.6576 73.5409 43.6966 73.6283 43.7736C73.7158 43.8506 73.769 43.9591 73.7764 44.0753L73.7855 44.2122L73.8053 44.5451C73.8084 44.5955 73.8016 44.646 73.7852 44.6938C73.7688 44.7415 73.7432 44.7855 73.7097 44.8233C73.6763 44.8611 73.6357 44.8919 73.5903 44.914C73.5449 44.9361 73.4956 44.949 73.4453 44.952L72.1996 45.0293C72.1492 45.0328 72.0986 45.0261 72.0508 45.0098C72.003 44.9935 71.9588 44.9679 71.921 44.9344C71.8832 44.9009 71.8523 44.8602 71.8303 44.8147C71.8083 44.7692 71.7956 44.7198 71.7929 44.6693L71.7659 44.3399Z" fill="white"/>
<path d="M72.6332 44.5961C72.6351 44.626 72.6458 44.6547 72.6639 44.6785C72.6821 44.7023 72.707 44.7202 72.7353 44.7298C72.7637 44.7395 72.7942 44.7406 72.8232 44.7328C72.8521 44.7251 72.8781 44.7089 72.8978 44.6864C72.9176 44.6639 72.9302 44.636 72.9341 44.6063C72.9379 44.5766 72.9329 44.5464 72.9196 44.5196C72.9063 44.4927 72.8853 44.4705 72.8593 44.4556C72.8333 44.4407 72.8035 44.4338 72.7736 44.4359C72.7538 44.4371 72.7345 44.4421 72.7166 44.4508C72.6988 44.4595 72.6829 44.4717 72.6699 44.4866C72.6568 44.5015 72.6468 44.5189 72.6405 44.5377C72.6342 44.5565 72.6318 44.5763 72.6332 44.5961Z" fill="#263238"/>
<path d="M67.9785 43.5114C67.9826 43.5489 68.0004 43.5836 68.0285 43.6088C68.0565 43.6339 68.0929 43.6479 68.1306 43.6479C68.1683 43.6479 68.2047 43.6339 68.2328 43.6088C68.2608 43.5836 68.2786 43.5489 68.2827 43.5114C68.2786 43.4739 68.2608 43.4393 68.2328 43.4141C68.2047 43.3889 68.1683 43.375 68.1306 43.375C68.0929 43.375 68.0565 43.3889 68.0285 43.4141C68.0004 43.4393 67.9826 43.4739 67.9785 43.5114Z" fill="#263238"/>
<path opacity="0.1" d="M73.1888 44.9737L72.4307 45.0215L72.624 48.0862L73.3821 48.0384L73.1888 44.9737Z" fill="black"/>
<path d="M69.4782 27.3817C69.4782 27.3817 69.0732 27.4195 69.183 26.8525C69.2928 26.2855 68.7348 25.7221 68.8932 25.1803C69.0516 24.6385 67.329 25.0597 67.2048 24.6403C67.0806 24.2209 67.0536 25.4053 66.5208 25.2433C66.0564 25.1029 66.6612 24.5467 66.6612 24.5467C66.6612 24.5467 65.9502 24.9517 65.9502 24.5467C65.9502 24.1417 66.789 24.1597 67.086 24.0895C67.932 23.8861 69.777 22.8907 70.299 25.4251C70.299 25.4251 71.0892 25.9777 69.939 27.5851L69.4782 27.3817Z" fill="#263238"/>
<path opacity="0.2" d="M73.4128 32.3592C73.6227 33.9399 73.7255 35.5329 73.7206 37.1274C72.5812 36.1428 71.584 33.4608 71.584 33.4608V32.3988L72.4336 31.7148L73.4128 32.3592Z" fill="black"/>
<path d="M65.5906 35.45L63.3208 34.1504L63.1426 34.7606L65.1856 35.9198L65.5906 35.45Z" fill="#407BFF"/>
<path opacity="0.5" d="M65.5906 35.45L63.3208 34.1504L63.1426 34.7606L65.1856 35.9198L65.5906 35.45Z" fill="white"/>
<path d="M66.8936 23.9679C66.8936 23.9679 68.6702 22.3047 70.2866 23.6781C71.633 24.8247 70.4846 26.6103 70.4846 26.6103L69.8366 25.8543L68.5766 24.7743L67.4228 24.1065L66.8936 23.9679Z" fill="#407BFF"/>
<path d="M65.9462 23.8533C66.7274 23.2539 69.0854 24.3735 70.5074 26.6289V26.6469C70.106 26.2077 67.8956 23.8767 66.5636 24.1647C66.56 24.1647 65.4656 24.2223 65.9462 23.8533Z" fill="#407BFF"/>
<g opacity="0.3">
<path d="M65.9462 23.8533C66.7274 23.2539 69.0854 24.3735 70.5074 26.6289V26.6469C70.106 26.2077 67.8956 23.8767 66.5636 24.1647C66.56 24.1647 65.4656 24.2223 65.9462 23.8533Z" fill="black"/>
</g>
<path d="M67.4732 23.4836C68.0726 23.1416 69.239 22.7096 70.3244 23.633C71.4872 24.6212 70.8428 26.0756 70.6178 26.4968L70.508 26.4482C70.508 26.4302 71.1416 24.7508 70.2542 24.0002C69.5342 23.3864 68.654 23.7158 68.1968 23.966L68.1662 23.9822L68.1356 23.9642C67.9862 23.8688 67.7504 23.7284 67.475 23.5898L67.376 23.5376L67.4732 23.4836Z" fill="#407BFF"/>
<path opacity="0.3" d="M67.4732 23.4836C68.0726 23.1416 69.239 22.7096 70.3244 23.633C71.4872 24.6212 70.8428 26.0756 70.6178 26.4968L70.508 26.4482C70.508 26.4302 71.1416 24.7508 70.2542 24.0002C69.5342 23.3864 68.654 23.7158 68.1968 23.966L68.1662 23.9822L68.1356 23.9642C67.9862 23.8688 67.7504 23.7284 67.475 23.5898L67.376 23.5376L67.4732 23.4836Z" fill="white"/>
<path d="M67.3035 28.5573C67.2401 28.557 67.1769 28.5516 67.1145 28.5411C67.1057 28.5394 67.0979 28.5342 67.0929 28.5268C67.0878 28.5194 67.0859 28.5103 67.0875 28.5015C67.0881 28.4972 67.0896 28.4931 67.0919 28.4894C67.0941 28.4857 67.0971 28.4825 67.1007 28.48C67.1042 28.4775 67.1082 28.4757 67.1124 28.4748C67.1166 28.4738 67.121 28.4737 67.1253 28.4745C67.2637 28.5022 67.4067 28.4969 67.5427 28.459C67.6788 28.4212 67.804 28.3519 67.9083 28.2567C67.9142 28.2503 67.9225 28.2465 67.9313 28.2461C67.9401 28.2458 67.9486 28.2489 67.9551 28.2549C67.9615 28.2609 67.9653 28.2692 67.9656 28.2779C67.966 28.2867 67.9628 28.2953 67.9569 28.3017C67.781 28.4692 67.5463 28.561 67.3035 28.5573Z" fill="#263238"/>
<path opacity="0.5" d="M71.8887 34.5469H69.4785L69.5577 34.8259C69.5798 34.9049 69.6267 34.9747 69.6915 35.025C69.7564 35.0752 69.8357 35.1032 69.9177 35.1049H71.3487C71.4176 35.1049 71.4852 35.0863 71.5444 35.0512C71.6037 35.016 71.6523 34.9655 71.6853 34.9051L71.8887 34.5469Z" fill="white"/>
<path d="M70.5332 34.8114C70.5332 34.851 70.5489 34.889 70.577 34.917C70.605 34.945 70.643 34.9608 70.6826 34.9608C70.7224 34.9608 70.7606 34.9451 70.7889 34.9171C70.8172 34.8891 70.8333 34.8511 70.8338 34.8114C70.8333 34.7714 70.8173 34.7332 70.789 34.705C70.7607 34.6767 70.7226 34.6606 70.6826 34.6602C70.6428 34.6606 70.6048 34.6768 70.5768 34.7051C70.5489 34.7334 70.5332 34.7716 70.5332 34.8114Z" fill="#407BFF"/>
<path opacity="0.5" d="M67.7705 34.5312H65.8301L65.8931 34.8102C65.9035 34.8836 65.9386 34.9512 65.9926 35.0019C66.0466 35.0526 66.1162 35.0834 66.1901 35.0892H67.3421C67.4019 35.086 67.4595 35.0654 67.5078 35.0299C67.5561 34.9944 67.5929 34.9456 67.6139 34.8894L67.7705 34.5312Z" fill="white"/>
<path d="M66.4883 34.8114C66.4883 34.851 66.504 34.889 66.532 34.917C66.5601 34.945 66.5981 34.9608 66.6377 34.9608C66.6775 34.9608 66.7157 34.9451 66.744 34.9171C66.7723 34.8891 66.7884 34.8511 66.7889 34.8114C66.7884 34.7714 66.7723 34.7332 66.7441 34.705C66.7158 34.6767 66.6776 34.6606 66.6377 34.6602C66.5979 34.6606 66.5599 34.6768 66.5319 34.7051C66.504 34.7334 66.4883 34.7716 66.4883 34.8114Z" fill="#407BFF"/>
<path d="M68.494 27.0712L69.61 26.9956L69.6011 26.875L68.3896 26.9596L68.494 27.0712Z" fill="#263238"/>
<path d="M70.5042 27.5516C70.4158 27.6914 70.3004 27.8121 70.1647 27.9067C70.029 28.0013 69.8758 28.0678 69.714 28.1024C69.2802 28.1942 69.0876 27.7982 69.2298 27.404C69.3576 27.044 69.7374 26.5724 70.1622 26.6588C70.2548 26.6792 70.3408 26.7222 70.4127 26.784C70.4845 26.8459 70.5398 26.9246 70.5737 27.0131C70.6076 27.1016 70.619 27.1971 70.6069 27.2911C70.5948 27.3851 70.5595 27.4746 70.5042 27.5516Z" fill="#B55B52"/>
<path d="M68.1012 36.3411L68.0112 36.6219C68.0083 36.6301 68.008 36.639 68.0103 36.6474C68.0126 36.6557 68.0173 36.6632 68.024 36.6689C68.0306 36.6745 68.0387 36.678 68.0473 36.679C68.056 36.6799 68.0647 36.6782 68.0724 36.6741L68.337 36.5409L69.9102 34.6905C69.9261 34.6716 69.9338 34.6472 69.9318 34.6226C69.9298 34.598 69.9181 34.5751 69.8994 34.5591L69.8076 34.4799C69.7982 34.4718 69.7872 34.4656 69.7754 34.4617C69.7636 34.4578 69.7511 34.4563 69.7387 34.4573C69.7263 34.4583 69.7142 34.4618 69.7032 34.4675C69.6921 34.4733 69.6823 34.4811 69.6744 34.4907L68.1012 36.3411Z" fill="#263238"/>
<path opacity="0.5" d="M68.1012 36.3411L68.0112 36.6219C68.0083 36.6301 68.008 36.639 68.0103 36.6474C68.0126 36.6557 68.0173 36.6632 68.024 36.6689C68.0306 36.6745 68.0387 36.678 68.0473 36.679C68.056 36.6799 68.0647 36.6782 68.0724 36.6741L68.337 36.5409L69.9102 34.6905C69.9261 34.6716 69.9338 34.6472 69.9318 34.6226C69.9298 34.598 69.9181 34.5751 69.8994 34.5591L69.8076 34.4799C69.7982 34.4718 69.7872 34.4656 69.7754 34.4617C69.7636 34.4578 69.7511 34.4563 69.7387 34.4573C69.7263 34.4583 69.7142 34.4618 69.7032 34.4675C69.6921 34.4733 69.6823 34.4811 69.6744 34.4907L68.1012 36.3411Z" fill="white"/>
<path opacity="0.5" d="M69.7703 34.4623L68.1305 36.3901L68.0207 36.6619C68.0158 36.6568 68.0123 36.6503 68.0108 36.6434C68.0092 36.6364 68.0095 36.6291 68.0117 36.6223L68.1017 36.3415L69.6749 34.4911C69.6865 34.4778 69.7016 34.4681 69.7185 34.463C69.7353 34.4579 69.7533 34.4577 69.7703 34.4623Z" fill="white"/>
<path d="M70.5803 36.413L69.5003 35.873L69.252 37.2986C69.252 37.2986 70.2906 37.6586 70.5732 37.142L70.5803 36.413Z" fill="#B55B52"/>
<path d="M68.3067 36.2753V36.7901C68.3057 36.8892 68.3402 36.9854 68.4039 37.0613C68.4676 37.1372 68.5563 37.1878 68.6541 37.2041L69.2499 37.3049L69.4983 35.8793L68.7387 35.8595C68.6829 35.8581 68.6274 35.8677 68.5754 35.8879C68.5234 35.9081 68.4759 35.9384 68.4357 35.9771C68.3955 36.0158 68.3634 36.0621 68.3413 36.1133C68.3191 36.1645 68.3074 36.2195 68.3067 36.2753Z" fill="#B55B52"/>
<path d="M70.0726 37.1807C70.8425 37.6726 71.6656 38.076 72.526 38.3831C72.757 38.4638 72.9927 38.5305 73.2316 38.5829C73.5126 38.6461 73.8008 38.6715 74.0884 38.6585C74.2996 38.6459 74.5063 38.5921 74.6968 38.5001C74.8307 38.434 74.9524 38.3458 75.0568 38.2391C75.0838 38.2103 75.1144 38.1743 75.136 38.1491L75.1882 38.0789C75.2224 38.0321 75.2494 37.9835 75.2782 37.9349C75.4501 37.6105 75.535 37.2471 75.5248 36.8801C75.521 36.602 75.4878 36.3251 75.4258 36.0539C75.3729 35.8105 75.3068 35.5702 75.2278 35.3339C75.0767 34.8859 74.8994 34.4471 74.6968 34.0199C74.4988 33.6059 74.29 33.2009 74.0632 32.8085C73.8364 32.4161 73.6114 32.0363 73.3432 31.6439C73.2063 31.4454 72.9973 31.3083 72.7607 31.2616C72.5241 31.215 72.2787 31.2625 72.0767 31.3942C71.8746 31.5258 71.732 31.7311 71.6791 31.9664C71.6262 32.2016 71.6672 32.4483 71.7934 32.6537L71.8024 32.6699C72.013 33.0065 72.2398 33.3755 72.445 33.7355C72.6502 34.0955 72.8536 34.4555 73.0372 34.8299C73.2216 35.1862 73.3869 35.5522 73.5322 35.9261C73.6651 36.2439 73.7547 36.5781 73.7986 36.9197C73.802 36.9658 73.802 37.0122 73.7986 37.0583C73.6884 37.0663 73.5777 37.0663 73.4674 37.0583C73.2874 37.0403 73.093 37.0169 72.8968 36.9791C72.1084 36.8297 71.2768 36.5903 70.4596 36.3509H70.4434C70.3364 36.3189 70.2213 36.3268 70.1197 36.3733C70.0181 36.4198 69.9368 36.5016 69.8911 36.6035C69.8453 36.7055 69.8381 36.8206 69.8708 36.9274C69.9036 37.0342 69.974 37.1255 70.069 37.1843L70.0726 37.1807Z" fill="#B55B52"/>
<path d="M72.4376 30.4823C74.3186 31.0745 75.3806 35.0165 75.3806 35.0165L73.3394 35.8193C72.6561 35.2841 72.0951 34.609 71.6942 33.8393C71.4872 33.4379 70.9382 30.0089 72.4376 30.4823Z" fill="#407BFF"/>
<path d="M75.3747 34.5469L72.8799 35.5333L73.2471 36.0553L75.5349 35.1499L75.3747 34.5469Z" fill="#407BFF"/>
<path opacity="0.5" d="M75.3747 34.5469L72.8799 35.5333L73.2471 36.0553L75.5349 35.1499L75.3747 34.5469Z" fill="white"/>
<path d="M63.6604 35.0352H67.3432L69.9298 39.5424L69.8308 39.6432H66.148L63.5596 35.1342L63.6604 35.0352Z" fill="#263238"/>
<path opacity="0.2" d="M63.6604 35.0352H67.3432L69.9298 39.5424L69.8308 39.6432H66.148L63.5596 35.1342L63.6604 35.0352Z" fill="white"/>
<path d="M66.148 39.6418H69.8308L67.2424 35.1328H63.5596L66.148 39.6418Z" fill="#263238"/>
<path opacity="0.4" d="M66.148 39.6418H69.8308L67.2424 35.1328H63.5596L66.148 39.6418Z" fill="white"/>
<path d="M64.6039 34.9668H66.0061L66.3031 35.4852L66.2617 35.5266H64.8595L64.5625 35.0082L64.6039 34.9668Z" fill="#407BFF"/>
<path opacity="0.5" d="M64.6039 34.9668H66.0061L66.3031 35.4852L66.2617 35.5266H64.8595L64.5625 35.0082L64.6039 34.9668Z" fill="white"/>
<path d="M64.8595 35.5282L64.5625 35.0098H65.9647L66.2617 35.5282H64.8595Z" fill="#407BFF"/>
<path opacity="0.2" d="M64.8595 35.5282L64.5625 35.0098H65.9647L66.2617 35.5282H64.8595Z" fill="white"/>
<path d="M62.7376 37.9156C62.7033 37.669 62.7033 37.4188 62.7376 37.1722C62.7466 37.1074 62.7592 37.048 62.77 36.9922H64.4962C64.4474 37.1347 64.4077 37.2802 64.3774 37.4278C64.3568 37.5206 64.3465 37.6153 64.3468 37.7104C64.3474 37.7218 64.3474 37.7332 64.3468 37.7446C64.3599 37.7526 64.3738 37.7592 64.3882 37.7644C64.5171 37.8196 64.6501 37.8648 64.786 37.8994C65.0776 37.9804 65.4106 38.0488 65.7256 38.128H65.7598C65.855 38.1516 65.9398 38.2057 66.0014 38.282C66.063 38.3583 66.098 38.4527 66.101 38.5507C66.1041 38.6487 66.075 38.745 66.0183 38.825C65.9616 38.905 65.8803 38.9642 65.7868 38.9938C65.4252 39.1098 65.0501 39.1788 64.6708 39.199C64.4637 39.2124 64.2558 39.2064 64.0498 39.181C63.9279 39.1626 63.8075 39.1349 63.6898 39.0982C63.5286 39.0491 63.3775 38.9717 63.2434 38.8696C63.1983 38.8341 63.1556 38.7956 63.1156 38.7544C63.073 38.709 63.0333 38.6609 62.9968 38.6104C62.9465 38.5337 62.9025 38.4531 62.8654 38.3692C62.8023 38.2245 62.7593 38.0719 62.7376 37.9156Z" fill="#B55B52"/>
<path d="M65.7216 38.9972L67.0014 38.8172L66.2634 37.6328C66.2634 37.6328 65.1834 37.7912 65.2554 38.459L65.7216 38.9972Z" fill="#B55B52"/>
<path d="M67.5093 38.1016L67.2789 37.5616C67.2595 37.5166 67.2312 37.476 67.1956 37.4423C67.16 37.4086 67.118 37.3826 67.072 37.3657C67.0259 37.3489 66.977 37.3416 66.9281 37.3443C66.8792 37.347 66.8313 37.3597 66.7875 37.3816L66.2637 37.6318L67.0017 38.8162L67.3887 38.5372C67.4555 38.4893 67.5039 38.4199 67.5259 38.3407C67.5478 38.2614 67.5419 38.177 67.5093 38.1016Z" fill="#B55B52"/>
<path d="M19.3262 42.8926H20.7572V43.4578H20.5232V45.994H19.5602V43.4578H19.3262V42.8926Z" fill="#407BFF"/>
<g opacity="0.2">
<path d="M19.3262 42.8926H20.7572V43.4578H20.5232V45.994H19.5602V43.4578H19.3262V42.8926Z" fill="black"/>
</g>
<path d="M27.7857 41.0859L32.8671 48.9033V55.9179H20.8359V48.9033L27.7857 41.0859Z" fill="#407BFF"/>
<path opacity="0.5" d="M27.7857 41.0859L32.8671 48.9033V55.9179H20.8359V48.9033L27.7857 41.0859Z" fill="white"/>
<path d="M22.2061 41.4049L22.9801 40.2188H27.7861L33.4489 48.9038H28.6411H22.2061V41.4049Z" fill="#407BFF"/>
<path opacity="0.2" d="M22.2061 41.4049L22.9801 40.2188H27.7861L33.4489 48.9038H28.6411H22.2061V41.4049Z" fill="black"/>
<path d="M28.6412 48.9038L22.9802 40.2188L17.3174 48.9038H28.6412Z" fill="#407BFF"/>
<path d="M22.9798 41.0859L28.0594 48.9033V55.9179H17.8984V48.9033L22.9798 41.0859Z" fill="#407BFF"/>
<path opacity="0.8" d="M22.9798 41.0859L28.0594 48.9033V55.9179H17.8984V48.9033L22.9798 41.0859Z" fill="white"/>
<path d="M25.2583 45.5859H24.2305V48.3093H25.2583V45.5859Z" fill="#407BFF"/>
<path d="M21.6606 45.5859H20.6328V48.3093H21.6606V45.5859Z" fill="#407BFF"/>
<path d="M24.2288 45.457H21.6602V48.4378H24.2288V45.457Z" fill="#407BFF"/>
<path opacity="0.4" d="M24.2288 45.457H21.6602V48.4378H24.2288V45.457Z" fill="white"/>
<path d="M23.9083 45.7793H21.9805V48.1175H23.9083V45.7793Z" fill="#263238"/>
<path d="M21.3922 55.918H24.499V50.9032H21.3922V55.918Z" fill="#407BFF"/>
<path opacity="0.3" d="M21.3922 55.918H24.499V50.9032H21.3922V55.918Z" fill="white"/>
<path d="M21.5843 49.8535H24.3059L24.9683 51.0811H20.9219L21.5843 49.8535Z" fill="#407BFF"/>
<path d="M23.9571 51.7559H23.0049V55.9193H23.9571V51.7559Z" fill="#263238"/>
<path d="M22.8858 51.7559H21.9336V55.9193H22.8858V51.7559Z" fill="#263238"/>
<path d="M30.9289 60.9844H16.4551V73.2514H30.9289V60.9844Z" fill="#407BFF"/>
<path opacity="0.6" d="M30.9289 60.9844H16.4551V73.2514H30.9289V60.9844Z" fill="white"/>
<path d="M34.3089 60.9844H27.1611V73.2514H34.3089V60.9844Z" fill="#407BFF"/>
<path opacity="0.8" d="M34.3089 60.9844H27.1611V73.2514H34.3089V60.9844Z" fill="white"/>
<path d="M25.8144 62.2188H22.9668V65.5218H25.8144V62.2188Z" fill="#407BFF"/>
<path opacity="0.3" d="M25.8144 62.2188H22.9668V65.5218H25.8144V62.2188Z" fill="white"/>
<path d="M25.458 62.5742H23.3232V65.1644H25.458V62.5742Z" fill="#263238"/>
<path d="M29.28 62.3613H28.1406V65.3799H29.28V62.3613Z" fill="#407BFF"/>
<path d="M33.2664 62.3613H32.127V65.3799H33.2664V62.3613Z" fill="#407BFF"/>
<path d="M32.1269 62.2188H29.2793V65.5218H32.1269V62.2188Z" fill="#407BFF"/>
<path opacity="0.3" d="M32.1269 62.2188H29.2793V65.5218H32.1269V62.2188Z" fill="white"/>
<path d="M31.7705 62.5742H29.6357V65.1644H31.7705V62.5742Z" fill="#263238"/>
<path d="M23.1812 67.7949H19.8008V73.2507H23.1812V67.7949Z" fill="#407BFF"/>
<path opacity="0.3" d="M23.1812 67.7949H19.8008V73.2507H23.1812V67.7949Z" fill="white"/>
<path d="M22.9728 66.6523H20.01L19.29 67.9879H23.6928L22.9728 66.6523Z" fill="#407BFF"/>
<path d="M21.4266 68.7227H20.3916V73.2515H21.4266V68.7227Z" fill="#263238"/>
<path d="M22.5907 68.7227H21.5557V73.2515H22.5907V68.7227Z" fill="#263238"/>
<path d="M32.5413 61.0906L29.7136 55.8418H17.6716L14.8438 61.0906H32.5413Z" fill="#407BFF"/>
<path opacity="0.3" d="M32.5413 61.0906L29.7136 55.8418H17.6716L14.8438 61.0906H32.5413Z" fill="black"/>
<path d="M35.9214 61.0906L33.0936 55.8418H28.3776L25.5498 61.0906H35.9214Z" fill="#407BFF"/>
<path opacity="0.1" d="M35.9214 61.0906L33.0936 55.8418H28.3776L25.5498 61.0906H35.9214Z" fill="black"/>
<path d="M20.3701 60.1924V55.8418H25.9357L23.5921 60.1924H20.3701Z" fill="#407BFF"/>
<path opacity="0.8" d="M20.3701 60.1924V55.8418H25.9357L23.5921 60.1924H20.3701Z" fill="white"/>
<path d="M20.2055 60.1914H23.5859V56.811H20.2055V60.1914Z" fill="#407BFF"/>
<path opacity="0.6" d="M20.2055 60.1914H23.5859V56.811H20.2055V60.1914Z" fill="white"/>
<path d="M22.6088 59.7832H21.1832C21.1211 59.7832 21.0616 59.7585 21.0177 59.7147C20.9738 59.6708 20.9492 59.6113 20.9492 59.5492V59.3782H22.8428V59.5492C22.8428 59.6113 22.8181 59.6708 22.7742 59.7147C22.7304 59.7585 22.6708 59.7832 22.6088 59.7832Z" fill="#407BFF"/>
<path d="M21.2988 57.9916C21.2943 57.9103 21.3065 57.8288 21.3345 57.7523C21.3626 57.6759 21.4059 57.6059 21.462 57.5467C21.518 57.4875 21.5855 57.4404 21.6603 57.4082C21.7351 57.376 21.8158 57.3594 21.8973 57.3594C21.9787 57.3594 22.0594 57.376 22.1342 57.4082C22.209 57.4404 22.2765 57.4875 22.3325 57.5467C22.3886 57.6059 22.4319 57.6759 22.46 57.7523C22.488 57.8288 22.5002 57.9103 22.4958 57.9916V59.2822H21.2988V57.9916Z" fill="#263238"/>
<path d="M22.4941 57.0046L23.1223 55.8418H25.9357L25.3093 57.0046H22.4941Z" fill="#407BFF"/>
<path opacity="0.2" d="M22.4941 57.0046L23.1223 55.8418H25.9357L25.3093 57.0046H22.4941Z" fill="black"/>
<path d="M23.4689 55.8418L24.0971 57.0046H19.6943L20.3225 55.8418H23.4689Z" fill="#407BFF"/>
<path d="M20.7158 62.2188H17.8682V65.5218H20.7158V62.2188Z" fill="#407BFF"/>
<path opacity="0.3" d="M20.7158 62.2188H17.8682V65.5218H20.7158V62.2188Z" fill="white"/>
<path d="M20.3575 62.5742H18.2227V65.1644H20.3575V62.5742Z" fill="#263238"/>
<path d="M34.8804 73.1312H61.3638C61.4777 73.1329 61.5907 73.1104 61.6953 73.0651C61.7999 73.0198 61.8936 72.9528 61.9704 72.8686C62.0471 72.7844 62.1051 72.6848 62.1405 72.5765C62.1759 72.4681 62.1878 72.3535 62.1756 72.2402L58.851 34.2602C58.8268 34.0192 58.715 33.7953 58.5369 33.6311C58.3588 33.4669 58.1266 33.3737 57.8844 33.3692H31.3956C31.2816 33.3675 31.1686 33.3901 31.064 33.4354C30.9595 33.4806 30.8657 33.5476 30.7889 33.6319C30.7122 33.7161 30.6542 33.8157 30.6188 33.924C30.5835 34.0323 30.5715 34.1469 30.5838 34.2602L33.9084 72.2402C33.9327 72.4822 34.0452 72.7068 34.2244 72.8711C34.4037 73.0354 34.6372 73.128 34.8804 73.1312Z" fill="#263238"/>
<path d="M35.2562 73.1313H61.745C61.859 73.1332 61.9722 73.1109 62.0769 73.0657C62.1816 73.0205 62.2755 72.9536 62.3523 72.8693C62.4291 72.785 62.4871 72.6853 62.5223 72.5768C62.5576 72.4683 62.5693 72.3536 62.5568 72.2403L59.234 34.2603C59.2094 34.019 59.0973 33.7952 58.9188 33.631C58.7404 33.4668 58.508 33.3737 58.2656 33.3693H31.7786C31.6646 33.3673 31.5514 33.3896 31.4467 33.4348C31.342 33.48 31.2481 33.547 31.1713 33.6313C31.0945 33.7156 31.0365 33.8153 31.0013 33.9237C30.966 34.0322 30.9542 34.1469 30.9668 34.2603L34.2896 72.2403C34.3138 72.4813 34.4255 72.7052 34.6037 72.8694C34.7818 73.0336 35.014 73.1267 35.2562 73.1313Z" fill="#263238"/>
<path opacity="0.5" d="M35.2562 73.1313H61.745C61.859 73.1332 61.9722 73.1109 62.0769 73.0657C62.1816 73.0205 62.2755 72.9536 62.3523 72.8693C62.4291 72.785 62.4871 72.6853 62.5223 72.5768C62.5576 72.4683 62.5693 72.3536 62.5568 72.2403L59.234 34.2603C59.2094 34.019 59.0973 33.7952 58.9188 33.631C58.7404 33.4668 58.508 33.3737 58.2656 33.3693H31.7786C31.6646 33.3673 31.5514 33.3896 31.4467 33.4348C31.342 33.48 31.2481 33.547 31.1713 33.6313C31.0945 33.7156 31.0365 33.8153 31.0013 33.9237C30.966 34.0322 30.9542 34.1469 30.9668 34.2603L34.2896 72.2403C34.3138 72.4813 34.4255 72.7052 34.6037 72.8694C34.7818 73.0336 35.014 73.1267 35.2562 73.1313Z" fill="white"/>
<path opacity="0.2" d="M56.7697 35.5625L59.9467 71.7515H36.0715L32.8945 35.5625H56.7697Z" fill="black"/>
<path d="M56.9157 35.5645L57.8319 47.2339C58.0719 50.2591 58.4319 53.2711 58.9119 56.2699L61.2519 70.9327H37.3713L35.0313 56.2339C34.5513 53.2399 34.1943 50.2315 33.9603 47.2087L33.0459 35.5645H56.9157Z" fill="white"/>
<path d="M41.071 40.2026H50.0224C50.0908 40.2042 50.1588 40.1908 50.2214 40.1633C50.284 40.1357 50.3399 40.0947 50.3849 40.0432C50.4299 39.9916 50.463 39.9308 50.4819 39.865C50.5007 39.7993 50.5049 39.7301 50.494 39.6626L50.4238 39.0812C50.4038 38.9342 50.3321 38.7992 50.2216 38.7003C50.1112 38.6013 49.9691 38.5449 49.8208 38.5412H40.8676C40.7993 38.5395 40.7314 38.5529 40.6688 38.5804C40.6062 38.608 40.5505 38.649 40.5056 38.7006C40.4608 38.7522 40.4278 38.813 40.4092 38.8788C40.3906 38.9446 40.3867 39.0137 40.3978 39.0812L40.468 39.6626C40.4881 39.8095 40.5597 39.9445 40.6702 40.0435C40.7807 40.1424 40.9228 40.1988 41.071 40.2026Z" fill="#407BFF"/>
<path d="M37.2903 52.2338H56.5089C56.5772 52.2355 56.6451 52.2221 56.7077 52.1946C56.7703 52.167 56.826 52.126 56.8709 52.0744C56.9157 52.0228 56.9487 51.9619 56.9673 51.8961C56.9859 51.8304 56.9898 51.7613 56.9787 51.6938L56.9085 51.1124C56.8884 50.9655 56.8168 50.8304 56.7063 50.7315C56.5958 50.6326 56.4537 50.5762 56.3055 50.5724H37.0869C37.0185 50.5707 36.9505 50.5842 36.8879 50.6117C36.8253 50.6393 36.7694 50.6803 36.7244 50.7318C36.6794 50.7833 36.6463 50.8442 36.6274 50.9099C36.6086 50.9757 36.6044 51.0448 36.6153 51.1124L36.6873 51.6938C36.7073 51.8407 36.779 51.9758 36.8895 52.0747C36.9999 52.1736 37.142 52.23 37.2903 52.2338Z" fill="#407BFF"/>
<path opacity="0.5" d="M37.2903 52.2338H56.5089C56.5772 52.2355 56.6451 52.2221 56.7077 52.1946C56.7703 52.167 56.826 52.126 56.8709 52.0744C56.9157 52.0228 56.9487 51.9619 56.9673 51.8961C56.9859 51.8304 56.9898 51.7613 56.9787 51.6938L56.9085 51.1124C56.8884 50.9655 56.8168 50.8304 56.7063 50.7315C56.5958 50.6326 56.4537 50.5762 56.3055 50.5724H37.0869C37.0185 50.5707 36.9505 50.5842 36.8879 50.6117C36.8253 50.6393 36.7694 50.6803 36.7244 50.7318C36.6794 50.7833 36.6463 50.8442 36.6274 50.9099C36.6086 50.9757 36.6044 51.0448 36.6153 51.1124L36.6873 51.6938C36.7073 51.8407 36.779 51.9758 36.8895 52.0747C36.9999 52.1736 37.142 52.23 37.2903 52.2338Z" fill="white"/>
<path d="M49.1343 42.6807H40.1829C40.0029 42.6807 39.9741 42.3945 40.1577 42.3945H49.1091C49.2891 42.3945 49.3197 42.6807 49.1343 42.6807Z" fill="#263238"/>
<path d="M36.3692 43.4766H49.2428C49.4228 43.4766 49.4534 43.7646 49.268 43.7646H36.3926C36.2126 43.7646 36.1838 43.4766 36.3692 43.4766Z" fill="#263238"/>
<path d="M51.1095 43.81H55.4781C55.5465 43.8117 55.6144 43.7983 55.6771 43.7707C55.7397 43.7432 55.7955 43.7022 55.8405 43.6506C55.8855 43.5991 55.9186 43.5383 55.9375 43.4725C55.9564 43.4067 55.9605 43.3376 55.9497 43.27L55.8777 42.6886C55.858 42.5415 55.7864 42.4063 55.6759 42.3073C55.5653 42.2083 55.423 42.152 55.2747 42.1486H50.9007C50.8322 42.1467 50.7641 42.1599 50.7013 42.1873C50.6385 42.2147 50.5825 42.2557 50.5375 42.3074C50.4924 42.359 50.4593 42.4199 50.4405 42.4858C50.4218 42.5518 50.4179 42.621 50.4291 42.6886L50.5011 43.27C50.5213 43.4179 50.5937 43.5536 50.7053 43.6527C50.8169 43.7517 50.9603 43.8075 51.1095 43.81Z" fill="#263238"/>
<path opacity="0.7" d="M51.1095 43.81H55.4781C55.5465 43.8117 55.6144 43.7983 55.6771 43.7707C55.7397 43.7432 55.7955 43.7022 55.8405 43.6506C55.8855 43.5991 55.9186 43.5383 55.9375 43.4725C55.9564 43.4067 55.9605 43.3376 55.9497 43.27L55.8777 42.6886C55.858 42.5415 55.7864 42.4063 55.6759 42.3073C55.5653 42.2083 55.423 42.152 55.2747 42.1486H50.9007C50.8322 42.1467 50.7641 42.1599 50.7013 42.1873C50.6385 42.2147 50.5825 42.2557 50.5375 42.3074C50.4924 42.359 50.4593 42.4199 50.4405 42.4858C50.4218 42.5518 50.4179 42.621 50.4291 42.6886L50.5011 43.27C50.5213 43.4179 50.5937 43.5536 50.7053 43.6527C50.8169 43.7517 50.9603 43.8075 51.1095 43.81Z" fill="white"/>
<path d="M53.5718 47.1422H55.8848C55.9532 47.1439 56.0212 47.1304 56.0838 47.1029C56.1465 47.0753 56.2023 47.0343 56.2473 46.9828C56.2923 46.9313 56.3254 46.8704 56.3443 46.8047C56.3631 46.7389 56.3673 46.6698 56.3564 46.6022L56.3186 46.298C56.299 46.1512 56.2277 46.0162 56.1175 45.9173C56.0073 45.8183 55.8655 45.7618 55.7174 45.758H53.4026C53.3341 45.756 53.266 45.7692 53.2032 45.7967C53.1404 45.8241 53.0845 45.8651 53.0394 45.9167C52.9943 45.9683 52.9612 46.0293 52.9425 46.0952C52.9238 46.1611 52.9198 46.2304 52.931 46.298L52.9688 46.6022C52.9889 46.7491 53.0605 46.8842 53.171 46.9831C53.2815 47.082 53.4236 47.1384 53.5718 47.1422Z" fill="#263238"/>
<path d="M46.4971 47.1422H51.8665C51.9349 47.1439 52.0029 47.1305 52.0655 47.1029C52.1281 47.0754 52.1839 47.0344 52.229 46.9828C52.274 46.9313 52.3071 46.8705 52.3259 46.8047C52.3448 46.7389 52.349 46.6698 52.3381 46.6022L52.3003 46.298C52.2807 46.1512 52.2094 46.0162 52.0992 45.9173C51.989 45.8183 51.8472 45.7618 51.6991 45.758H46.3279C46.2595 45.756 46.1914 45.7692 46.1287 45.7966C46.066 45.8241 46.0101 45.8651 45.9652 45.9168C45.9202 45.9684 45.8873 46.0294 45.8688 46.0954C45.8503 46.1613 45.8466 46.2305 45.8581 46.298L45.8941 46.6022C45.9145 46.749 45.9863 46.8838 46.0967 46.9827C46.2071 47.0816 46.349 47.1381 46.4971 47.1422Z" fill="#263238"/>
<path d="M40.7614 47.1422H44.7952C44.8636 47.1435 44.9313 47.1299 44.9938 47.1023C45.0563 47.0746 45.112 47.0336 45.1569 46.9821C45.2019 46.9307 45.235 46.87 45.254 46.8044C45.273 46.7387 45.2774 46.6697 45.2668 46.6022L45.229 46.298C45.2093 46.1509 45.1378 46.0157 45.0272 45.9167C44.9167 45.8177 44.7744 45.7614 44.626 45.758H40.594C40.5255 45.756 40.4574 45.7692 40.3946 45.7967C40.3318 45.8241 40.2759 45.8651 40.2308 45.9167C40.1857 45.9683 40.1526 46.0293 40.1339 46.0952C40.1152 46.1611 40.1113 46.2304 40.1224 46.298L40.1584 46.6022C40.1792 46.7489 40.251 46.8835 40.3614 46.9823C40.4717 47.0811 40.6134 47.1377 40.7614 47.1422Z" fill="#263238"/>
<path d="M36.9343 47.1422H39.0583C39.1267 47.1439 39.1946 47.1304 39.2573 47.1029C39.3199 47.0753 39.3757 47.0343 39.4207 46.9828C39.4657 46.9313 39.4989 46.8704 39.5177 46.8047C39.5366 46.7389 39.5407 46.6698 39.5299 46.6022L39.4921 46.298C39.4724 46.1509 39.4008 46.0157 39.2903 45.9167C39.1797 45.8177 39.0375 45.7614 38.8891 45.758H36.7669C36.6984 45.756 36.6303 45.7692 36.5675 45.7967C36.5047 45.8241 36.4488 45.8651 36.4037 45.9167C36.3586 45.9683 36.3255 46.0293 36.3068 46.0952C36.288 46.1611 36.2841 46.2304 36.2953 46.298L36.3331 46.6022C36.3531 46.7488 36.4245 46.8836 36.5346 46.9825C36.6447 47.0814 36.7863 47.138 36.9343 47.1422Z" fill="#263238"/>
<path d="M52.0988 49.1558H56.1308C56.1993 49.1578 56.2674 49.1446 56.3302 49.1172C56.393 49.0897 56.449 49.0487 56.4941 48.9971C56.5391 48.9455 56.5722 48.8845 56.591 48.8186C56.6097 48.7527 56.6136 48.6834 56.6024 48.6158L56.5646 48.3116C56.5447 48.165 56.4732 48.0302 56.3631 47.9313C56.253 47.8324 56.1114 47.7758 55.9634 47.7716H51.9296C51.8612 47.77 51.7933 47.7834 51.7307 47.8109C51.668 47.8385 51.6122 47.8795 51.5672 47.931C51.5222 47.9826 51.4891 48.0434 51.4702 48.1092C51.4514 48.1749 51.4472 48.2441 51.458 48.3116L51.4958 48.6158C51.5155 48.7629 51.5871 48.8981 51.6977 48.9971C51.8082 49.0961 51.9505 49.1524 52.0988 49.1558Z" fill="#263238"/>
<path d="M45.5998 49.1558H50.395C50.4635 49.1578 50.5316 49.1446 50.5944 49.1172C50.6572 49.0897 50.7132 49.0487 50.7582 48.9971C50.8033 48.9455 50.8364 48.8845 50.8552 48.8186C50.8739 48.7527 50.8778 48.6834 50.8666 48.6158L50.8306 48.3116C50.8099 48.165 50.738 48.0304 50.6277 47.9316C50.5174 47.8327 50.3757 47.7761 50.2276 47.7716H45.4306C45.3622 47.77 45.2943 47.7834 45.2316 47.8109C45.169 47.8385 45.1132 47.8795 45.0682 47.931C45.0232 47.9826 44.9901 48.0434 44.9712 48.1092C44.9523 48.1749 44.9482 48.2441 44.959 48.3116L44.9968 48.6158C45.0165 48.7629 45.0881 48.8981 45.1986 48.9971C45.3092 49.0961 45.4515 49.1524 45.5998 49.1558Z" fill="#263238"/>
<path d="M41.5822 49.1558H43.8952C43.9638 49.1578 44.0318 49.1446 44.0946 49.1172C44.1574 49.0897 44.2134 49.0487 44.2585 48.9971C44.3035 48.9455 44.3366 48.8845 44.3554 48.8186C44.3741 48.7527 44.378 48.6834 44.3668 48.6158L44.329 48.3116C44.309 48.1647 44.2373 48.0297 44.1269 47.9307C44.0164 47.8318 43.8743 47.7754 43.726 47.7716H41.413C41.3446 47.77 41.2767 47.7834 41.2141 47.8109C41.1514 47.8385 41.0956 47.8795 41.0506 47.931C41.0056 47.9826 40.9725 48.0434 40.9536 48.1092C40.9347 48.1749 40.9306 48.2441 40.9414 48.3116L40.9792 48.6158C40.9989 48.7629 41.0705 48.8981 41.1811 48.9971C41.2916 49.0961 41.4339 49.1524 41.5822 49.1558Z" fill="#263238"/>
<path d="M37.1809 49.1558H39.8809C39.9494 49.1578 40.0175 49.1446 40.0803 49.1172C40.1431 49.0897 40.199 49.0487 40.2441 48.9971C40.2892 48.9455 40.3223 48.8845 40.341 48.8186C40.3597 48.7527 40.3637 48.6834 40.3525 48.6158L40.3147 48.3116C40.2946 48.1647 40.223 48.0297 40.1125 47.9307C40.002 47.8318 39.8599 47.7754 39.7117 47.7716H37.0117C36.9433 47.77 36.8753 47.7834 36.8127 47.8109C36.7501 47.8385 36.6942 47.8795 36.6492 47.931C36.6042 47.9826 36.5711 48.0434 36.5522 48.1092C36.5334 48.1749 36.5292 48.2441 36.5401 48.3116L36.5779 48.6158C36.5976 48.7629 36.6691 48.8981 36.7797 48.9971C36.8902 49.0961 37.0325 49.1524 37.1809 49.1558Z" fill="#263238"/>
<g opacity="0.7">
<path d="M53.5718 47.1422H55.8848C55.9532 47.1439 56.0212 47.1304 56.0838 47.1029C56.1465 47.0753 56.2023 47.0343 56.2473 46.9828C56.2923 46.9313 56.3254 46.8704 56.3443 46.8047C56.3631 46.7389 56.3673 46.6698 56.3564 46.6022L56.3186 46.298C56.299 46.1512 56.2277 46.0162 56.1175 45.9173C56.0073 45.8183 55.8655 45.7618 55.7174 45.758H53.4026C53.3341 45.756 53.266 45.7692 53.2032 45.7967C53.1404 45.8241 53.0845 45.8651 53.0394 45.9167C52.9943 45.9683 52.9612 46.0293 52.9425 46.0952C52.9238 46.1611 52.9198 46.2304 52.931 46.298L52.9688 46.6022C52.9889 46.7491 53.0605 46.8842 53.171 46.9831C53.2815 47.082 53.4236 47.1384 53.5718 47.1422Z" fill="white"/>
<path d="M46.4981 47.1422H51.8675C51.9359 47.1439 52.0038 47.1305 52.0665 47.1029C52.1291 47.0754 52.1849 47.0344 52.2299 46.9828C52.2749 46.9313 52.3081 46.8705 52.3269 46.8047C52.3458 46.7389 52.3499 46.6698 52.3391 46.6022L52.3013 46.298C52.2817 46.1512 52.2103 46.0162 52.1002 45.9173C51.99 45.8183 51.8481 45.7618 51.7001 45.758H46.3289C46.2604 45.756 46.1924 45.7692 46.1297 45.7966C46.0669 45.8241 46.0111 45.8651 45.9661 45.9168C45.9212 45.9684 45.8883 46.0294 45.8698 46.0954C45.8512 46.1613 45.8476 46.2305 45.8591 46.298L45.8951 46.6022C45.9155 46.749 45.9873 46.8838 46.0977 46.9827C46.2081 47.0816 46.3499 47.1381 46.4981 47.1422Z" fill="white"/>
<path d="M40.7614 47.1422H44.7952C44.8636 47.1435 44.9313 47.1299 44.9938 47.1023C45.0563 47.0746 45.112 47.0336 45.1569 46.9821C45.2019 46.9307 45.235 46.87 45.254 46.8044C45.273 46.7387 45.2774 46.6697 45.2668 46.6022L45.229 46.298C45.2093 46.1509 45.1378 46.0157 45.0272 45.9167C44.9167 45.8177 44.7744 45.7614 44.626 45.758H40.594C40.5255 45.756 40.4574 45.7692 40.3946 45.7967C40.3318 45.8241 40.2759 45.8651 40.2308 45.9167C40.1857 45.9683 40.1526 46.0293 40.1339 46.0952C40.1152 46.1611 40.1113 46.2304 40.1224 46.298L40.1584 46.6022C40.1792 46.7489 40.251 46.8835 40.3614 46.9823C40.4717 47.0811 40.6134 47.1377 40.7614 47.1422Z" fill="white"/>
<path d="M36.9343 47.1422H39.0583C39.1267 47.1439 39.1946 47.1304 39.2573 47.1029C39.3199 47.0753 39.3757 47.0343 39.4207 46.9828C39.4657 46.9313 39.4989 46.8704 39.5177 46.8047C39.5366 46.7389 39.5407 46.6698 39.5299 46.6022L39.4921 46.298C39.4724 46.1509 39.4008 46.0157 39.2903 45.9167C39.1797 45.8177 39.0375 45.7614 38.8891 45.758H36.7669C36.6984 45.756 36.6303 45.7692 36.5675 45.7967C36.5047 45.8241 36.4488 45.8651 36.4037 45.9167C36.3586 45.9683 36.3255 46.0293 36.3068 46.0952C36.288 46.1611 36.2841 46.2304 36.2953 46.298L36.3331 46.6022C36.3531 46.7488 36.4245 46.8836 36.5346 46.9825C36.6447 47.0814 36.7863 47.138 36.9343 47.1422Z" fill="white"/>
<path d="M52.0988 49.1558H56.1308C56.1993 49.1578 56.2674 49.1446 56.3302 49.1172C56.393 49.0897 56.449 49.0487 56.4941 48.9971C56.5391 48.9455 56.5722 48.8845 56.591 48.8186C56.6097 48.7527 56.6136 48.6834 56.6024 48.6158L56.5646 48.3116C56.5447 48.165 56.4732 48.0302 56.3631 47.9313C56.253 47.8324 56.1114 47.7758 55.9634 47.7716H51.9296C51.8612 47.77 51.7933 47.7834 51.7307 47.8109C51.668 47.8385 51.6122 47.8795 51.5672 47.931C51.5222 47.9826 51.4891 48.0434 51.4702 48.1092C51.4514 48.1749 51.4472 48.2441 51.458 48.3116L51.4958 48.6158C51.5155 48.7629 51.5871 48.8981 51.6977 48.9971C51.8082 49.0961 51.9505 49.1524 52.0988 49.1558Z" fill="white"/>
<path d="M45.5998 49.1558H50.395C50.4635 49.1578 50.5316 49.1446 50.5944 49.1172C50.6572 49.0897 50.7132 49.0487 50.7582 48.9971C50.8033 48.9455 50.8364 48.8845 50.8552 48.8186C50.8739 48.7527 50.8778 48.6834 50.8666 48.6158L50.8306 48.3116C50.8099 48.165 50.738 48.0304 50.6277 47.9316C50.5174 47.8327 50.3757 47.7761 50.2276 47.7716H45.4306C45.3622 47.77 45.2943 47.7834 45.2316 47.8109C45.169 47.8385 45.1132 47.8795 45.0682 47.931C45.0232 47.9826 44.9901 48.0434 44.9712 48.1092C44.9523 48.1749 44.9482 48.2441 44.959 48.3116L44.9968 48.6158C45.0165 48.7629 45.0881 48.8981 45.1986 48.9971C45.3092 49.0961 45.4515 49.1524 45.5998 49.1558Z" fill="white"/>
<path d="M41.5822 49.1558H43.8952C43.9638 49.1578 44.0318 49.1446 44.0946 49.1172C44.1574 49.0897 44.2134 49.0487 44.2585 48.9971C44.3035 48.9455 44.3366 48.8845 44.3554 48.8186C44.3741 48.7527 44.378 48.6834 44.3668 48.6158L44.329 48.3116C44.309 48.1647 44.2373 48.0297 44.1269 47.9307C44.0164 47.8318 43.8743 47.7754 43.726 47.7716H41.413C41.3446 47.77 41.2767 47.7834 41.2141 47.8109C41.1514 47.8385 41.0956 47.8795 41.0506 47.931C41.0056 47.9826 40.9725 48.0434 40.9536 48.1092C40.9347 48.1749 40.9306 48.2441 40.9414 48.3116L40.9792 48.6158C40.9989 48.7629 41.0705 48.8981 41.1811 48.9971C41.2916 49.0961 41.4339 49.1524 41.5822 49.1558Z" fill="white"/>
<path d="M37.1809 49.1558H39.8809C39.9494 49.1578 40.0175 49.1446 40.0803 49.1172C40.1431 49.0897 40.199 49.0487 40.2441 48.9971C40.2892 48.9455 40.3223 48.8845 40.341 48.8186C40.3597 48.7527 40.3637 48.6834 40.3525 48.6158L40.3147 48.3116C40.2946 48.1647 40.223 48.0297 40.1125 47.9307C40.002 47.8318 39.8599 47.7754 39.7117 47.7716H37.0117C36.9433 47.77 36.8753 47.7834 36.8127 47.8109C36.7501 47.8385 36.6942 47.8795 36.6492 47.931C36.6042 47.9826 36.5711 48.0434 36.5522 48.1092C36.5334 48.1749 36.5292 48.2441 36.5401 48.3116L36.5779 48.6158C36.5976 48.7629 36.6691 48.8981 36.7797 48.9971C36.8902 49.0961 37.0325 49.1524 37.1809 49.1558Z" fill="white"/>
</g>
<path d="M44.8433 69.4678H38.6243C38.4443 69.4678 38.4155 69.1816 38.5991 69.1816H44.8181C44.9981 69.1816 45.0287 69.4678 44.8433 69.4678Z" fill="#263238"/>
<path d="M59.1499 69.4678H52.9309C52.7509 69.4678 52.7222 69.1816 52.9058 69.1816H59.1247C59.3047 69.1816 59.3353 69.4678 59.1499 69.4678Z" fill="#263238"/>
<path d="M58.0718 60.6612H50.1338C49.9538 60.6612 49.9232 60.375 50.1086 60.375H58.0466C58.2266 60.375 58.2554 60.6612 58.0718 60.6612Z" fill="#263238"/>
<path d="M50.2434 61.4688H58.1814C58.3614 61.4688 58.3902 61.7549 58.2066 61.7549H50.2686C50.0886 61.7549 50.058 61.4688 50.2434 61.4688Z" fill="#263238"/>
<path d="M50.3782 62.5703H58.3162C58.4962 62.5703 58.5249 62.8565 58.3413 62.8565H50.4033C50.2233 62.8565 50.1928 62.5703 50.3782 62.5703Z" fill="#263238"/>
<path d="M50.5131 63.6719H58.4601C58.6401 63.6719 58.6689 63.9581 58.4835 63.9581H50.5401C50.3601 63.9581 50.3295 63.6719 50.5149 63.6719H50.5131Z" fill="#263238"/>
<path d="M50.6487 64.7734H58.5867C58.7667 64.7734 58.7955 65.0614 58.6101 65.0614H50.6739C50.4939 65.0614 50.4633 64.7734 50.6487 64.7734Z" fill="#263238"/>
<path d="M46.2027 60.6612H39.9837C39.8037 60.6612 39.7749 60.375 39.9585 60.375H46.1775C46.3575 60.375 46.3881 60.6612 46.2027 60.6612Z" fill="#263238"/>
<path d="M40.1002 61.4688H46.3192C46.4992 61.4688 46.5298 61.7549 46.3444 61.7549H40.1182C39.9382 61.7549 39.9076 61.4688 40.093 61.4688H40.1002Z" fill="#263238"/>
<path d="M40.2278 62.5703H46.4468C46.6268 62.5703 46.6556 62.8565 46.472 62.8565H40.253C40.073 62.8565 40.0424 62.5703 40.2278 62.5703Z" fill="#263238"/>
<path d="M40.3635 63.6719H46.5807C46.7607 63.6719 46.7895 63.9581 46.6059 63.9581H40.3887C40.2087 63.9581 40.1781 63.6719 40.3635 63.6719Z" fill="#263238"/>
<path d="M40.4983 64.7734H46.7173C46.8973 64.7734 46.9261 65.0614 46.7425 65.0614H40.5235C40.3435 65.0614 40.3129 64.7734 40.4983 64.7734Z" fill="#263238"/>
<path d="M37.0168 54.9796L37.1806 56.317L37.3444 57.6544L37.5082 58.99H57.9436L57.7636 57.5104L57.5998 56.173L57.436 54.8374L57.2722 53.5H36.835L37.0168 54.9796ZM40.6636 54.2398L40.7356 54.8374H37.1356L36.9898 53.6422H40.5898L40.6636 54.2398ZM40.9696 55.5772L40.8976 54.9796H47.1634L47.2372 55.5772L47.3092 56.173H41.0434L40.9696 55.5772ZM47.3002 54.9796H53.566L53.6398 55.5772L53.7118 56.173H47.4532L47.3794 55.5772L47.3002 54.9796ZM53.8756 57.5104H47.617L47.5432 56.9128L47.4712 56.317H53.737L53.8108 56.9128L53.8756 57.5104ZM47.4658 57.5104H41.2072L41.1334 56.9128L41.0596 56.317H47.3272L47.3992 56.9128L47.4658 57.5104ZM47.0662 54.2398L47.1382 54.8374H40.8796L40.8058 54.2398L40.7338 53.6422H46.9996L47.0662 54.2398ZM53.476 54.2398L53.548 54.8374H47.2894L47.2156 54.2398L47.1436 53.6422H53.4094L53.476 54.2398ZM57.2848 54.8374H53.6848L53.611 54.2398L53.539 53.6422H57.139L57.2848 54.8374ZM57.4486 56.173H53.8486L53.7748 55.5772L53.7028 54.9796H57.3028L57.4486 56.173ZM57.6124 57.5104H54.0124L53.9386 56.9128L53.8666 56.317H57.4666L57.6124 57.5104ZM54.1096 58.2502L54.0376 57.6544H57.6376L57.7834 58.8478H54.1834L54.1096 58.2502ZM47.6998 58.2502L47.626 57.6544H53.8936L53.9656 58.2502L54.0394 58.8478H47.7808L47.6998 58.2502ZM41.29 58.2502L41.2162 57.6544H47.4838L47.5558 58.2502L47.6296 58.8478H41.371L41.29 58.2502ZM37.4812 57.6544H41.0812L41.1532 58.2502L41.227 58.8478H37.627L37.4812 57.6544ZM37.3174 56.317H40.9174L40.9894 56.9128L41.0632 57.5104H37.4632L37.3174 56.317ZM37.1536 54.9796H40.7536L40.8256 55.5772L40.8994 56.173H37.2994L37.1536 54.9796Z" fill="#407BFF"/>
<path opacity="0.5" d="M37.0168 54.9796L37.1806 56.317L37.3444 57.6544L37.5082 58.99H57.9436L57.7636 57.5104L57.5998 56.173L57.436 54.8374L57.2722 53.5H36.835L37.0168 54.9796ZM40.6636 54.2398L40.7356 54.8374H37.1356L36.9898 53.6422H40.5898L40.6636 54.2398ZM40.9696 55.5772L40.8976 54.9796H47.1634L47.2372 55.5772L47.3092 56.173H41.0434L40.9696 55.5772ZM47.3002 54.9796H53.566L53.6398 55.5772L53.7118 56.173H47.4532L47.3794 55.5772L47.3002 54.9796ZM53.8756 57.5104H47.617L47.5432 56.9128L47.4712 56.317H53.737L53.8108 56.9128L53.8756 57.5104ZM47.4658 57.5104H41.2072L41.1334 56.9128L41.0596 56.317H47.3272L47.3992 56.9128L47.4658 57.5104ZM47.0662 54.2398L47.1382 54.8374H40.8796L40.8058 54.2398L40.7338 53.6422H46.9996L47.0662 54.2398ZM53.476 54.2398L53.548 54.8374H47.2894L47.2156 54.2398L47.1436 53.6422H53.4094L53.476 54.2398ZM57.2848 54.8374H53.6848L53.611 54.2398L53.539 53.6422H57.139L57.2848 54.8374ZM57.4486 56.173H53.8486L53.7748 55.5772L53.7028 54.9796H57.3028L57.4486 56.173ZM57.6124 57.5104H54.0124L53.9386 56.9128L53.8666 56.317H57.4666L57.6124 57.5104ZM54.1096 58.2502L54.0376 57.6544H57.6376L57.7834 58.8478H54.1834L54.1096 58.2502ZM47.6998 58.2502L47.626 57.6544H53.8936L53.9656 58.2502L54.0394 58.8478H47.7808L47.6998 58.2502ZM41.29 58.2502L41.2162 57.6544H47.4838L47.5558 58.2502L47.6296 58.8478H41.371L41.29 58.2502ZM37.4812 57.6544H41.0812L41.1532 58.2502L41.227 58.8478H37.627L37.4812 57.6544ZM37.3174 56.317H40.9174L40.9894 56.9128L41.0632 57.5104H37.4632L37.3174 56.317ZM37.1536 54.9796H40.7536L40.8256 55.5772L40.8994 56.173H37.2994L37.1536 54.9796Z" fill="white"/>
<path d="M38.2317 61.5602H38.8239C38.8493 61.5603 38.8744 61.5551 38.8977 61.5448C38.9209 61.5346 38.9417 61.5195 38.9587 61.5006C38.9757 61.4818 38.9885 61.4595 38.9963 61.4353C39.0041 61.4112 39.0067 61.3856 39.0039 61.3604L38.9319 60.7682C38.9243 60.7139 38.8977 60.664 38.8568 60.6275C38.816 60.5909 38.7635 60.57 38.7087 60.5684H38.1147C38.0893 60.5682 38.0641 60.5734 38.0409 60.5837C38.0177 60.594 37.9969 60.609 37.9799 60.6279C37.9629 60.6468 37.95 60.669 37.9423 60.6932C37.9345 60.7174 37.9319 60.7429 37.9347 60.7682L38.0067 61.3604C38.0147 61.4148 38.0417 61.4647 38.0828 61.5012C38.124 61.5378 38.1767 61.5586 38.2317 61.5602Z" fill="#407BFF"/>
<path d="M38.3637 62.6402H38.9577C38.9831 62.6404 39.0082 62.6352 39.0315 62.6249C39.0547 62.6147 39.0755 62.5996 39.0925 62.5807C39.1095 62.5619 39.1223 62.5396 39.1301 62.5154C39.1379 62.4912 39.1405 62.4657 39.1377 62.4404L39.0657 61.8482C39.0577 61.7938 39.0307 61.7439 38.9895 61.7074C38.9484 61.6708 38.8957 61.65 38.8407 61.6484H38.2485C38.2231 61.6483 38.1979 61.6535 38.1747 61.6638C38.1515 61.674 38.1307 61.6891 38.1136 61.708C38.0966 61.7268 38.0838 61.7491 38.076 61.7733C38.0683 61.7974 38.0657 61.823 38.0685 61.8482L38.1405 62.4404C38.1481 62.4947 38.1747 62.5446 38.2155 62.5811C38.2564 62.6177 38.3089 62.6387 38.3637 62.6402Z" fill="#407BFF"/>
<path d="M38.4961 63.7205H39.0883C39.1136 63.7206 39.1386 63.7154 39.1617 63.7053C39.1848 63.6951 39.2055 63.6802 39.2224 63.6616C39.2394 63.6429 39.2523 63.6209 39.2602 63.5969C39.2681 63.5729 39.2709 63.5476 39.2683 63.5225L39.1945 62.9285C39.1869 62.8744 39.1602 62.8247 39.1193 62.7885C39.0784 62.7522 39.026 62.7316 38.9713 62.7305H38.3791C38.3539 62.7303 38.3289 62.7355 38.3058 62.7457C38.2827 62.7558 38.262 62.7707 38.2451 62.7894C38.2281 62.8081 38.2152 62.8301 38.2073 62.8541C38.1994 62.878 38.1966 62.9034 38.1991 62.9285L38.2729 63.5225C38.2806 63.5766 38.3073 63.6262 38.3482 63.6625C38.3891 63.6987 38.4415 63.7193 38.4961 63.7205Z" fill="#407BFF"/>
<path d="M38.6301 64.8004H39.2223C39.2477 64.8006 39.2729 64.7953 39.2961 64.7851C39.3193 64.7748 39.3401 64.7598 39.3572 64.7409C39.3742 64.722 39.387 64.6998 39.3948 64.6756C39.4025 64.6514 39.4051 64.6258 39.4023 64.6006L39.3303 64.0084C39.3226 63.9538 39.2958 63.9037 39.2546 63.8671C39.2133 63.8305 39.1604 63.8098 39.1053 63.8086H38.5131C38.4877 63.8084 38.4626 63.8137 38.4393 63.8239C38.4161 63.8342 38.3953 63.8492 38.3783 63.8681C38.3613 63.887 38.3485 63.9092 38.3407 63.9334C38.3329 63.9576 38.3303 63.9832 38.3331 64.0084L38.4051 64.6006C38.4131 64.655 38.4401 64.7049 38.4813 64.7415C38.5224 64.778 38.5751 64.7989 38.6301 64.8004Z" fill="#407BFF"/>
<path opacity="0.5" d="M38.3637 62.6402H38.9577C38.9831 62.6404 39.0082 62.6352 39.0315 62.6249C39.0547 62.6147 39.0755 62.5996 39.0925 62.5807C39.1095 62.5619 39.1223 62.5396 39.1301 62.5154C39.1379 62.4912 39.1405 62.4657 39.1377 62.4404L39.0657 61.8482C39.0577 61.7938 39.0307 61.7439 38.9895 61.7074C38.9484 61.6708 38.8957 61.65 38.8407 61.6484H38.2485C38.2231 61.6483 38.1979 61.6535 38.1747 61.6638C38.1515 61.674 38.1307 61.6891 38.1136 61.708C38.0966 61.7268 38.0838 61.7491 38.076 61.7733C38.0683 61.7974 38.0657 61.823 38.0685 61.8482L38.1405 62.4404C38.1481 62.4947 38.1747 62.5446 38.2155 62.5811C38.2564 62.6177 38.3089 62.6387 38.3637 62.6402Z" fill="white"/>
<path opacity="0.5" d="M38.6301 64.8004H39.2223C39.2477 64.8006 39.2729 64.7953 39.2961 64.7851C39.3193 64.7748 39.3401 64.7598 39.3572 64.7409C39.3742 64.722 39.387 64.6998 39.3948 64.6756C39.4025 64.6514 39.4051 64.6258 39.4023 64.6006L39.3303 64.0084C39.3226 63.9538 39.2958 63.9037 39.2546 63.8671C39.2133 63.8305 39.1604 63.8098 39.1053 63.8086H38.5131C38.4877 63.8084 38.4626 63.8137 38.4393 63.8239C38.4161 63.8342 38.3953 63.8492 38.3783 63.8681C38.3613 63.887 38.3485 63.9092 38.3407 63.9334C38.3329 63.9576 38.3303 63.9832 38.3331 64.0084L38.4051 64.6006C38.4131 64.655 38.4401 64.7049 38.4813 64.7415C38.5224 64.778 38.5751 64.7989 38.6301 64.8004Z" fill="white"/>
<path d="M41.2309 32.7171H43.5709L43.2109 31.8369C43.0939 31.5597 43.3405 31.2969 43.7077 31.2969H45.9865C46.3465 31.2969 46.6472 31.5651 46.5788 31.8369L46.3627 32.7171H48.7028C49.0509 32.7228 49.3849 32.856 49.6414 33.0916C49.8978 33.3272 50.0589 33.6486 50.0941 33.9951L50.2741 36.0489C50.2844 36.1428 50.2745 36.2378 50.2452 36.3276C50.2159 36.4175 50.1678 36.5 50.1041 36.5698C50.0404 36.6396 49.9626 36.6951 49.8759 36.7325C49.7891 36.7699 49.6954 36.7885 49.601 36.7869H41.0455C40.8449 36.7831 40.6526 36.7059 40.505 36.5699C40.3574 36.4339 40.2648 36.2485 40.2446 36.0489L40.0646 33.9951C40.0466 33.8323 40.0636 33.6676 40.1143 33.512C40.165 33.3563 40.2484 33.2132 40.3587 33.0923C40.4691 32.9714 40.604 32.8753 40.7544 32.8106C40.9048 32.7459 41.0672 32.714 41.2309 32.7171Z" fill="#407BFF"/>
<path opacity="0.2" d="M46.3628 32.7176H43.5674L43.3496 32.1992H46.4906L46.3628 32.7176Z" fill="black"/>
<path d="M48.2452 35.556C48.2561 35.6636 48.3061 35.7635 48.3857 35.8368C48.4653 35.9101 48.569 35.9517 48.6772 35.9538C48.7278 35.9541 48.7779 35.9437 48.8242 35.9233C48.8706 35.9029 48.9121 35.8729 48.9461 35.8354C48.98 35.7978 49.0057 35.7535 49.0214 35.7054C49.0371 35.6573 49.0425 35.6064 49.0372 35.556C49.0262 35.4484 48.9762 35.3485 48.8966 35.2752C48.817 35.2019 48.7133 35.1603 48.6052 35.1582C48.5545 35.1579 48.5044 35.1683 48.4581 35.1887C48.4117 35.2091 48.3702 35.2391 48.3362 35.2766C48.3023 35.3142 48.2766 35.3585 48.2609 35.4066C48.2452 35.4547 48.2398 35.5057 48.2452 35.556Z" fill="#263238"/>
<path d="M41.3858 35.556C41.3972 35.6638 41.4475 35.7637 41.5274 35.837C41.6073 35.9102 41.7112 35.9518 41.8196 35.9538C41.8702 35.9541 41.9203 35.9437 41.9667 35.9233C42.013 35.9029 42.0545 35.8729 42.0885 35.8354C42.1225 35.7978 42.1481 35.7536 42.1638 35.7054C42.1795 35.6573 42.1849 35.6064 42.1796 35.556C42.169 35.4482 42.1191 35.3481 42.0394 35.2748C41.9598 35.2014 41.8559 35.1599 41.7476 35.1582C41.6968 35.1577 41.6465 35.1679 41.5999 35.1882C41.5534 35.2085 41.5116 35.2384 41.4775 35.276C41.4433 35.3136 41.4175 35.3579 41.4017 35.4062C41.3859 35.4545 41.3804 35.5055 41.3858 35.556Z" fill="#263238"/>
<path d="M56.5237 68.0132L45.9397 70.0832C45.8221 70.1104 45.7001 70.1123 45.5818 70.0889C45.4635 70.0654 45.3514 70.0172 45.2531 69.9473C45.1548 69.8773 45.0724 69.7874 45.0114 69.6833C44.9504 69.5792 44.9122 69.4634 44.8993 69.3434L44.7193 67.7342C44.6985 67.4796 44.7722 67.2262 44.9262 67.0224C45.0802 66.8186 45.3038 66.6786 45.5545 66.629L56.1385 64.559C56.2561 64.5319 56.3782 64.5299 56.4966 64.5533C56.6151 64.5768 56.7272 64.625 56.8257 64.6949C56.9241 64.7648 57.0067 64.8547 57.0679 64.9588C57.129 65.0629 57.1675 65.1788 57.1807 65.2988L57.3607 66.908C57.3814 67.1629 57.3075 67.4165 57.1531 67.6203C56.9987 67.8242 56.7746 67.9641 56.5237 68.0132ZM45.5851 66.8972C45.4075 66.9324 45.2491 67.0316 45.1399 67.176C45.0307 67.3203 44.9784 67.4998 44.9929 67.6802L45.1729 69.2894C45.1821 69.3744 45.2093 69.4565 45.2526 69.5303C45.2959 69.604 45.3543 69.6678 45.4241 69.7173C45.4938 69.7668 45.5733 69.8009 45.6572 69.8175C45.7411 69.834 45.8276 69.8326 45.9109 69.8132L56.4931 67.745C56.671 67.7098 56.8296 67.6103 56.9389 67.4656C57.0481 67.3208 57.1002 67.1409 57.0853 66.9602L56.9053 65.351C56.896 65.2662 56.8689 65.1844 56.8257 65.1108C56.7825 65.0373 56.7242 64.9737 56.6546 64.9244C56.585 64.8751 56.5058 64.8411 56.4221 64.8246C56.3384 64.8082 56.2521 64.8097 56.1691 64.829L45.5851 66.8972Z" fill="#407BFF"/>
<path d="M47.0847 68.4227L46.5447 68.5271L46.4691 68.79L46.1973 68.8439L46.5843 67.6127L46.8471 67.5605L47.4879 68.5901L47.2071 68.6459L47.0847 68.4227ZM46.9785 68.2427L46.7481 67.8449L46.6131 68.3147L46.9785 68.2427Z" fill="#407BFF"/>
<path d="M48.2539 67.3378C48.3282 67.3524 48.3956 67.3912 48.4454 67.4483C48.4953 67.5053 48.5248 67.5772 48.5293 67.6528C48.5391 67.731 48.5259 67.8104 48.4916 67.8814C48.4579 67.9553 48.4035 68.0178 48.335 68.0614C48.2554 68.1117 48.1667 68.146 48.0739 68.1622L47.8435 68.2072L47.8778 68.5204L47.6114 68.5708L47.4854 67.4404L47.9839 67.3432C48.0726 67.3225 48.1646 67.3207 48.2539 67.3378ZM48.2126 67.8616C48.2316 67.8406 48.2457 67.8157 48.2538 67.7886C48.2619 67.7615 48.2638 67.7329 48.2593 67.705C48.2585 67.6779 48.2508 67.6515 48.2369 67.6282C48.2231 67.6049 48.2035 67.5855 48.1802 67.5718C48.1238 67.5459 48.0602 67.5401 48.0002 67.5556L47.7824 67.5988L47.8274 67.9912L48.0434 67.948C48.1079 67.938 48.1674 67.907 48.2126 67.8598V67.8616Z" fill="#407BFF"/>
<path d="M49.4405 67.1054C49.5133 67.1215 49.5794 67.1599 49.6295 67.2152C49.6801 67.2722 49.7105 67.3443 49.7159 67.4204C49.7257 67.4986 49.7126 67.578 49.6781 67.649C49.6444 67.7229 49.59 67.7854 49.5215 67.829C49.4427 67.8796 49.3546 67.9139 49.2623 67.9298L49.0301 67.9748L49.0643 68.288L48.7979 68.3402L48.6719 67.208L49.1705 67.1108C49.2591 67.0901 49.3511 67.0882 49.4405 67.1054ZM49.3991 67.6292C49.4181 67.6082 49.4322 67.5833 49.4403 67.5562C49.4484 67.5291 49.4503 67.5005 49.4459 67.4726C49.445 67.4455 49.4373 67.419 49.4235 67.3957C49.4096 67.3725 49.3901 67.353 49.3667 67.3394C49.3101 67.3143 49.2468 67.3086 49.1867 67.3232L48.9689 67.3664L49.0139 67.7588L49.2299 67.7156C49.2943 67.7065 49.3539 67.676 49.3991 67.6292Z" fill="#407BFF"/>
<path d="M50.7208 67.9601L50.4634 67.6883H50.4489L50.2185 67.7333L50.2528 68.0483L49.9864 68.1005L49.8604 66.9701L50.3589 66.8729C50.4484 66.8523 50.5413 66.8523 50.6308 66.8729C50.7034 66.8886 50.7694 66.9263 50.8197 66.9809C50.8689 67.0387 50.8985 67.1105 50.9043 67.1861C50.9142 67.265 50.9011 67.345 50.8666 67.4165C50.8315 67.4901 50.7766 67.5524 50.7081 67.5965L51.0051 67.9097L50.7208 67.9601ZM50.5551 67.1069C50.4985 67.0818 50.435 67.0767 50.3751 67.0925L50.1574 67.1339L50.2024 67.5281L50.4184 67.4867C50.4866 67.4785 50.55 67.4474 50.5984 67.3985C50.618 67.378 50.6324 67.3531 50.6406 67.3259C50.6487 67.2986 50.6503 67.2699 50.6451 67.2419C50.6434 67.2133 50.6339 67.1856 50.6177 67.1619C50.6016 67.1381 50.5794 67.1191 50.5534 67.1069H50.5551Z" fill="#407BFF"/>
<path d="M51.421 67.7659C51.3228 67.7355 51.236 67.6764 51.1718 67.5962C51.1076 67.516 51.069 67.4183 51.061 67.3159C51.0479 67.2084 51.0647 67.0994 51.1095 67.0009C51.1543 66.9006 51.2236 66.8133 51.3111 66.7471C51.4039 66.677 51.5118 66.6295 51.6261 66.6085C51.7353 66.5852 51.8485 66.5896 51.9555 66.6211C52.0526 66.6512 52.1388 66.7087 52.2039 66.7867C52.2703 66.8676 52.3104 66.9668 52.3191 67.0711C52.3322 67.1785 52.3154 67.2875 52.2705 67.3861C52.2251 67.4859 52.1559 67.5731 52.0689 67.6399C51.9766 67.7096 51.8694 67.757 51.7557 67.7785C51.6448 67.8023 51.5297 67.798 51.421 67.7659ZM51.9069 67.4725C51.957 67.4318 51.996 67.3792 52.0203 67.3195C52.0457 67.2574 52.055 67.1899 52.0473 67.1233C52.0413 67.0582 52.0177 66.9959 51.9789 66.9433C51.9428 66.8957 51.8933 66.86 51.8368 66.8407C51.7753 66.8199 51.7094 66.8162 51.646 66.8299C51.58 66.8422 51.5182 66.8707 51.466 66.9127C51.4148 66.9527 51.3751 67.0055 51.3507 67.0657C51.326 67.1279 51.3173 67.1954 51.3255 67.2619C51.331 67.3268 51.3541 67.389 51.3922 67.4419C51.4289 67.4896 51.479 67.5253 51.5361 67.5445C51.5942 67.5638 51.6562 67.5675 51.7161 67.5553C51.7859 67.5448 51.8517 67.5163 51.9069 67.4725Z" fill="#407BFF"/>
<path d="M53.5211 66.2578L53.1503 67.4854L52.8875 67.5376L52.2646 66.5026L52.5526 66.4468L52.9919 67.1866L53.2565 66.31L53.5211 66.2578Z" fill="#407BFF"/>
<path d="M54.6098 66.985L54.6332 67.1956L53.7422 67.3756L53.6162 66.2434L54.4856 66.0742L54.509 66.2848L53.9042 66.4018L53.9312 66.6484L54.4712 66.544L54.4946 66.7474L53.9546 66.8518L53.9834 67.1128L54.6098 66.985Z" fill="#407BFF"/>
<path d="M54.7197 66.0251L55.2417 65.9225C55.3529 65.8956 55.4689 65.8956 55.5801 65.9225C55.6763 65.9476 55.7624 66.0016 55.8267 66.0773C55.891 66.1577 55.9298 66.2555 55.9383 66.3581C55.9525 66.4648 55.9363 66.5734 55.8915 66.6713C55.8474 66.7685 55.7777 66.8519 55.6899 66.9125C55.5942 66.9814 55.484 67.0276 55.3677 67.0475L54.8457 67.1501L54.7197 66.0251ZM55.3299 66.8405C55.4332 66.8252 55.5272 66.7727 55.5945 66.6929C55.625 66.6541 55.6474 66.6096 55.6604 66.562C55.6734 66.5144 55.6767 66.4646 55.6701 66.4157C55.6674 66.369 55.6542 66.3236 55.6315 66.2827C55.6087 66.2419 55.577 66.2067 55.5387 66.1799C55.496 66.1547 55.4487 66.1382 55.3996 66.1314C55.3505 66.1246 55.3005 66.1276 55.2525 66.1403L55.0095 66.1871L55.0869 66.8891L55.3299 66.8405Z" fill="#407BFF"/>
</g>
<defs>
<clipPath id="clip0_1986_22972">
<rect width="90" height="90" fill="white" transform="translate(0.5)"/>
</clipPath>
</defs>
</svg>
