<svg width="40" height="40" viewBox="0 0 40 40" fill="none" xmlns="http://www.w3.org/2000/svg">
<g clip-path="url(#clip0_1056_16527)">
<rect width="40" height="40" fill="#1A202F"/>
<path fill-rule="evenodd" clip-rule="evenodd" d="M17.7839 26.1961C17.9231 25.8009 18.1253 25.4168 18.3915 25.0561C19.1078 24.0868 20.1493 23.4985 21.2547 23.3318C22.3602 23.1652 23.5287 23.4213 24.498 24.1366C25.4673 24.8529 26.0556 25.8943 26.2222 26.9998C26.2405 27.1248 26.2547 27.2518 26.2629 27.3778C26.3249 28.3674 26.0526 29.3835 25.4175 30.243C25.007 30.7988 24.4929 31.2276 23.9239 31.5233C23.4677 31.761 22.9729 31.9144 22.4649 31.9795C22.3145 31.9988 22.1631 32.011 22.0107 32.014L21.8654 32.0171L16.9416 36.9409L19.9999 39.9992L39.9999 19.9992L29.5061 9.50539L23.2035 15.808C23.2482 16.1697 23.2523 16.5365 23.2157 16.8992C23.2086 16.9693 23.2005 17.0394 23.1903 17.1095L23.1924 17.1136L23.1731 17.2172C23.0938 17.6897 22.9455 18.153 22.726 18.5899C22.6081 18.8267 22.4699 19.0543 22.3125 19.2707C22.2413 19.3682 22.1672 19.4627 22.0889 19.5542C22.0513 19.5999 22.0127 19.6436 21.9731 19.6873L21.969 19.6913C21.9436 19.7198 21.9172 19.7472 21.8908 19.7757L21.8877 19.7787L21.8593 19.8082L21.8532 19.8143L21.843 19.8244L21.8278 19.8397L21.8258 19.8427L21.8187 19.8498L21.8095 19.859L21.8075 19.861L21.8014 19.8671L21.7983 19.8701L21.7922 19.8762L21.7892 19.8793L21.7851 19.8834L21.778 19.8905C21.6226 20.0419 21.46 20.1811 21.2903 20.3081L21.2832 20.3131L21.2558 20.3345L21.2446 20.3426C21.1003 20.4483 20.955 20.5438 20.8077 20.6291L20.7965 20.6363L20.7935 20.6383L20.7833 20.6444H20.7823L20.7813 20.6464C20.7528 20.6617 20.7071 20.686 20.6451 20.7196C20.5781 20.7541 20.5283 20.7805 20.4937 20.7968C20.1401 20.9665 19.7693 21.0914 19.3893 21.1717L19.374 21.1748H19.373C19.247 21.2012 19.119 21.2225 18.992 21.2388L18.9219 21.2479C18.7085 21.2713 18.4921 21.2804 18.2726 21.2764C18.0298 21.2703 17.79 21.2479 17.5553 21.2083L17.5197 21.2022L17.4445 21.188L17.4608 21.1717L17.5228 21.1108L18.6415 20.0093L18.7695 19.8834L19.7611 18.9079L19.9217 18.7494L19.881 18.53L19.624 17.1502L19.4594 16.2642L19.3568 15.7562L19.3029 15.4899L19.0367 15.4361L18.5246 15.3325L17.6427 15.1689L16.2629 14.9118L16.0434 14.8712L15.8849 15.0317L14.9095 16.0234L14.7835 16.1514L13.6821 17.2701L13.6211 17.332L13.6049 17.3483L13.5907 17.2731L13.5846 17.2376C13.5449 17.0028 13.5216 16.7641 13.5165 16.5202C13.5114 16.3008 13.5216 16.0843 13.5449 15.871L13.5541 15.8009C13.5724 15.6545 13.5978 15.5103 13.6293 15.366L13.6323 15.3538V15.3487C13.7136 14.988 13.8345 14.6354 13.9961 14.2991C14.0123 14.2646 14.0387 14.2148 14.0733 14.1477C14.1068 14.0847 14.1302 14.04 14.1464 14.0116L14.1475 14.0085L14.1535 13.9984L14.1556 13.9953L14.1627 13.9831C14.2623 13.8114 14.375 13.6417 14.501 13.4741L14.5244 13.4436L14.5275 13.4395C14.6423 13.2912 14.7672 13.1469 14.9014 13.0098L14.9085 13.0026L14.9125 12.9986L14.9156 12.9955L14.9247 12.9864L14.9308 12.9803L14.9562 12.9549L14.9603 12.9508L14.9684 12.9427H14.9694L14.9786 12.9325L14.9847 12.9264L15.0141 12.898L15.0172 12.8949C15.0446 12.8685 15.0731 12.8421 15.1015 12.8167L15.1056 12.8126C15.1493 12.773 15.193 12.7344 15.2377 12.6968C15.3301 12.6176 15.4246 12.5434 15.5212 12.4723C15.7376 12.3148 15.9652 12.1766 16.2019 12.0577C16.6368 11.8403 17.0971 11.6919 17.5665 11.6127L17.6782 11.5924L17.6823 11.5954C17.7524 11.5852 17.8225 11.5771 17.8926 11.57C18.1832 11.5405 18.4769 11.5375 18.7685 11.5609L25.1686 5.16074L21.5088 1.50092L20.0091 0.0012207L18.5094 1.50092L16.0099 4.00041L14.5102 2.50071C11.1877 -0.812638 5.81378 -0.812638 2.50145 2.4997C-0.811906 5.81305 -0.811906 11.187 2.50145 14.4993L4.00114 15.999L5.50084 17.4987L7.00053 18.9984L5.50084 20.4981L4.00114 18.9984L2.50145 17.4987L1.50165 18.4985L0.00195312 19.9982L1.50165 21.4979L12.597 32.5932L17.5208 27.6694L17.5187 27.6673L17.534 27.6562L17.5421 27.4591C17.5604 27.0293 17.6406 26.6025 17.7849 26.1931L17.7839 26.1961ZM19.8353 25.9228C20.0599 25.7876 20.1981 25.6149 20.3159 25.4676C20.64 25.0622 20.8747 24.7685 21.6652 24.9657C21.9192 25.0287 22.1387 25.0043 22.3257 24.9839C22.8408 24.927 23.2137 24.8844 23.6323 25.5804C23.7674 25.8049 23.9402 25.9431 24.0875 26.061C24.4929 26.3851 24.7855 26.6198 24.5894 27.4103C24.5264 27.6643 24.5508 27.8838 24.5711 28.0707C24.628 28.5859 24.6697 28.9587 23.9747 29.3774C23.7502 29.5125 23.612 29.6852 23.4941 29.8326C23.17 30.238 22.9353 30.5306 22.1448 30.3345C21.8908 30.2715 21.6713 30.2959 21.4844 30.3162C20.9692 30.3741 20.5963 30.4148 20.1777 29.7198C20.0426 29.4952 19.8699 29.357 19.7225 29.2392C19.3171 28.9151 19.0245 28.6803 19.2206 27.8899C19.2836 27.6358 19.2592 27.4164 19.2389 27.2294C19.181 26.7143 19.1403 26.3414 19.8353 25.9228ZM13.0013 6.9998L5.50185 14.4993L4.00216 12.9996C1.51689 10.5143 1.51689 6.48466 4.00216 3.99939C6.48742 1.51412 10.5171 1.51412 13.0024 3.99939L14.5021 5.49909L16.0017 6.99878L17.5014 8.49848L16.0017 9.99817L14.5021 8.49848L13.0024 6.99878L13.0013 6.9998Z" fill="white"/>
<path fill-rule="evenodd" clip-rule="evenodd" d="M22.7617 29.0989C22.4376 29.5043 22.2029 29.7969 21.4124 29.6008C21.1583 29.5378 20.9389 29.5622 20.7519 29.5825C20.4989 29.611 20.2805 29.6354 20.0742 29.5704C20.1098 29.6151 20.1443 29.6638 20.1768 29.7177C20.5955 30.4127 20.9683 30.372 21.4835 30.3141C21.6704 30.2928 21.8899 30.2684 22.1439 30.3324C22.9344 30.5285 23.1691 30.2359 23.4932 29.8305C23.6111 29.6831 23.7483 29.5114 23.9738 29.3753C24.6688 28.9567 24.6272 28.5838 24.5703 28.0686C24.5489 27.8817 24.5245 27.6622 24.5885 27.4082C24.7846 26.6177 24.492 26.383 24.0866 26.0589C24.0084 25.9969 23.923 25.9288 23.8407 25.8445C23.9332 26.0396 23.9525 26.2926 23.857 26.6766C23.794 26.9306 23.8184 27.1501 23.8397 27.3371C23.8966 27.8522 23.9383 28.2251 23.2433 28.6437C23.0187 28.7788 22.8806 28.9516 22.7627 29.0989H22.7617Z" fill="white"/>
<path fill-rule="evenodd" clip-rule="evenodd" d="M13.2061 33.2057L14.4264 34.426L18.0649 30.7875C18.0821 30.7733 18.0984 30.758 18.1136 30.7418C18.452 30.4034 18.452 29.8558 18.1136 29.5174C17.7753 29.1791 17.2276 29.1791 16.8893 29.5174C16.874 29.5337 16.8588 29.5489 16.8446 29.5662L13.2051 33.2057H13.2061Z" fill="white"/>
<path fill-rule="evenodd" clip-rule="evenodd" d="M26.9909 6.9903L25.7706 5.77002L25.1061 6.4335L22.1311 9.40851C22.1138 9.42273 22.0976 9.43797 22.0823 9.45423C22.0661 9.47049 22.0518 9.48674 22.0366 9.503L21.4666 10.073C21.4493 10.0872 21.4331 10.1025 21.4178 10.1187C21.0795 10.4571 21.0795 11.0047 21.4178 11.3431C21.7562 11.6814 22.3038 11.6814 22.6422 11.3431C22.6584 11.3268 22.6726 11.3116 22.6869 11.2943L23.2569 10.7243C23.2742 10.7101 23.2904 10.6948 23.3067 10.6786C23.3219 10.6633 23.3371 10.6471 23.3514 10.6298L26.3264 7.6548L26.9909 6.99132V6.9903Z" fill="white"/>
</g>
<defs>
<clipPath id="clip0_1056_16527">
<rect width="40" height="40" fill="white"/>
</clipPath>
</defs>
</svg>
