<svg width="21" height="21" viewBox="0 0 21 21" fill="none" xmlns="http://www.w3.org/2000/svg">
<path fill-rule="evenodd" clip-rule="evenodd" d="M10.0997 1.10669C8.38681 1.10669 6.7441 1.78712 5.53293 2.99829C4.32176 4.20946 3.64133 5.85217 3.64133 7.56502V8.15169C3.64128 8.73243 3.46934 9.30017 3.14716 9.78336L2.19133 11.2192C1.07966 12.8859 1.928 15.1509 3.8605 15.6775C4.48966 15.8492 5.12466 15.9942 5.76383 16.1134L5.7655 16.1175C6.4055 17.8275 8.118 19.0234 10.0997 19.0234C12.0813 19.0234 13.7938 17.8275 14.4347 16.1175L14.4363 16.1134C15.0765 15.9943 15.7115 15.8489 16.3397 15.6775C18.2722 15.1509 19.1205 12.8859 18.0088 11.2192L17.0522 9.78336C16.73 9.30017 16.558 8.73243 16.558 8.15169V7.56502C16.558 5.85217 15.8776 4.20946 14.6664 2.99829C13.4552 1.78712 11.8125 1.10669 10.0997 1.10669ZM12.913 16.3459C11.0438 16.5692 9.15468 16.5692 7.2855 16.3459C7.878 17.1967 8.90883 17.7734 10.0997 17.7734C11.2905 17.7734 12.3205 17.1967 12.913 16.3459ZM4.89133 7.56502C4.89133 6.18369 5.44006 4.85893 6.41681 3.88218C7.39357 2.90542 8.71833 2.35669 10.0997 2.35669C11.481 2.35669 12.8058 2.90542 13.7825 3.88218C14.7593 4.85893 15.308 6.18369 15.308 7.56502V8.15169C15.308 8.97919 15.553 9.78836 16.0122 10.4767L16.9688 11.9125C17.1171 12.1345 17.2104 12.3886 17.2411 12.6538C17.2718 12.919 17.239 13.1876 17.1453 13.4376C17.0517 13.6876 16.9 13.9118 16.7027 14.0916C16.5054 14.2714 16.2681 14.4017 16.0105 14.4717C12.1403 15.5272 8.05816 15.5272 4.188 14.4717C3.93063 14.4015 3.69364 14.2711 3.49653 14.0913C3.29942 13.9116 3.14783 13.6875 3.05425 13.4377C2.96066 13.1879 2.92777 12.9194 2.95827 12.6544C2.98876 12.3894 3.08178 12.1354 3.22966 11.9134L4.188 10.4767C4.64678 9.7881 4.8915 8.97912 4.89133 8.15169V7.56502Z" fill="#1A202F"/>
</svg>
